<?xml version="1.0" standalone="no"?>
<!DOCTYPE svg PUBLIC "-//W3C//DTD SVG 1.1//EN" "http://www.w3.org/Graphics/SVG/1.1/DTD/svg11.dtd" >
<svg xmlns="http://www.w3.org/2000/svg">
<metadata></metadata>
<defs>
<font id="aachen_btbold" horiz-adv-x="1366" >
<font-face units-per-em="2048" ascent="1638" descent="-410" />
<missing-glyph horiz-adv-x="682" />
<glyph horiz-adv-x="2048" />
<glyph horiz-adv-x="2048" />
<glyph unicode="&#xd;" horiz-adv-x="682" />
<glyph unicode=" "  horiz-adv-x="682" />
<glyph unicode="&#x09;" horiz-adv-x="682" />
<glyph unicode="&#xa0;" horiz-adv-x="682" />
<glyph unicode="!" horiz-adv-x="782" d="M135 1343q0 105 63.5 157t190.5 52q128 0 192 -52t64 -157q0 -16 -3.5 -45.5t-10.5 -66.5l-139 -754h-205l-140 754q-6 30 -9 59t-3 53zM186 186q0 83 60 144t143 61q85 0 145 -60t60 -145q0 -84 -61 -144t-144 -60q-82 0 -142.5 61t-60.5 143z" />
<glyph unicode="&#x22;" horiz-adv-x="758" d="M68 877v563h258v-563h-258zM430 877v563h260v-563h-260z" />
<glyph unicode="#" horiz-adv-x="1575" d="M-6 350l100 271h254l74 213h-258l98 270h258l129 366h289l-129 -366h227l129 366h289l-129 -366h256l-100 -270h-252l-76 -213h258l-100 -271h-254l-131 -366h-289l131 366h-227l-131 -366h-289l131 366h-258zM629 621h239l78 213h-239z" />
<glyph unicode="$" d="M111 1061q0 212 95.5 320t307.5 137v114h356v-125q106 -23 194 -58t163 -83v-367h-445v68q0 70 -24.5 106.5t-71.5 36.5q-48 0 -72 -26t-24 -78q0 -99 225 -161q25 -7 39 -11q259 -73 335.5 -170t76.5 -301q0 -200 -96.5 -312t-299.5 -147v-127h-356v129q-132 23 -226 59 t-155 87v407h459v-82q0 -92 22 -128t74 -36q48 0 73 33.5t25 95.5q0 114 -217 177q-48 14 -73 22q-236 72 -310.5 161t-74.5 259z" />
<glyph unicode="%" horiz-adv-x="1745" d="M55 1051v221q0 149 69.5 205.5t248.5 56.5t248 -56t69 -206v-221q0 -149 -68.5 -204.5t-248.5 -55.5q-179 0 -248.5 56.5t-69.5 203.5zM279 0l880 1534h303l-878 -1534h-305zM322 1026q0 -41 11 -55.5t40 -14.5q28 0 39.5 16t11.5 54v270q0 40 -12 56t-39 16 q-28 0 -39.5 -15.5t-11.5 -56.5v-270zM1051 248v221q0 147 68.5 203.5t248.5 56.5q181 0 250.5 -56t69.5 -204v-221q0 -147 -70 -203.5t-250 -56.5t-248.5 56t-68.5 204zM1317 223q0 -38 11.5 -53.5t39.5 -15.5q29 0 41 15.5t12 53.5v271q0 38 -12 53.5t-41 15.5 q-27 0 -39 -16t-12 -53v-271z" />
<glyph unicode="&#x26;" horiz-adv-x="1321" d="M72 432q0 154 49 248t149 131q-93 38 -138.5 114.5t-45.5 194.5q0 211 134.5 321.5t387.5 110.5q147 0 294 -36t294 -109v-297h-454q-2 60 -24.5 89.5t-66.5 29.5t-66 -35t-22 -104q0 -81 34.5 -114.5t117.5 -33.5h26v82h455v-82h74v-283h-74v-659h-616q-143 0 -208 9.5 t-112 31.5q-93 43 -140.5 142t-47.5 249zM561 496q0 -88 32 -124t107 -36h41v323h-10q-98 0 -134 -34t-36 -129z" />
<glyph unicode="'" horiz-adv-x="393" d="M68 877v563h258v-563h-258z" />
<glyph unicode="(" horiz-adv-x="846" d="M117 655q0 262 108 506.5t330 485.5l246 -156q-120 -212 -178 -417t-58 -419q0 -211 58 -415.5t178 -417.5l-244 -158q-222 241 -331 486.5t-109 504.5z" />
<glyph unicode=")" horiz-adv-x="846" d="M45 -178q119 212 177.5 417.5t58.5 415.5t-57.5 414.5t-178.5 421.5l246 156q223 -244 330.5 -487.5t107.5 -504.5q0 -258 -108.5 -503t-331.5 -488z" />
<glyph unicode="*" horiz-adv-x="854" d="M27 1022l217 125l-217 125l79 151l228 -120v249h182v-249l223 120l86 -151l-223 -125l223 -125l-86 -152l-223 123v-252h-182v252l-228 -123z" />
<glyph unicode="+" horiz-adv-x="1706" d="M254 475v273h459v473h280v-473h459v-273h-459v-475h-280v475h-459z" />
<glyph unicode="," horiz-adv-x="682" d="M137 186q0 82 60 142.5t143 60.5q90 0 147.5 -62t57.5 -161q0 -100 -63.5 -205.5t-194.5 -222.5l-86 80q39 50 69 99.5t51 96.5q-84 5 -134 51.5t-50 120.5z" />
<glyph unicode="-" horiz-adv-x="782" d="M90 393v369h602v-369h-602z" />
<glyph unicode="." horiz-adv-x="682" d="M137 184q0 83 60 144t143 61q84 0 144.5 -60t60.5 -145q0 -84 -60.5 -143t-144.5 -59q-82 0 -142.5 60t-60.5 142z" />
<glyph unicode="/" horiz-adv-x="664" d="M-82 -190l442 1712h338l-444 -1712h-336z" />
<glyph unicode="0" d="M115 526v473q0 315 124 434t443 119t444 -119t125 -434v-473q0 -312 -124.5 -431.5t-444.5 -119.5q-319 0 -443 119t-124 432zM588 451q0 -83 21.5 -116.5t72.5 -33.5q50 0 72 34.5t22 115.5v628q0 84 -22 118t-72 34t-72 -34t-22 -118v-628z" />
<glyph unicode="1" d="M387 0v270q32 17 44.5 47t12.5 93v712q0 64 -13 94.5t-44 47.5v266h533v-1120q0 -68 12 -96t43 -44v-270h-588z" />
<glyph unicode="2" d="M113 0v342q0 197 66.5 296t279.5 204q37 18 102 48q223 104 223 212q0 57 -26 91t-68 34q-49 0 -74.5 -37t-25.5 -107v-102h-447v412q124 80 262.5 118.5t305.5 38.5q280 0 414.5 -117t134.5 -362q0 -113 -28.5 -190t-92.5 -140q-52 -50 -298 -174l-102 -51 q-110 -57 -139 -91.5t-29 -84.5v-14h78q78 0 104.5 29t29.5 120h446v-475h-1116z" />
<glyph unicode="3" d="M123 131v422h455v-94q0 -91 21 -124.5t71 -33.5q49 0 74.5 40.5t25.5 119.5q0 96 -39 135t-151 39h-140v297h140q111 0 146.5 34.5t35.5 127.5q0 63 -26 97t-74 34q-43 0 -63.5 -33.5t-20.5 -101.5v-76h-455v366q113 84 258.5 127t314.5 43q267 0 403 -109.5t136 -324.5 q0 -127 -50.5 -204t-154.5 -109q109 -36 164 -124.5t55 -229.5q0 -247 -134.5 -360.5t-426.5 -113.5q-180 0 -319 38.5t-246 117.5z" />
<glyph unicode="4" d="M92 373v366l529 791h544v-846h103v-311h-102q1 -47 14.5 -69.5t46.5 -33.5v-270h-592v270q40 10 58 32t18 63v8h-619zM465 684h256v389z" />
<glyph unicode="5" d="M154 154v421h452v-118q0 -82 22 -118t72 -36q42 0 64 30.5t22 88.5v43v141q0 68 -23 101.5t-71 33.5q-27 0 -47.5 -14.5t-38.5 -46.5h-452v850h1073v-416h-446q-5 54 -30 77t-79 23h-66v-208q48 20 105.5 30.5t122.5 10.5q231 0 330.5 -119.5t99.5 -409.5 q0 -293 -127 -417t-422 -124q-160 0 -300.5 44.5t-260.5 132.5z" />
<glyph unicode="6" d="M115 526v473q0 308 121 430.5t415 122.5q166 0 305.5 -41t257.5 -125v-335h-438v28q0 84 -22 118t-72 34t-72 -34t-22 -118v-135q52 21 114 31t132 10q211 0 314 -120t103 -365q0 -291 -127 -408t-442 -117q-319 0 -443 119t-124 432zM588 451q0 -83 21.5 -116.5 t72.5 -33.5q50 0 72 34.5t22 115.5v90q0 81 -22 115t-72 34t-72 -34t-22 -115v-90z" />
<glyph unicode="7" d="M162 907v623h1091v-277l-460 -1253h-504l440 1204h-22q-93 0 -123.5 -31.5t-30.5 -136.5v-129h-391z" />
<glyph unicode="8" d="M94 442q0 141 52.5 228t160.5 129q-101 42 -143.5 112.5t-42.5 198.5q0 231 133.5 336.5t427.5 105.5q295 0 428 -105t133 -337q0 -129 -41.5 -199t-142.5 -112q107 -41 159 -128.5t52 -228.5q0 -236 -145 -351.5t-443 -115.5t-443 115.5t-145 351.5zM588 451 q0 -83 21.5 -116.5t72.5 -33.5q50 0 72 34.5t22 115.5v47q0 81 -22 115t-72 34t-72 -34t-22 -115v-47zM588 1079q0 -82 21.5 -115.5t72.5 -33.5t72.5 33t21.5 116q0 82 -22 117t-72 35t-72 -34t-22 -118z" />
<glyph unicode="9" d="M115 1034q0 284 127.5 401t439.5 117q320 0 444.5 -119t124.5 -432v-473q0 -307 -122 -431t-416 -124q-165 0 -306.5 39t-256.5 115v330h438v-21q0 -73 22.5 -106t71.5 -33q51 0 72.5 34t21.5 118v124q-48 -26 -106 -38.5t-131 -12.5q-217 0 -320.5 125t-103.5 387z M588 971q0 -83 21.5 -116.5t72.5 -33.5q50 0 72 34.5t22 115.5v106q0 81 -22 115.5t-72 34.5t-72 -34.5t-22 -115.5v-106z" />
<glyph unicode=":" horiz-adv-x="682" d="M137 184q0 83 60 144t143 61q84 0 144.5 -60t60.5 -145q0 -84 -60.5 -143t-144.5 -59q-82 0 -142.5 60t-60.5 142zM137 793q0 83 60 143.5t143 60.5q84 0 144.5 -60t60.5 -144t-60.5 -143.5t-144.5 -59.5q-82 0 -142.5 60t-60.5 143z" />
<glyph unicode=";" horiz-adv-x="682" d="M137 186q0 82 60 142.5t143 60.5q90 0 147.5 -62t57.5 -161q0 -100 -63.5 -205.5t-194.5 -222.5l-86 80q39 50 69 99.5t51 96.5q-84 5 -134 51.5t-50 120.5zM137 793q0 83 60 143.5t143 60.5q84 0 144.5 -60t60.5 -144t-60.5 -143.5t-144.5 -59.5q-82 0 -142.5 60 t-60.5 143z" />
<glyph unicode="&#x3c;" horiz-adv-x="1706" d="M264 471v281l1178 487v-301l-801 -328l801 -327v-299z" />
<glyph unicode="=" horiz-adv-x="1706" d="M254 240v272h1198v-272h-1198zM254 711v272h1198v-272h-1198z" />
<glyph unicode="&#x3e;" horiz-adv-x="1706" d="M264 -16v299l801 327l-801 328v301l1178 -487v-281z" />
<glyph unicode="?" horiz-adv-x="1270" d="M84 1006v387q115 81 252.5 120t310.5 39q267 0 403 -112.5t136 -335.5q0 -103 -20 -167t-66 -116q-41 -47 -165 -116q-45 -25 -69 -39q-64 -39 -84 -75.5t-20 -109.5h-438v115q0 224 198 337l13 7q112 65 143 101.5t31 82.5q0 47 -26.5 76t-68.5 29q-44 0 -68 -34.5 t-24 -98.5v-90h-438zM356 184q0 83 61 144t144 61q84 0 143.5 -60t59.5 -145q0 -84 -60 -143t-143 -59q-82 0 -143.5 60t-61.5 142z" />
<glyph unicode="@" horiz-adv-x="2048" d="M70 520q0 176 55.5 332.5t163.5 284.5q149 177 361.5 271.5t461.5 94.5q386 0 626 -206t240 -533q0 -171 -68 -314.5t-196 -242.5q-70 -55 -153.5 -84t-174.5 -29q-109 0 -166.5 38t-66.5 115q-59 -79 -127.5 -115t-161.5 -36q-171 0 -257.5 88t-86.5 262 q0 247 143.5 411.5t356.5 164.5q74 0 130.5 -28t90.5 -83l49 82h242l-156 -627q-2 -12 -3 -18.5t-1 -11.5q0 -24 12.5 -36.5t34.5 -12.5q128 0 231 142t103 331q0 236 -174.5 381t-462.5 145q-142 0 -266 -35.5t-225 -105.5q-154 -108 -238 -269t-84 -350 q0 -294 199.5 -468.5t535.5 -174.5q160 0 307.5 47t278.5 140l115 -160q-164 -122 -342 -181t-381 -59q-188 0 -355 54.5t-294 156.5q-149 119 -223 279t-74 360zM801 440q0 -72 30.5 -111.5t86.5 -39.5q72 0 129 55.5t79 149.5l47 195q-7 67 -42 104.5t-91 37.5 q-95 0 -167 -116.5t-72 -274.5z" />
<glyph unicode="A" horiz-adv-x="1339" d="M53 0v270q21 8 38.5 41t27.5 84l205 1127h671l232 -1127q12 -52 31 -84.5t42 -40.5v-270h-593v270q23 8 37 30t14 52q0 5 -3.5 19.5t-5.5 21.5h-231q-1 -7 -3.5 -23t-2.5 -24q0 -34 16.5 -52.5t50.5 -23.5l1 -270h-527zM553 664h158l-86 540z" />
<glyph unicode="B" horiz-adv-x="1360" d="M88 0v270q31 16 43 45.5t12 94.5v706q0 65 -12 94t-43 45v267h674q284 0 400 -90.5t116 -305.5q0 -133 -63 -217.5t-179 -107.5q134 -26 200.5 -116t66.5 -245q0 -238 -120 -339t-417 -101h-678zM608 318q9 -2 19 -2.5t30 -0.5q81 0 119.5 41t38.5 127q0 84 -43.5 124 t-134.5 40h-29v-329zM608 1210l1 -276q7 -1 17.5 -1.5t30.5 -0.5q77 0 113.5 33.5t36.5 103.5q0 72 -35 107.5t-104 35.5q-39 0 -60 -2z" />
<glyph unicode="C" horiz-adv-x="1294" d="M98 512v496q0 297 121.5 420.5t407.5 123.5q172 0 320 -42.5t263 -125.5v-421h-456v116q0 82 -21 116t-69 34q-49 0 -70 -33t-21 -117v-633q0 -83 21 -116t70 -33t69.5 33t20.5 116v191h456v-508q-102 -81 -242 -120.5t-327 -39.5q-298 0 -420.5 121t-122.5 422z" />
<glyph unicode="D" horiz-adv-x="1358" d="M74 0v270q30 16 42.5 45.5t12.5 94.5v706q0 65 -12.5 94t-42.5 45v267h581q356 0 480.5 -111t124.5 -422v-457q0 -310 -125 -421t-480 -111h-581zM604 332h55q74 0 100.5 32t26.5 125v558q0 87 -26 115t-101 28h-55v-858z" />
<glyph unicode="E" horiz-adv-x="1313" d="M88 0v270q32 17 44.5 47t12.5 93v706q0 63 -12.5 93t-44.5 46v267h1139v-504h-436v43q0 82 -28 110.5t-106 28.5h-41v-270h302v-295h-302l1 -307q6 -1 15 -1.5t25 -0.5q75 0 105.5 38.5t30.5 135.5q0 21 -0.5 32.5t-1.5 22.5h436v-555h-1139z" />
<glyph unicode="F" horiz-adv-x="1225" d="M88 0v270q31 16 43 45.5t12 94.5v706q0 65 -12 94t-43 45v267h1104v-531h-410v45q0 95 -27.5 126.5t-101.5 31.5h-35v-287h300v-299h-300v-198q0 -71 16.5 -100t57.5 -40v-270h-604z" />
<glyph unicode="G" horiz-adv-x="1313" d="M98 512v496q0 297 121.5 420.5t407.5 123.5q172 0 320 -42.5t263 -125.5v-391h-456v86q0 82 -21 116t-69 34q-49 0 -70 -33t-21 -117v-633q0 -83 21 -116t70 -33t69.5 33t20.5 116v113h-76v303h532v-733q-102 -81 -242 -120.5t-327 -39.5q-298 0 -420.5 121t-122.5 422z " />
<glyph unicode="H" horiz-adv-x="1419" d="M88 0v270q31 16 43 45.5t12 94.5v706q0 65 -12 94t-43 45v267h582v-267q-29 -12 -40.5 -38.5t-11.5 -100.5v-182h183v182q0 71 -11 98.5t-40 40.5v267h581v-267q-30 -15 -42.5 -43.5t-12.5 -95.5v-706q0 -68 12 -96t43 -44v-270h-581v270q28 12 39.5 40t11.5 100v231 h-183v-231q0 -75 12 -102t40 -38v-270h-582z" />
<glyph unicode="I" horiz-adv-x="778" d="M94 0v270q32 17 45 47t13 93v706q0 63 -13 93t-45 46v267h588v-267q-31 -15 -43 -43.5t-12 -95.5v-706q0 -68 12 -96t43 -44v-270h-588z" />
<glyph unicode="J" horiz-adv-x="831" d="M43 6v268q103 3 139.5 48.5t36.5 228.5v584q0 59 -15 84.5t-52 35.5v267h598v-267q-32 -16 -45 -41.5t-13 -83.5v-577q0 -189 -12 -263t-41 -126q-51 -92 -141 -137t-224 -45q-60 0 -117.5 6t-113.5 18z" />
<glyph unicode="K" horiz-adv-x="1395" d="M88 0v270q31 16 43 45.5t12 94.5v706q0 65 -12 94t-43 45v267h582v-267q-29 -12 -40.5 -38.5t-11.5 -100.5v-242l140 283q17 34 25 67.5t8 80.5v14v203h532v-267q-15 -10 -29 -25.5t-28 -37.5l-244 -363l248 -452q25 -46 43 -69t39 -38v-270h-561v197q0 80 -34 158 q-5 12 -7 17l-132 310v-272q0 -75 12 -102t40 -38v-270h-582z" />
<glyph unicode="L" horiz-adv-x="1255" d="M88 0v270q31 16 43 45.5t12 94.5v706q0 65 -12 94t-43 45v267h604v-266q-40 -7 -57 -41.5t-17 -122.5v-762h29q74 0 100.5 31t26.5 149v229h414v-739h-1100z" />
<glyph unicode="M" horiz-adv-x="1692" d="M88 0v270q31 16 43 45.5t12 94.5v706q0 65 -12 94t-43 45v267h625l139 -650l139 650h613v-267q-32 -15 -45 -44.5t-13 -94.5v-706q0 -66 13 -95t45 -45v-270h-549v270q28 12 39.5 40t11.5 100v497l-209 -907h-184l-219 907v-497q0 -72 11.5 -100t41.5 -40v-270h-459z" />
<glyph unicode="N" horiz-adv-x="1376" d="M74 0v270q31 17 44 47t13 93v706q0 63 -13 93t-44 46v267h524l289 -770v364q0 72 -14.5 98.5t-51.5 40.5v267h496v-267q-31 -15 -43 -43.5t-12 -95.5v-1116h-463l-295 725v-315q0 -73 12.5 -100.5t44.5 -39.5v-270h-487z" />
<glyph unicode="O" horiz-adv-x="1335" d="M98 512v496q0 306 126 425t444 119q317 0 442 -119t125 -425v-496q0 -305 -124.5 -424t-442.5 -119q-319 0 -444.5 118.5t-125.5 424.5zM573 446q0 -82 22 -115.5t73 -33.5q50 0 72 34t22 115v633q0 81 -22 115.5t-72 34.5q-51 0 -73 -33.5t-22 -116.5v-633z" />
<glyph unicode="P" horiz-adv-x="1331" d="M88 0v270q31 16 43 45.5t12 94.5v706q0 65 -12 94t-43 45v267h651q301 0 415 -115t114 -451q0 -293 -114.5 -407.5t-408.5 -114.5h-135v-24q0 -72 17.5 -100t62.5 -40v-270h-602zM610 754h31q90 0 124 33t34 120v135q0 95 -33.5 128.5t-124.5 33.5h-31v-450z" />
<glyph unicode="Q" horiz-adv-x="1335" d="M98 512v496q0 306 126 425t444 119q317 0 442 -119t125 -425v-496q0 -151 -21 -238t-69 -145q24 -24 49 -44.5t53 -39.5l-155 -272q-116 46 -201.5 93.5t-155.5 102.5h-57q-329 0 -454.5 118t-125.5 425zM573 446q0 -82 22 -115.5t73 -33.5q50 0 72 34t22 115v633 q0 81 -22 115.5t-72 34.5q-51 0 -73 -33.5t-22 -116.5v-633z" />
<glyph unicode="R" horiz-adv-x="1374" d="M88 0v270q31 16 43 45.5t12 94.5v706q0 65 -12 94t-43 45v267h666q294 0 413 -94t119 -316q0 -144 -54.5 -228.5t-168.5 -119.5q108 -29 149.5 -85.5t44.5 -217.5q1 -6 1 -16q3 -148 57 -175v-270h-506q-26 101 -28 328q0 42 -1 64q-2 130 -31 166t-108 36h-27v-184 q0 -75 12.5 -101t45.5 -39v-270h-584zM614 895h48q82 0 112.5 34t30.5 126q0 89 -34.5 121t-131.5 32h-25v-313z" />
<glyph unicode="S" horiz-adv-x="1307" d="M84 1069q0 249 133 366t414 117q161 0 303 -41.5t268 -126.5v-378h-446v69q0 73 -25 111.5t-72 38.5q-48 0 -72 -27t-24 -80q0 -102 234 -169l30 -9q261 -76 336.5 -176t75.5 -311q0 -246 -138.5 -365t-424.5 -119q-176 0 -322.5 42.5t-247.5 121.5v418h461v-84 q0 -98 21.5 -133t75.5 -35q46 0 72 35t26 98q0 118 -224 185q-43 13 -65 20q-243 77 -316 167t-73 265z" />
<glyph unicode="T" horiz-adv-x="1405" d="M47 831v691h1311v-691h-334v259q0 68 -20 92.5t-74 27.5v-800q0 -66 18 -94.5t64 -45.5v-270h-619v270q45 16 62.5 44t17.5 96v800q-54 -3 -74 -27.5t-20 -92.5v-259h-332z" />
<glyph unicode="U" horiz-adv-x="1346" d="M66 1255v267h583v-266q-30 -14 -41.5 -41.5t-11.5 -98.5v-670q0 -82 21.5 -115.5t72.5 -33.5t72.5 34t21.5 115v670q0 69 -11.5 97.5t-41.5 41.5v267h543v-267q-32 -15 -44.5 -44.5t-12.5 -94.5v-536q0 -178 -12 -254.5t-40 -128.5q-62 -116 -185 -172t-314 -56 q-164 0 -279 46.5t-182 140.5q-39 55 -55.5 124.5t-16.5 198.5v80v557q0 63 -15 93t-52 46z" />
<glyph unicode="V" horiz-adv-x="1284" d="M39 1255v267h586l-1 -267q-23 -8 -33.5 -25.5t-10.5 -47.5q0 -1 1 -8.5t1 -14.5q0 -5 2 -22t6 -40l102 -663l86 682q2 16 3 30t1 23q0 41 -11 59t-40 27v267h516v-267q-23 -10 -37 -34t-22 -64l-211 -1157h-643l-228 1120q-12 59 -27.5 89t-39.5 46z" />
<glyph unicode="W" horiz-adv-x="1802" d="M37 1255v267h581v-267q-22 -13 -32.5 -32.5t-10.5 -48.5q1 -12 3 -35q1 -9 2 -15l55 -499l139 897h330l158 -897l41 467q1 18 2.5 38.5t1.5 22.5q0 42 -11 64.5t-39 37.5v267h510v-267q-23 -19 -36 -44.5t-21 -73.5l-209 -1137h-471l-121 788l-123 -788h-469l-208 1098 q-1 0 -1 1q-16 95 -71 156z" />
<glyph unicode="X" horiz-adv-x="1268" d="M29 0v270q32 27 67 82q4 7 6 10l271 435l-254 385q-18 27 -34.5 44t-35.5 29v267h535v-136q0 -7 -1 -20t-1 -18q0 -23 8.5 -49.5t27.5 -65.5l54 -107l45 105q2 5 7 15q30 60 30 140v136h479v-267q-23 -15 -39 -31.5t-27 -34.5l-258 -411l274 -431q4 -6 10 -16 q30 -45 52 -61v-270h-567v203q0 33 -6.5 59t-20.5 53l-69 136l-60 -136q-12 -27 -17 -56t-5 -79v-180h-471z" />
<glyph unicode="Y" horiz-adv-x="1204" d="M6 1255v267h535v-176q0 -91 6.5 -132.5t21.5 -76.5l62 -138l61 142q17 39 25 86t8 104v191h473v-267q-18 -11 -32 -28t-27 -41l-301 -588v-188q0 -66 15 -94.5t54 -45.5v-270h-614v270q39 17 54 46.5t15 93.5v188l-296 586q-9 18 -23 35t-37 36z" />
<glyph unicode="Z" horiz-adv-x="1294" d="M72 0v274l596 924h-82q-99 0 -130.5 -32.5t-31.5 -139.5v-106h-338v602h1145v-269l-588 -925h82q95 0 130.5 41t35.5 161v105h350v-635h-1169z" />
<glyph unicode="[" horiz-adv-x="846" d="M184 -207v1729h625v-133h-227v-1463h227v-133h-625z" />
<glyph unicode="\" horiz-adv-x="664" d="M-33 1522h336l442 -1712h-335z" />
<glyph unicode="]" horiz-adv-x="846" d="M37 -74h225v1463h-225v133h625v-1729h-625v133z" />
<glyph unicode="^" horiz-adv-x="2048" d="M412 897l442 565h338l442 -565h-303l-307 309l-309 -309h-303z" />
<glyph unicode="_" horiz-adv-x="1024" d="M0 -201h1024v-282h-1024v282z" />
<glyph unicode="`" horiz-adv-x="1024" d="M207 1618h287l192 -371h-154z" />
<glyph unicode="a" horiz-adv-x="1202" d="M72 303q0 252 566 416l28 8v21q0 67 -19.5 99t-60.5 32t-60.5 -32t-19.5 -99v-21h-385v264q91 70 224 109t286 39q233 0 339.5 -98t106.5 -314v-342q0 -60 12.5 -90t40.5 -43v-252h-446l-14 96q-53 -60 -121 -87t-166 -27q-148 0 -229.5 84t-81.5 237zM494 344 q0 -39 18 -59.5t51 -20.5q28 0 54 11t49 32v176q-115 -46 -143.5 -72.5t-28.5 -66.5z" />
<glyph unicode="b" horiz-adv-x="1217" d="M76 1272v250h469v-451q61 32 118.5 45.5t129.5 13.5q170 0 250.5 -95.5t80.5 -299.5v-295q0 -260 -107.5 -359t-381.5 -99q-149 0 -276.5 38.5t-231.5 114.5v1012q0 63 -11 88t-40 37zM547 285q22 -7 39.5 -10t31.5 -3q50 0 70.5 29t20.5 113v284q0 76 -19 107t-63 31 q-20 0 -68 -17l-12 -4v-530z" />
<glyph unicode="c" horiz-adv-x="1128" d="M90 389v340q0 223 104.5 315.5t352.5 92.5q150 0 277.5 -36.5t228.5 -107.5v-299h-385v54q0 73 -19 102t-63 29t-63 -30t-19 -101v-377q0 -74 18.5 -103.5t63.5 -29.5q43 0 62.5 30t19.5 103v100h385v-346q-88 -73 -210 -108t-284 -35q-259 0 -364 90.5t-105 316.5z" />
<glyph unicode="d" horiz-adv-x="1210" d="M90 362v349q0 239 71 328t240 89q63 0 130.5 -16t134.5 -47v57q0 74 -12 106t-42 42v252h471v-1151q0 -57 12.5 -82t43.5 -37v-252h-455v76q-62 -43 -134.5 -64.5t-152.5 -21.5q-165 0 -236 83.5t-71 288.5zM506 436q0 -85 21.5 -116t74.5 -31q15 0 30.5 3.5t32.5 10.5 l1 512q-20 10 -36.5 14t-33.5 5q-50 0 -70 -28t-20 -126v-244z" />
<glyph unicode="e" horiz-adv-x="1171" d="M90 389v340q0 229 107.5 318.5t388.5 89.5q276 0 386.5 -97t110.5 -340v-225h-579v-104q0 -74 18.5 -103.5t63.5 -29.5q43 0 62.5 30t19.5 103v29h415v-275q-82 -70 -215 -106.5t-307 -36.5q-259 0 -365 91t-106 316zM504 707h164v41q0 73 -19 102t-63 29t-63 -30 t-19 -101v-41z" />
<glyph unicode="f" horiz-adv-x="786" d="M125 0v252q27 8 38 41t11 117v452h-49v256h49v43q0 201 84.5 291t273.5 90q59 0 114 -7.5t104 -23.5v-241q-9 0 -22 1t-17 1q-58 0 -88.5 -35.5t-30.5 -103.5v-15h131v-256h-131v-452q0 -89 12 -119.5t43 -38.5v-252h-522z" />
<glyph unicode="g" horiz-adv-x="1219" d="M90 432v324q0 206 71 290t236 84q78 0 151 -22t136 -66v76h455v-252q-31 -13 -43.5 -38t-12.5 -80v-670q0 -134 -9 -193.5t-32 -101.5q-55 -106 -157.5 -157.5t-257.5 -51.5q-142 0 -270.5 29.5t-241.5 87.5v272h391v-8q0 -56 20 -85.5t58 -29.5q44 0 63 34.5t19 125.5 v78q-63 -31 -133 -47.5t-138 -16.5q-165 0 -235 91t-70 327zM506 467q0 -98 20 -126t70 -28q16 0 33 4.5t37 14.5v485q-18 6 -33.5 9t-30.5 3q-53 0 -74.5 -31t-21.5 -116v-215z" />
<glyph unicode="h" horiz-adv-x="1255" d="M84 0v252q28 8 41.5 43.5t13.5 99.5v756q0 56 -12 80.5t-43 38.5v252h471v-467q62 38 129.5 56.5t140.5 18.5q164 0 236 -83.5t72 -280.5v-369q0 -78 10.5 -106t38.5 -39v-252h-445q-12 56 -17 140t-5 298v244q0 87 -21.5 118t-72.5 31q-14 0 -29.5 -3t-36.5 -11v-418 q0 -65 12 -99t39 -48v-252h-522z" />
<glyph unicode="i" horiz-adv-x="692" d="M88 0v252q28 8 41.5 42.5t13.5 98.5v355q0 55 -12 80t-43 38v252h473v-719q0 -67 11.5 -100t37.5 -47v-252h-522zM111 1358q0 73 63 122.5t160 49.5q96 0 159.5 -49.5t63.5 -122.5q0 -74 -63 -123t-160 -49t-160 49.5t-63 122.5z" />
<glyph unicode="j" horiz-adv-x="692" d="M16 -150q74 3 100.5 43.5t26.5 225.5v629q0 55 -12 80t-43 38v252h473v-993v-82q0 -139 -8.5 -200.5t-28.5 -102.5q-40 -82 -115.5 -124t-183.5 -42q-41 0 -92.5 7t-116.5 22v247zM111 1358q0 73 63 122.5t160 49.5q96 0 159.5 -49.5t63.5 -122.5q0 -74 -63 -123 t-160 -49t-160 49.5t-63 122.5z" />
<glyph unicode="k" horiz-adv-x="1204" d="M88 0v252q28 8 41.5 43.5t13.5 99.5v756q0 56 -12 80.5t-43 38.5v252h473v-805l90 110q26 32 36.5 60.5t10.5 77.5v12v141h465v-252q-23 -10 -43 -25t-39 -36l-147 -174l164 -299q19 -36 40 -55t46 -25v-252h-355q-22 29 -43 65.5t-57 112.5l-168 363v-142 q0 -67 11.5 -100t37.5 -47v-252h-522z" />
<glyph unicode="l" horiz-adv-x="692" d="M88 0v252q28 8 41.5 42.5t13.5 98.5v758q0 56 -12 80.5t-43 38.5v252h473v-1123q0 -67 11.5 -100t37.5 -47v-252h-522z" />
<glyph unicode="m" horiz-adv-x="1835" d="M84 0v252q28 8 41.5 42.5t13.5 98.5v355q0 55 -12 80t-43 38v252h455v-76q63 44 136 66t150 22q91 0 156.5 -29t101.5 -85q70 56 152 85t168 29q163 0 235 -83.5t72 -280.5v-369q0 -75 11.5 -104t39.5 -41v-252h-446q-12 56 -17.5 140t-5.5 298v244q0 87 -21 118t-73 31 q-12 0 -27 -3t-38 -11v-420q0 -78 10.5 -106t38.5 -39v-252h-445q-12 56 -17 140t-5 298v244q0 87 -21.5 118t-72.5 31q-14 0 -29.5 -3t-36.5 -11v-418q0 -65 12 -99t39 -48v-252h-522z" />
<glyph unicode="n" horiz-adv-x="1255" d="M84 0v252q28 8 41.5 42.5t13.5 98.5v355q0 55 -12 80t-43 38v252h455v-76q63 44 136 66t150 22q164 0 236 -83.5t72 -280.5v-369q0 -78 10.5 -106t38.5 -39v-252h-445q-12 56 -17 140t-5 298v244q0 87 -21.5 118t-72.5 31q-14 0 -29.5 -3t-36.5 -11v-418q0 -65 12 -99 t39 -48v-252h-522z" />
<glyph unicode="o" horiz-adv-x="1174" d="M90 389v340q0 230 107.5 319t388.5 89q282 0 389.5 -89t107.5 -319v-340q0 -230 -108 -318.5t-389 -88.5t-388.5 88.5t-107.5 318.5zM504 371q0 -74 18.5 -103.5t63.5 -29.5q43 0 62.5 30t19.5 103v377q0 73 -19 102t-63 29t-63 -30t-19 -101v-377z" />
<glyph unicode="p" horiz-adv-x="1219" d="M80 -148q27 8 40 43t13 101v752q0 57 -11.5 81t-41.5 38v251h455v-76q63 44 135 66t149 22q165 0 236 -84t71 -290v-348q0 -239 -70.5 -328.5t-240.5 -89.5q-63 0 -131.5 16.5t-132.5 46.5v-53q0 -71 12.5 -104t42.5 -43v-250h-526v249zM551 303q18 -9 35 -13.5t35 -4.5 q50 0 70 27.5t20 125.5v244q0 85 -22 116t-75 31q-15 0 -30.5 -3t-32.5 -9v-514z" />
<glyph unicode="q" horiz-adv-x="1214" d="M90 408v348q0 204 72 289t237 85q78 0 149.5 -22t135.5 -66v76h401v-1122q0 -65 13.5 -100.5t39.5 -42.5l1 -250h-527v250q30 10 43 43t13 104v53q-65 -30 -133 -46.5t-132 -16.5q-170 0 -241.5 90t-71.5 328zM508 438q0 -100 19.5 -126.5t68.5 -26.5q17 0 35.5 4.5 t36.5 14.5v513q-17 6 -33.5 9t-32.5 3q-52 0 -73 -30.5t-21 -116.5v-244z" />
<glyph unicode="r" horiz-adv-x="815" d="M84 0v252q28 8 41.5 42.5t13.5 98.5v355q0 55 -12 80t-43 38v252h446v-88q38 57 82.5 84t100.5 27q9 0 23 -2t28 -5v-378h-45q-83 0 -123.5 -52t-40.5 -159v-146q0 -69 12.5 -102.5t42.5 -44.5v-252h-526z" />
<glyph unicode="s" horiz-adv-x="1118" d="M74 791q0 173 112 259.5t338 86.5q149 0 277 -37t229 -109v-264h-389v55q0 51 -21.5 79t-60.5 28q-36 0 -61 -24.5t-25 -59.5q0 -74 191 -115h2q233 -51 309 -123.5t76 -216.5q0 -189 -113 -278.5t-352 -89.5q-146 0 -271.5 36.5t-228.5 108.5v293h395v-51 q0 -70 19.5 -98.5t62.5 -28.5q38 0 61 23.5t23 62.5q0 86 -221 137q-215 49 -283.5 118t-68.5 208z" />
<glyph unicode="t" horiz-adv-x="772" d="M80 862v256h51v213l418 117v-330h139v-256h-139v-385q0 -154 29.5 -190t109.5 -38v-245q-50 -12 -102 -18t-103 -6q-192 0 -272 82t-80 290v510h-51z" />
<glyph unicode="u" horiz-adv-x="1255" d="M76 866v252h444q12 -59 17.5 -143.5t5.5 -294.5v-244q0 -86 21 -116.5t73 -30.5q19 0 35 3t30 9v418q0 68 -11 100.5t-38 46.5v252h467v-747q0 -59 12.5 -83.5t40.5 -35.5l1 -252h-455v76q-63 -43 -134.5 -64.5t-150.5 -21.5q-165 0 -237 83.5t-72 280.5v367 q0 79 -10.5 106.5t-38.5 38.5z" />
<glyph unicode="v" horiz-adv-x="1114" d="M23 868v250h516v-250q-16 -4 -23.5 -17.5t-7.5 -35.5q0 -12 1.5 -24.5t4.5 -30.5l80 -404l78 404q3 18 4.5 31.5t1.5 19.5q0 23 -8.5 36.5t-28.5 20.5v250h453v-250q-20 -8 -35.5 -33t-28.5 -67l-227 -768h-490l-219 748q-17 58 -33 83.5t-38 36.5z" />
<glyph unicode="w" horiz-adv-x="1659" d="M31 866v252h520l-1 -252q-18 -6 -27 -18t-9 -33q0 -5 2.5 -23.5t5.5 -39.5l47 -279l158 645h270l162 -645l49 285q2 12 3 22.5t1 20.5q0 25 -8 38t-30 27v252h446v-252q-25 -18 -41.5 -45t-28.5 -71l-207 -750h-403l-117 508l-116 -508h-402l-205 752q-12 43 -29.5 72.5 t-39.5 41.5z" />
<glyph unicode="x" horiz-adv-x="1147" d="M59 0v252q20 6 37 18t33 31l221 270l-188 228q-20 24 -41 40.5t-45 26.5v252h465v-88q0 -61 6 -87t20 -46l41 -59l35 43q22 29 32.5 64t10.5 81v92h401v-252q-19 -9 -38 -24.5t-39 -38.5l-191 -228l209 -264q24 -28 39 -40t33 -20v-251h-479v113q0 52 -7.5 81.5 t-23.5 55.5l-49 74l-43 -68q-18 -29 -25.5 -56.5t-7.5 -70.5v-14v-115h-406z" />
<glyph unicode="y" horiz-adv-x="1139" d="M37 868v250h518v-250q-18 -7 -27.5 -21t-9.5 -34q0 -5 1.5 -14.5t4.5 -25.5l88 -392l76 381q2 10 3 21.5t1 27.5q0 22 -10 36t-30 21l-1 250h451v-250q-20 -12 -35 -38.5t-29 -71.5l-239 -819q-56 -192 -146 -274.5t-241 -82.5q-47 0 -95.5 7.5t-97.5 21.5v241 q65 2 105.5 29t58.5 82l-285 811q-10 28 -26 53t-35 41z" />
<glyph unicode="z" horiz-adv-x="1112" d="M70 0v266l489 598h-67q-78 0 -99.5 -21t-21.5 -91v-52h-289v418h973v-254l-492 -604h62q88 0 112.5 21.5t24.5 95.5v53h305v-430h-997z" />
<glyph unicode="{" horiz-adv-x="1024" d="M145 389v283q7 0 18.5 -1t16.5 -1q112 0 158.5 52t46.5 179v258q0 133 24.5 188t84.5 85q48 24 120.5 34.5t210.5 10.5h80v-285q-8 0 -22.5 1t-20.5 1q-87 0 -117 -30t-30 -128v-239q0 -134 -47 -189.5t-170 -77.5q124 -23 170.5 -77.5t46.5 -186.5v-241q0 -96 29.5 -126 t115.5 -30q7 0 22 1t23 1v-285h-80q-139 0 -211.5 10.5t-119.5 34.5q-60 30 -84.5 84.5t-24.5 186.5v258q0 127 -46.5 179t-158.5 52q-5 0 -16.5 -1t-18.5 -1z" />
<glyph unicode="|" horiz-adv-x="1024" d="M373 -483v2048h280v-2048h-280z" />
<glyph unicode="}" horiz-adv-x="1024" d="M121 -131q9 0 23 -1t20 -1q87 0 117 30t30 128v241q0 132 46.5 186.5t170.5 77.5q-123 22 -170 77t-47 188v241q0 98 -30 128t-117 30q-6 0 -20 -1t-23 -1v285h80q138 0 210 -10.5t119 -34.5q61 -31 86 -87t25 -186v-258q0 -127 46.5 -179t158.5 -52q5 0 16.5 1t18.5 1 v-283q-7 0 -18.5 1t-16.5 1q-112 0 -158.5 -52t-46.5 -179v-258q0 -130 -25 -186t-86 -87q-45 -23 -115 -33t-200 -10h-94v283z" />
<glyph unicode="~" horiz-adv-x="1706" d="M178 379v299q119 75 216.5 109t191.5 34q58 0 123 -12t155 -41q22 -7 64 -22q152 -54 235 -54q86 0 175 36.5t192 113.5v-299q-102 -69 -192 -101t-179 -32q-54 0 -111.5 11.5t-154.5 45.5q-124 42 -194.5 56t-137.5 14q-84 0 -176 -38t-207 -120z" />
<glyph unicode="&#xa0;" />
<glyph unicode="&#xa1;" horiz-adv-x="782" d="M135 178q0 24 3 52t9 59l140 755h207l139 -755q6 -31 9 -59t3 -52q0 -104 -63 -156.5t-191 -52.5q-127 0 -191.5 52.5t-64.5 156.5zM186 1335q0 84 61 143.5t144 59.5q82 0 142.5 -60.5t60.5 -142.5q0 -83 -60 -144t-143 -61q-84 0 -144.5 60.5t-60.5 144.5z" />
<glyph unicode="&#xa2;" d="M195 549v342q0 193 71.5 282.5t243.5 114.5v170h358v-182q87 -18 156 -47t133 -74v-301h-385v55q0 74 -18.5 102.5t-63.5 28.5q-44 0 -63 -29.5t-19 -101.5v-379q0 -72 19 -101.5t63 -29.5t63 29.5t19 101.5v103h385v-346q-61 -49 -132 -80.5t-157 -46.5v-211h-358v207 q-168 16 -241.5 107.5t-73.5 285.5z" />
<glyph unicode="&#xa3;" d="M115 0v270q35 17 50 53t15 107v162h-65v297h65v151q0 127 13.5 190.5t44.5 117.5q58 99 172 151.5t270 52.5q151 0 299 -42.5t283 -125.5v-411h-435v94q0 91 -19.5 126.5t-66.5 35.5q-51 0 -73.5 -37t-22.5 -125v-178h299v-297h-299v-264h33q85 0 117 34t32 127v21h435 v-510h-1147z" />
<glyph unicode="&#xa4;" horiz-adv-x="1241" d="M53 455l197 200q-33 52 -49.5 109t-16.5 123q0 63 16.5 119t49.5 108l-197 203l133 135l199 -199q53 35 110.5 51.5t127.5 16.5q68 0 126.5 -16.5t108.5 -51.5l199 199l133 -135l-197 -203q34 -54 50 -110.5t16 -118.5t-16.5 -119t-49.5 -111l197 -200l-133 -138 l-199 201q-52 -35 -110.5 -52t-124.5 -17q-68 0 -126 17t-112 52l-199 -201zM377 885q0 -100 72.5 -172t173.5 -72q99 0 171 72.5t72 171.5q0 98 -72.5 170.5t-170.5 72.5q-100 0 -173 -72.5t-73 -170.5z" />
<glyph unicode="&#xa5;" d="M78 526v158h311l-78 154h-233v157h151l-92 189q-9 18 -24 36t-35 35v267h534v-217q0 -89 7 -131t22 -76l61 -137l62 139q16 38 24.5 86.5t8.5 105.5v230h473v-267q-18 -11 -32.5 -28t-27.5 -41l-98 -191h143v-157h-221l-80 -154h301v-158h-346v-116q0 -64 15.5 -94 t54.5 -46v-270h-614v270q38 17 53.5 46.5t15.5 93.5v116h-356z" />
<glyph unicode="&#xa6;" horiz-adv-x="1024" d="M373 -350v758h280v-758h-280zM373 674v758h280v-758h-280z" />
<glyph unicode="&#xa7;" horiz-adv-x="1024" d="M29 645q0 114 40.5 185t125.5 106q-54 44 -82.5 112.5t-28.5 151.5q0 166 113 259t315 93q108 0 219 -35t199 -98v-252h-326v21q0 57 -28 91t-74 34q-43 0 -68.5 -28t-25.5 -75q0 -84 190 -147q80 -27 127 -45q146 -57 211 -137t65 -201q0 -113 -40.5 -184.5 t-124.5 -106.5q55 -46 81.5 -113.5t26.5 -160.5q0 -159 -113.5 -250.5t-312.5 -91.5q-108 0 -220 35t-198 98v252h326v-23q0 -57 28.5 -90t77.5 -33q42 0 65.5 26t23.5 73q0 87 -200 156q-75 26 -118 42q-144 57 -209 137t-65 199zM305 725q0 -88 247 -175q69 -24 107 -38 q27 17 39.5 38t12.5 48q0 90 -232 171q-78 27 -123 44q-25 -16 -38 -38t-13 -50z" />
<glyph unicode="&#xa8;" horiz-adv-x="1024" d="M178 1432q0 62 45 107.5t107 45.5q64 0 108.5 -44.5t44.5 -108.5q0 -62 -45.5 -107t-107.5 -45t-107 45t-45 107zM541 1432q0 62 44.5 107.5t106.5 45.5q64 0 108 -44.5t44 -108.5q0 -63 -45 -107.5t-107 -44.5q-61 0 -106 45t-45 107z" />
<glyph unicode="&#xa9;" horiz-adv-x="1706" d="M102 741q0 151 57.5 289t166.5 248q103 105 238 160t288 55q155 0 292.5 -56t244.5 -163q104 -105 160.5 -243t56.5 -290q0 -154 -55.5 -288.5t-161.5 -237.5q-111 -108 -250 -166.5t-287 -58.5q-149 0 -284 57t-244 166q-108 107 -165 243t-57 285zM256 743 q0 -119 45.5 -227.5t130.5 -193.5q86 -86 194 -131.5t228 -45.5q119 0 228.5 46t197.5 133q85 83 128.5 189.5t43.5 229.5q0 120 -45 229t-129 193q-87 87 -194.5 131.5t-229.5 44.5q-123 0 -230 -43.5t-190 -128.5q-86 -87 -132 -197t-46 -229zM440 737q0 200 111 323.5 t289 123.5q176 0 278.5 -79.5t110.5 -221.5h-242q-3 63 -38 99t-93 36q-73 0 -114.5 -71.5t-41.5 -201.5q0 -131 41 -196.5t123 -65.5q60 0 92 36.5t35 106.5l248 1q-6 -149 -109 -237.5t-272 -88.5q-195 0 -306.5 116t-111.5 320z" />
<glyph unicode="&#xaa;" horiz-adv-x="901" d="M53 952q0 175 418 289l29 8v15q0 46 -14.5 68t-45.5 22t-46 -22t-15 -68v-15h-289v185q68 48 168 75t215 27q176 0 256 -68t80 -219v-239q0 -44 9 -65t30 -30v-176h-334l-12 68q-39 -42 -90 -61t-125 -19q-111 0 -172.5 59t-61.5 166zM371 981q0 -28 13 -42.5t38 -14.5 q22 0 41.5 7.5t36.5 22.5v123q-87 -32 -108 -50t-21 -46z" />
<glyph unicode="&#xab;" horiz-adv-x="1053" d="M92 578l174 380h289l-170 -380l170 -379h-289zM518 578l174 380h289l-170 -380l170 -379h-289z" />
<glyph unicode="&#xac;" horiz-adv-x="1706" d="M254 602v266h1198v-501h-272v235h-926z" />
<glyph unicode="&#xad;" horiz-adv-x="782" d="M90 393v369h602v-369h-602z" />
<glyph unicode="&#xae;" horiz-adv-x="1706" d="M102 741q0 151 57.5 289t166.5 248q103 105 238 160t288 55q155 0 292.5 -56t244.5 -163q104 -105 160.5 -243t56.5 -290q0 -154 -55.5 -288.5t-161.5 -237.5q-111 -108 -250 -166.5t-287 -58.5q-149 0 -284 57t-244 166q-108 107 -165 243t-57 285zM256 743 q0 -119 45.5 -227.5t130.5 -193.5q86 -86 194 -131.5t228 -45.5q119 0 228.5 46t197.5 133q85 83 128.5 189.5t43.5 229.5q0 120 -45 229t-129 193q-87 87 -194.5 131.5t-229.5 44.5q-123 0 -230 -43.5t-190 -128.5q-86 -87 -132 -197t-46 -229zM528 352v813h334 q174 0 265.5 -61t91.5 -178q0 -78 -43 -135t-121 -84l178 -355h-279l-145 312h-25v-312h-256zM784 813h54q58 0 88 25t30 73q0 49 -32 72t-101 23h-39v-193z" />
<glyph unicode="&#xaf;" horiz-adv-x="1024" d="M205 1348v170h614v-170h-614z" />
<glyph unicode="&#xb0;" horiz-adv-x="674" d="M14 1149q0 134 95.5 229t228.5 95q134 0 227.5 -94.5t93.5 -229.5q0 -132 -94.5 -227t-228.5 -95t-228 93.5t-94 228.5zM186 1151q0 -64 44 -109t108 -45q62 0 106.5 46t44.5 108t-45 107t-108 45q-62 0 -106 -44.5t-44 -107.5z" />
<glyph unicode="&#xb1;" horiz-adv-x="1706" d="M254 -41v272h1198v-272h-1198zM254 680v272h459v310h280v-310h459v-272h-459v-309h-280v309h-459z" />
<glyph unicode="&#xb2;" horiz-adv-x="901" d="M74 610v205q0 118 44 178t185 123q25 11 68 29q147 61 147 127q0 34 -17 54t-46 20q-32 0 -49 -22.5t-17 -63.5v-62h-295v248q83 48 174.5 71t200.5 23q185 0 273.5 -70t88.5 -217q0 -68 -18.5 -114t-60.5 -84q-32 -29 -182 -97q-53 -25 -83 -38l-2 -1 q-108 -53 -108 -104v-10h51q51 0 68.5 17t20.5 73h294v-285h-737z" />
<glyph unicode="&#xb3;" horiz-adv-x="901" d="M82 688v254h299v-57q0 -53 14 -73.5t47 -20.5t49.5 24t16.5 72q0 58 -25.5 81t-99.5 23h-92v178h92q73 0 97 21t24 76q0 39 -17.5 59.5t-50.5 20.5q-28 0 -41.5 -20.5t-13.5 -61.5v-45h-299v219q73 50 168.5 76t208.5 26q176 0 266 -65.5t90 -194.5q0 -76 -33 -122.5 t-102 -65.5q73 -22 109 -75t36 -138q0 -147 -89 -215t-281 -68q-118 0 -210 23t-163 69z" />
<glyph unicode="&#xb4;" horiz-adv-x="1024" d="M338 1247l192 371h287l-325 -371h-154z" />
<glyph unicode="&#xb5;" horiz-adv-x="1372" d="M-29 -422l209 1509h422l-84 -614q-2 -22 -3 -33.5t-1 -19.5q0 -68 31.5 -100.5t95.5 -32.5q79 0 124 52t60 161l84 587h418l-158 -1087h-368l18 131q-36 -68 -82.5 -101.5t-105.5 -33.5q-61 0 -105.5 31.5t-70.5 93.5l-72 -543h-412z" />
<glyph unicode="&#xb6;" horiz-adv-x="1024" d="M10 1130q0 157 106.5 253t282.5 96h615v-142h-101v-1337h-202v1337h-140v-1337h-202v784q-163 8 -261 103t-98 243z" />
<glyph unicode="&#xb7;" horiz-adv-x="682" d="M137 764q0 83 60 143t143 60q85 0 145 -59.5t60 -143.5t-61 -144.5t-144 -60.5q-82 0 -142.5 61t-60.5 144z" />
<glyph unicode="&#xb8;" horiz-adv-x="1024" d="M272 -301q79 -22 150.5 -33.5t120.5 -11.5q43 0 64.5 17.5t21.5 54.5q0 32 -28.5 47.5t-90.5 15.5q-21 0 -33 -0.5t-22 -1.5v213h114v-84h19q111 0 170 -49.5t59 -142.5q0 -100 -66 -154.5t-188 -54.5q-60 0 -134 12t-157 35v137z" />
<glyph unicode="&#xb9;" horiz-adv-x="901" d="M254 610v162q22 10 30.5 27.5t8.5 56.5v428q0 38 -9 56.5t-30 27.5v160h352v-672q0 -41 8 -57.5t29 -26.5v-162h-389z" />
<glyph unicode="&#xba;" horiz-adv-x="881" d="M68 1012v237q0 162 81 224.5t291 62.5q212 0 292.5 -62.5t80.5 -224.5v-237q0 -161 -80.5 -223t-292.5 -62q-211 0 -291.5 62t-80.5 223zM379 999q0 -53 14 -73.5t47 -20.5t47.5 22t14.5 72v265q0 50 -14 70t-48 20q-33 0 -47 -20t-14 -70v-265z" />
<glyph unicode="&#xbb;" horiz-adv-x="1053" d="M72 199l170 379l-170 380h286l177 -380l-177 -379h-286zM498 199l170 379l-170 380h288l175 -380l-175 -379h-288z" />
<glyph unicode="&#xbc;" horiz-adv-x="2193" d="M244 672v151q20 10 28.5 27.5t8.5 50.5v399q0 34 -8.5 52t-28.5 28v148h336v-627q0 -37 7.5 -53t26.5 -25v-151h-370zM508 0l878 1530h302l-877 -1530h-303zM1391 209v205l333 442h342v-473h66v-174h-65q1 -25 10 -38t28 -19v-152h-372v152q25 4 37 17t12 36v4h-391z M1626 383h162v217z" />
<glyph unicode="&#xbd;" horiz-adv-x="2193" d="M244 672v151q20 10 28.5 27.5t8.5 50.5v399q0 34 -8.5 52t-28.5 28v148h336v-627q0 -37 7.5 -53t26.5 -25v-151h-370zM508 0l878 1530h302l-877 -1530h-303zM1405 0v193q0 110 42 165t175 113q25 11 67 28q138 57 138 117q0 33 -16 51.5t-44 18.5q-30 0 -46.5 -20.5 t-16.5 -59.5v-57h-281v231q78 45 165.5 66.5t193.5 21.5q175 0 259.5 -65.5t84.5 -202.5q0 -64 -18 -107t-58 -77q-31 -28 -177 -93q-48 -22 -75 -34q-68 -32 -86 -51.5t-18 -47.5v-8h49q48 0 65 17t19 67h280v-266h-702z" />
<glyph unicode="&#xbe;" horiz-adv-x="2193" d="M78 745v236h287v-53q0 -51 13 -69.5t44 -18.5t47 23t16 67q0 54 -24.5 76t-95.5 22h-89v166h89q70 0 92 19t22 71q0 36 -16 55t-47 19q-26 0 -38.5 -18.5t-12.5 -57.5v-43h-287v205q70 47 161.5 71.5t198.5 24.5q169 0 254.5 -61t85.5 -183q0 -71 -31.5 -114t-97.5 -60 q69 -19 103 -69t34 -129q0 -139 -84.5 -203t-267.5 -64q-114 0 -201.5 22t-154.5 66zM508 0l878 1530h302l-877 -1530h-303zM1391 209v205l333 442h342v-473h66v-174h-65q1 -25 10 -38t28 -19v-152h-372v152q25 4 37 17t12 36v4h-391zM1626 383h162v217z" />
<glyph unicode="&#xbf;" horiz-adv-x="1270" d="M84 428q0 102 20 168t66 117q44 49 169 119q42 23 64 36q66 40 85.5 75t19.5 108h438v-115q0 -222 -196 -333l-15 -9q-110 -62 -142 -99t-32 -85t26.5 -77.5t67.5 -29.5q44 0 68.5 35.5t24.5 99.5v88h438v-385q-113 -81 -251 -120t-314 -39q-269 0 -403 111.5t-134 334.5 zM506 1348q0 84 60 144t143 60q81 0 142.5 -61.5t61.5 -142.5q0 -83 -60.5 -143t-143.5 -60q-85 0 -144 59t-59 144z" />
<glyph unicode="&#xc0;" horiz-adv-x="1339" d="M53 0v270q21 8 38.5 41t27.5 84l205 1127h671l232 -1127q12 -52 31 -84.5t42 -40.5v-270h-593v270q23 8 37 30t14 52q0 5 -3.5 19.5t-5.5 21.5h-231q-1 -7 -3.5 -23t-2.5 -24q0 -34 16.5 -52.5t50.5 -23.5l1 -270h-527zM365 2034h287l192 -371h-154zM553 664h158l-86 540 z" />
<glyph unicode="&#xc1;" horiz-adv-x="1339" d="M53 0v270q21 8 38.5 41t27.5 84l205 1127h671l232 -1127q12 -52 31 -84.5t42 -40.5v-270h-593v270q23 8 37 30t14 52q0 5 -3.5 19.5t-5.5 21.5h-231q-1 -7 -3.5 -23t-2.5 -24q0 -34 16.5 -52.5t50.5 -23.5l1 -270h-527zM496 1663l192 371h287l-325 -371h-154zM553 664 h158l-86 540z" />
<glyph unicode="&#xc2;" horiz-adv-x="1339" d="M53 0v270q21 8 38.5 41t27.5 84l205 1127h671l232 -1127q12 -52 31 -84.5t42 -40.5v-270h-593v270q23 8 37 30t14 52q0 5 -3.5 19.5t-5.5 21.5h-231q-1 -7 -3.5 -23t-2.5 -24q0 -34 16.5 -52.5t50.5 -23.5l1 -270h-527zM348 1663l193 371h256l192 -371h-153l-166 199 l-168 -199h-154zM553 664h158l-86 540z" />
<glyph unicode="&#xc3;" horiz-adv-x="1339" d="M53 0v270q21 8 38.5 41t27.5 84l205 1127h671l232 -1127q12 -52 31 -84.5t42 -40.5v-270h-593v270q23 8 37 30t14 52q0 5 -3.5 19.5t-5.5 21.5h-231q-1 -7 -3.5 -23t-2.5 -24q0 -34 16.5 -52.5t50.5 -23.5l1 -270h-527zM338 1708q28 126 80.5 186t134.5 60q19 0 42 -3.5 t48 -10.5l95 -29q12 -4 26 -6t31 -2q33 0 55 21.5t33 64.5h119q-32 -135 -83.5 -194.5t-135.5 -59.5q-18 0 -37 3t-39 9l-92 25q-1 0 -4 1q-46 13 -64 13q-33 0 -54.5 -18.5t-35.5 -59.5h-119zM553 664h158l-86 540z" />
<glyph unicode="&#xc4;" horiz-adv-x="1339" d="M53 0v270q21 8 38.5 41t27.5 84l205 1127h671l232 -1127q12 -52 31 -84.5t42 -40.5v-270h-593v270q23 8 37 30t14 52q0 5 -3.5 19.5t-5.5 21.5h-231q-1 -7 -3.5 -23t-2.5 -24q0 -34 16.5 -52.5t50.5 -23.5l1 -270h-527zM336 1848q0 62 45 107.5t107 45.5 q64 0 108.5 -44.5t44.5 -108.5q0 -62 -45.5 -107t-107.5 -45t-107 45t-45 107zM553 664h158l-86 540zM699 1848q0 62 44.5 107.5t106.5 45.5q64 0 108 -44.5t44 -108.5q0 -63 -45 -107.5t-107 -44.5q-61 0 -106 45t-45 107z" />
<glyph unicode="&#xc5;" horiz-adv-x="1339" d="M53 0v270q21 8 38.5 41t27.5 84l205 1127h155q-43 34 -64.5 78.5t-21.5 101.5q0 113 79 191.5t192 78.5t192.5 -78.5t79.5 -191.5q0 -55 -23.5 -101t-68.5 -79h151l232 -1127q12 -52 31 -84.5t42 -40.5v-270h-593v270q23 8 37 30t14 52q0 5 -3.5 19.5t-5.5 21.5h-231 q-1 -7 -3.5 -23t-2.5 -24q0 -34 16.5 -52.5t50.5 -23.5l1 -270h-527zM551 1702q0 -48 33.5 -81.5t81.5 -33.5q47 0 80.5 33.5t33.5 81.5t-33.5 81.5t-80.5 33.5q-48 0 -81.5 -33.5t-33.5 -81.5zM553 664h158l-86 540z" />
<glyph unicode="&#xc6;" horiz-adv-x="1898" d="M41 0v270q24 19 41 47.5t33 75.5l358 1129h1339v-504h-413v43q0 82 -28 110.5t-105 28.5h-41v-270h301v-295h-301v-307q7 -1 16 -1.5t25 -0.5q74 0 104.5 38.5t30.5 135.5q0 21 -0.5 32.5t-1.5 22.5h413v-555h-1101v270q28 14 41.5 43t13.5 76v10h-242q-3 -20 -4.5 -37.5 t-1.5 -31.5q0 -23 11.5 -38.5t33.5 -21.5v-270h-522zM584 664h182v618z" />
<glyph unicode="&#xc7;" horiz-adv-x="1294" d="M98 512v496q0 297 121.5 420.5t407.5 123.5q172 0 320 -42.5t263 -125.5v-421h-456v116q0 82 -21 116t-69 34q-49 0 -70 -33t-21 -117v-633q0 -83 21 -116t70 -33t69.5 33t20.5 116v191h456v-508q-102 -81 -242 -120.5t-327 -39.5q-298 0 -420.5 121t-122.5 422z M434 -301q79 -22 150.5 -33.5t120.5 -11.5q43 0 64.5 17.5t21.5 54.5q0 32 -28.5 47.5t-90.5 15.5q-21 0 -33 -0.5t-22 -1.5v213h114v-84h19q111 0 170 -49.5t59 -142.5q0 -100 -66 -154.5t-188 -54.5q-60 0 -134 12t-157 35v137z" />
<glyph unicode="&#xc8;" horiz-adv-x="1313" d="M88 0v270q32 17 44.5 47t12.5 93v706q0 63 -12.5 93t-44.5 46v267h1139v-504h-436v43q0 82 -28 110.5t-106 28.5h-41v-270h302v-295h-302l1 -307q6 -1 15 -1.5t25 -0.5q75 0 105.5 38.5t30.5 135.5q0 21 -0.5 32.5t-1.5 22.5h436v-555h-1139zM352 2034h287l192 -371h-154 z" />
<glyph unicode="&#xc9;" horiz-adv-x="1313" d="M88 0v270q32 17 44.5 47t12.5 93v706q0 63 -12.5 93t-44.5 46v267h1139v-504h-436v43q0 82 -28 110.5t-106 28.5h-41v-270h302v-295h-302l1 -307q6 -1 15 -1.5t25 -0.5q75 0 105.5 38.5t30.5 135.5q0 21 -0.5 32.5t-1.5 22.5h436v-555h-1139zM483 1663l192 371h287 l-325 -371h-154z" />
<glyph unicode="&#xca;" horiz-adv-x="1313" d="M88 0v270q32 17 44.5 47t12.5 93v706q0 63 -12.5 93t-44.5 46v267h1139v-504h-436v43q0 82 -28 110.5t-106 28.5h-41v-270h302v-295h-302l1 -307q6 -1 15 -1.5t25 -0.5q75 0 105.5 38.5t30.5 135.5q0 21 -0.5 32.5t-1.5 22.5h436v-555h-1139zM335 1663l193 371h256 l192 -371h-153l-166 199l-168 -199h-154z" />
<glyph unicode="&#xcb;" horiz-adv-x="1313" d="M88 0v270q32 17 44.5 47t12.5 93v706q0 63 -12.5 93t-44.5 46v267h1139v-504h-436v43q0 82 -28 110.5t-106 28.5h-41v-270h302v-295h-302l1 -307q6 -1 15 -1.5t25 -0.5q75 0 105.5 38.5t30.5 135.5q0 21 -0.5 32.5t-1.5 22.5h436v-555h-1139zM323 1848q0 62 45 107.5 t107 45.5q64 0 108.5 -44.5t44.5 -108.5q0 -62 -45.5 -107t-107.5 -45t-107 45t-45 107zM686 1848q0 62 44.5 107.5t106.5 45.5q64 0 108 -44.5t44 -108.5q0 -63 -45 -107.5t-107 -44.5q-61 0 -106 45t-45 107z" />
<glyph unicode="&#xcc;" horiz-adv-x="778" d="M84 2034h287l192 -371h-154zM94 0v270q32 17 45 47t13 93v706q0 63 -13 93t-45 46v267h588v-267q-31 -15 -43 -43.5t-12 -95.5v-706q0 -68 12 -96t43 -44v-270h-588z" />
<glyph unicode="&#xcd;" horiz-adv-x="778" d="M94 0v270q32 17 45 47t13 93v706q0 63 -13 93t-45 46v267h588v-267q-31 -15 -43 -43.5t-12 -95.5v-706q0 -68 12 -96t43 -44v-270h-588zM215 1663l192 371h287l-325 -371h-154z" />
<glyph unicode="&#xce;" horiz-adv-x="778" d="M67 1663l193 371h256l192 -371h-153l-166 199l-168 -199h-154zM94 0v270q32 17 45 47t13 93v706q0 63 -13 93t-45 46v267h588v-267q-31 -15 -43 -43.5t-12 -95.5v-706q0 -68 12 -96t43 -44v-270h-588z" />
<glyph unicode="&#xcf;" horiz-adv-x="778" d="M55 1848q0 62 45 107.5t107 45.5q64 0 108.5 -44.5t44.5 -108.5q0 -62 -45.5 -107t-107.5 -45t-107 45t-45 107zM94 0v270q32 17 45 47t13 93v706q0 63 -13 93t-45 46v267h588v-267q-31 -15 -43 -43.5t-12 -95.5v-706q0 -68 12 -96t43 -44v-270h-588zM418 1848 q0 62 44.5 107.5t106.5 45.5q64 0 108 -44.5t44 -108.5q0 -63 -45 -107.5t-107 -44.5q-61 0 -106 45t-45 107z" />
<glyph unicode="&#xd0;" horiz-adv-x="1405" d="M47 674v241h131v201q0 63 -13 93t-44 46v267h584q354 0 478 -111t124 -422v-457q0 -310 -124.5 -421t-477.5 -111h-584v270q31 17 44 47t13 93v264h-131zM633 332h88q73 0 100 32t27 125v558q0 87 -26.5 115t-100.5 28h-88v-275h106v-241h-106v-342z" />
<glyph unicode="&#xd1;" horiz-adv-x="1376" d="M74 0v270q31 17 44 47t13 93v706q0 63 -13 93t-44 46v267h524l289 -770v364q0 72 -14.5 98.5t-51.5 40.5v267h496v-267q-31 -15 -43 -43.5t-12 -95.5v-1116h-463l-295 725v-315q0 -73 12.5 -100.5t44.5 -39.5v-270h-487zM356 1708q28 126 80.5 186t134.5 60q19 0 42 -3.5 t48 -10.5l95 -29q12 -4 26 -6t31 -2q33 0 55 21.5t33 64.5h119q-32 -135 -83.5 -194.5t-135.5 -59.5q-18 0 -37 3t-39 9l-92 25q-1 0 -4 1q-46 13 -64 13q-33 0 -54.5 -18.5t-35.5 -59.5h-119z" />
<glyph unicode="&#xd2;" horiz-adv-x="1335" d="M98 512v496q0 306 126 425t444 119q317 0 442 -119t125 -425v-496q0 -305 -124.5 -424t-442.5 -119q-319 0 -444.5 118.5t-125.5 424.5zM363 2034h287l192 -371h-154zM573 446q0 -82 22 -115.5t73 -33.5q50 0 72 34t22 115v633q0 81 -22 115.5t-72 34.5q-51 0 -73 -33.5 t-22 -116.5v-633z" />
<glyph unicode="&#xd3;" horiz-adv-x="1335" d="M98 512v496q0 306 126 425t444 119q317 0 442 -119t125 -425v-496q0 -305 -124.5 -424t-442.5 -119q-319 0 -444.5 118.5t-125.5 424.5zM494 1663l192 371h287l-325 -371h-154zM573 446q0 -82 22 -115.5t73 -33.5q50 0 72 34t22 115v633q0 81 -22 115.5t-72 34.5 q-51 0 -73 -33.5t-22 -116.5v-633z" />
<glyph unicode="&#xd4;" horiz-adv-x="1335" d="M98 512v496q0 306 126 425t444 119q317 0 442 -119t125 -425v-496q0 -305 -124.5 -424t-442.5 -119q-319 0 -444.5 118.5t-125.5 424.5zM346 1663l193 371h256l192 -371h-153l-166 199l-168 -199h-154zM573 446q0 -82 22 -115.5t73 -33.5q50 0 72 34t22 115v633 q0 81 -22 115.5t-72 34.5q-51 0 -73 -33.5t-22 -116.5v-633z" />
<glyph unicode="&#xd5;" horiz-adv-x="1335" d="M98 512v496q0 306 126 425t444 119q317 0 442 -119t125 -425v-496q0 -305 -124.5 -424t-442.5 -119q-319 0 -444.5 118.5t-125.5 424.5zM336 1708q28 126 80.5 186t134.5 60q19 0 42 -3.5t48 -10.5l95 -29q12 -4 26 -6t31 -2q33 0 55 21.5t33 64.5h119 q-32 -135 -83.5 -194.5t-135.5 -59.5q-18 0 -37 3t-39 9l-92 25q-1 0 -4 1q-46 13 -64 13q-33 0 -54.5 -18.5t-35.5 -59.5h-119zM573 446q0 -82 22 -115.5t73 -33.5q50 0 72 34t22 115v633q0 81 -22 115.5t-72 34.5q-51 0 -73 -33.5t-22 -116.5v-633z" />
<glyph unicode="&#xd6;" horiz-adv-x="1335" d="M98 512v496q0 306 126 425t444 119q317 0 442 -119t125 -425v-496q0 -305 -124.5 -424t-442.5 -119q-319 0 -444.5 118.5t-125.5 424.5zM334 1848q0 62 45 107.5t107 45.5q64 0 108.5 -44.5t44.5 -108.5q0 -62 -45.5 -107t-107.5 -45t-107 45t-45 107zM573 446 q0 -82 22 -115.5t73 -33.5q50 0 72 34t22 115v633q0 81 -22 115.5t-72 34.5q-51 0 -73 -33.5t-22 -116.5v-633zM697 1848q0 62 44.5 107.5t106.5 45.5q64 0 108 -44.5t44 -108.5q0 -63 -45 -107.5t-107 -44.5q-61 0 -106 45t-45 107z" />
<glyph unicode="&#xd7;" horiz-adv-x="1706" d="M254 184l426 426l-426 426l195 195l425 -426l426 426l195 -195l-426 -426l426 -426l-195 -194l-426 426l-425 -426z" />
<glyph unicode="&#xd8;" horiz-adv-x="1335" d="M41 43l102 166q-23 36 -34 106.5t-11 196.5v496q0 306 126 425t444 119q97 0 160 -6.5t114 -21.5l68 112l305 -184l-111 -178q17 -38 24 -93t7 -173v-496q0 -305 -124.5 -424t-442.5 -119q-72 0 -130 6.5t-104 20.5l-82 -133zM573 446q0 -82 22 -115.5t73 -33.5 q50 0 72 34t22 115v633q0 81 -22 115.5t-72 34.5q-51 0 -73 -33.5t-22 -116.5v-633z" />
<glyph unicode="&#xd9;" horiz-adv-x="1346" d="M66 1255v267h583v-266q-30 -14 -41.5 -41.5t-11.5 -98.5v-670q0 -82 21.5 -115.5t72.5 -33.5t72.5 34t21.5 115v670q0 69 -11.5 97.5t-41.5 41.5v267h543v-267q-32 -15 -44.5 -44.5t-12.5 -94.5v-536q0 -178 -12 -254.5t-40 -128.5q-62 -116 -185 -172t-314 -56 q-164 0 -279 46.5t-182 140.5q-39 55 -55.5 124.5t-16.5 198.5v80v557q0 63 -15 93t-52 46zM369 2034h287l192 -371h-154z" />
<glyph unicode="&#xda;" horiz-adv-x="1346" d="M66 1255v267h583v-266q-30 -14 -41.5 -41.5t-11.5 -98.5v-670q0 -82 21.5 -115.5t72.5 -33.5t72.5 34t21.5 115v670q0 69 -11.5 97.5t-41.5 41.5v267h543v-267q-32 -15 -44.5 -44.5t-12.5 -94.5v-536q0 -178 -12 -254.5t-40 -128.5q-62 -116 -185 -172t-314 -56 q-164 0 -279 46.5t-182 140.5q-39 55 -55.5 124.5t-16.5 198.5v80v557q0 63 -15 93t-52 46zM500 1663l192 371h287l-325 -371h-154z" />
<glyph unicode="&#xdb;" horiz-adv-x="1346" d="M66 1255v267h583v-266q-30 -14 -41.5 -41.5t-11.5 -98.5v-670q0 -82 21.5 -115.5t72.5 -33.5t72.5 34t21.5 115v670q0 69 -11.5 97.5t-41.5 41.5v267h543v-267q-32 -15 -44.5 -44.5t-12.5 -94.5v-536q0 -178 -12 -254.5t-40 -128.5q-62 -116 -185 -172t-314 -56 q-164 0 -279 46.5t-182 140.5q-39 55 -55.5 124.5t-16.5 198.5v80v557q0 63 -15 93t-52 46zM352 1663l193 371h256l192 -371h-153l-166 199l-168 -199h-154z" />
<glyph unicode="&#xdc;" horiz-adv-x="1346" d="M66 1255v267h583v-266q-30 -14 -41.5 -41.5t-11.5 -98.5v-670q0 -82 21.5 -115.5t72.5 -33.5t72.5 34t21.5 115v670q0 69 -11.5 97.5t-41.5 41.5v267h543v-267q-32 -15 -44.5 -44.5t-12.5 -94.5v-536q0 -178 -12 -254.5t-40 -128.5q-62 -116 -185 -172t-314 -56 q-164 0 -279 46.5t-182 140.5q-39 55 -55.5 124.5t-16.5 198.5v80v557q0 63 -15 93t-52 46zM340 1848q0 62 45 107.5t107 45.5q64 0 108.5 -44.5t44.5 -108.5q0 -62 -45.5 -107t-107.5 -45t-107 45t-45 107zM703 1848q0 62 44.5 107.5t106.5 45.5q64 0 108 -44.5t44 -108.5 q0 -63 -45 -107.5t-107 -44.5q-61 0 -106 45t-45 107z" />
<glyph unicode="&#xdd;" horiz-adv-x="1204" d="M6 1255v267h535v-176q0 -91 6.5 -132.5t21.5 -76.5l62 -138l61 142q17 39 25 86t8 104v191h473v-267q-18 -11 -32 -28t-27 -41l-301 -588v-188q0 -66 15 -94.5t54 -45.5v-270h-614v270q39 17 54 46.5t15 93.5v188l-296 586q-9 18 -23 35t-37 36zM428 1663l192 371h287 l-325 -371h-154z" />
<glyph unicode="&#xde;" horiz-adv-x="1280" d="M88 0v270q31 16 43 45.5t12 94.5v706q0 65 -12 94t-43 45v267h580v-199q-31 -11 -44.5 -31t-13.5 -55v-8h121q280 0 388 -98.5t108 -364.5q0 -214 -112 -307.5t-378 -93.5h-127v-27q0 -72 17.5 -99.5t62.5 -39.5v-199h-602zM610 639h25q87 0 119 28.5t32 104.5v41 q0 79 -28 110t-94 31h-54v-315z" />
<glyph unicode="&#xdf;" horiz-adv-x="1233" d="M94 0v252q26 8 36.5 36t10.5 89v733q0 243 106.5 334.5t370.5 91.5q284 0 398 -86.5t114 -300.5q0 -129 -39 -198t-126 -97q93 -27 131.5 -89t38.5 -190v-221q0 -197 -78.5 -275.5t-270.5 -78.5h-165v252q60 6 81 35t21 116v193q0 54 -24 81.5t-72 27.5h-6v253 q58 4 80 30t22 91v86q0 58 -22 87.5t-64 29.5t-60 -25.5t-18 -87.5v-1169h-465z" />
<glyph unicode="&#xe0;" horiz-adv-x="1202" d="M72 303q0 252 566 416l28 8v21q0 67 -19.5 99t-60.5 32t-60.5 -32t-19.5 -99v-21h-385v264q91 70 224 109t286 39q233 0 339.5 -98t106.5 -314v-342q0 -60 12.5 -90t40.5 -43v-252h-446l-14 96q-53 -60 -121 -87t-166 -27q-148 0 -229.5 84t-81.5 237zM297 1618h287 l192 -371h-154zM494 344q0 -39 18 -59.5t51 -20.5q28 0 54 11t49 32v176q-115 -46 -143.5 -72.5t-28.5 -66.5z" />
<glyph unicode="&#xe1;" horiz-adv-x="1202" d="M72 303q0 252 566 416l28 8v21q0 67 -19.5 99t-60.5 32t-60.5 -32t-19.5 -99v-21h-385v264q91 70 224 109t286 39q233 0 339.5 -98t106.5 -314v-342q0 -60 12.5 -90t40.5 -43v-252h-446l-14 96q-53 -60 -121 -87t-166 -27q-148 0 -229.5 84t-81.5 237zM428 1247l192 371 h287l-325 -371h-154zM494 344q0 -39 18 -59.5t51 -20.5q28 0 54 11t49 32v176q-115 -46 -143.5 -72.5t-28.5 -66.5z" />
<glyph unicode="&#xe2;" horiz-adv-x="1202" d="M72 303q0 252 566 416l28 8v21q0 67 -19.5 99t-60.5 32t-60.5 -32t-19.5 -99v-21h-385v264q91 70 224 109t286 39q233 0 339.5 -98t106.5 -314v-342q0 -60 12.5 -90t40.5 -43v-252h-446l-14 96q-53 -60 -121 -87t-166 -27q-148 0 -229.5 84t-81.5 237zM280 1247l193 371 h256l192 -371h-153l-166 199l-168 -199h-154zM494 344q0 -39 18 -59.5t51 -20.5q28 0 54 11t49 32v176q-115 -46 -143.5 -72.5t-28.5 -66.5z" />
<glyph unicode="&#xe3;" horiz-adv-x="1202" d="M72 303q0 252 566 416l28 8v21q0 67 -19.5 99t-60.5 32t-60.5 -32t-19.5 -99v-21h-385v264q91 70 224 109t286 39q233 0 339.5 -98t106.5 -314v-342q0 -60 12.5 -90t40.5 -43v-252h-446l-14 96q-53 -60 -121 -87t-166 -27q-148 0 -229.5 84t-81.5 237zM270 1292 q28 126 80.5 186t134.5 60q19 0 42 -3.5t48 -10.5l95 -29q12 -4 26 -6t31 -2q33 0 55 21.5t33 64.5h119q-32 -135 -83.5 -194.5t-135.5 -59.5q-18 0 -37 3t-39 9l-92 25q-1 0 -4 1q-46 13 -64 13q-33 0 -54.5 -18.5t-35.5 -59.5h-119zM494 344q0 -39 18 -59.5t51 -20.5 q28 0 54 11t49 32v176q-115 -46 -143.5 -72.5t-28.5 -66.5z" />
<glyph unicode="&#xe4;" horiz-adv-x="1202" d="M72 303q0 252 566 416l28 8v21q0 67 -19.5 99t-60.5 32t-60.5 -32t-19.5 -99v-21h-385v264q91 70 224 109t286 39q233 0 339.5 -98t106.5 -314v-342q0 -60 12.5 -90t40.5 -43v-252h-446l-14 96q-53 -60 -121 -87t-166 -27q-148 0 -229.5 84t-81.5 237zM268 1432 q0 62 45 107.5t107 45.5q64 0 108.5 -44.5t44.5 -108.5q0 -62 -45.5 -107t-107.5 -45t-107 45t-45 107zM494 344q0 -39 18 -59.5t51 -20.5q28 0 54 11t49 32v176q-115 -46 -143.5 -72.5t-28.5 -66.5zM631 1432q0 62 44.5 107.5t106.5 45.5q64 0 108 -44.5t44 -108.5 q0 -63 -45 -107.5t-107 -44.5q-61 0 -106 45t-45 107z" />
<glyph unicode="&#xe5;" horiz-adv-x="1202" d="M72 303q0 252 566 416l28 8v21q0 67 -19.5 99t-60.5 32t-60.5 -32t-19.5 -99v-21h-385v264q91 70 224 109t286 39q233 0 339.5 -98t106.5 -314v-342q0 -60 12.5 -90t40.5 -43v-252h-446l-14 96q-53 -60 -121 -87t-166 -27q-148 0 -229.5 84t-81.5 237zM328 1477 q0 112 79.5 191t192.5 79t191.5 -79t78.5 -191q0 -114 -78.5 -193.5t-191.5 -79.5q-114 0 -193 79t-79 194zM485 1475q0 -48 33.5 -80.5t81.5 -32.5t81.5 32.5t33.5 80.5q0 47 -33.5 80.5t-81.5 33.5t-81.5 -33.5t-33.5 -80.5zM494 344q0 -39 18 -59.5t51 -20.5q28 0 54 11 t49 32v176q-115 -46 -143.5 -72.5t-28.5 -66.5z" />
<glyph unicode="&#xe6;" horiz-adv-x="1737" d="M72 303q0 252 566 416l28 8v21q0 67 -19.5 99t-60.5 32t-60.5 -32t-19.5 -99v-21h-385v264q93 71 213.5 108.5t255.5 37.5q84 0 151.5 -18t124.5 -56q57 36 136 55t178 19q254 0 362.5 -100t108.5 -337v-225h-582v-104q0 -74 19 -103.5t63 -29.5t64 30.5t20 102.5v30h416 v-276q-84 -69 -212.5 -106t-287.5 -37q-117 0 -211.5 33t-157.5 96q-85 -64 -186.5 -96.5t-212.5 -32.5q-148 0 -229.5 84t-81.5 237zM498 346q0 -34 18 -53t51 -19q26 0 51.5 10t47.5 29v160q-111 -41 -139.5 -65.5t-28.5 -61.5zM1069 707h166v41q0 72 -19.5 101.5 t-64.5 29.5q-44 0 -63 -30t-19 -101v-41z" />
<glyph unicode="&#xe7;" horiz-adv-x="1128" d="M90 389v340q0 223 104.5 315.5t352.5 92.5q150 0 277.5 -36.5t228.5 -107.5v-299h-385v54q0 73 -19 102t-63 29t-63 -30t-19 -101v-377q0 -74 18.5 -103.5t63.5 -29.5q43 0 62.5 30t19.5 103v100h385v-346q-88 -73 -210 -108t-284 -35q-259 0 -364 90.5t-105 316.5z M342 -301q79 -22 150.5 -33.5t120.5 -11.5q43 0 64.5 17.5t21.5 54.5q0 32 -28.5 47.5t-90.5 15.5q-21 0 -33 -0.5t-22 -1.5v213h114v-84h19q111 0 170 -49.5t59 -142.5q0 -100 -66 -154.5t-188 -54.5q-60 0 -134 12t-157 35v137z" />
<glyph unicode="&#xe8;" horiz-adv-x="1171" d="M90 389v340q0 229 107.5 318.5t388.5 89.5q276 0 386.5 -97t110.5 -340v-225h-579v-104q0 -74 18.5 -103.5t63.5 -29.5q43 0 62.5 30t19.5 103v30h415v-276q-82 -70 -215 -106.5t-307 -36.5q-259 0 -365 91t-106 316zM281 1618h287l192 -371h-154zM504 707h164v41 q0 73 -19 102t-63 29t-63 -30t-19 -101v-41z" />
<glyph unicode="&#xe9;" horiz-adv-x="1171" d="M90 389v340q0 229 107.5 318.5t388.5 89.5q276 0 386.5 -97t110.5 -340v-225h-579v-104q0 -74 18.5 -103.5t63.5 -29.5q43 0 62.5 30t19.5 103v30h415v-276q-82 -70 -215 -106.5t-307 -36.5q-259 0 -365 91t-106 316zM412 1247l192 371h287l-325 -371h-154zM504 707h164 v41q0 73 -19 102t-63 29t-63 -30t-19 -101v-41z" />
<glyph unicode="&#xea;" horiz-adv-x="1171" d="M90 389v340q0 229 107.5 318.5t388.5 89.5q276 0 386.5 -97t110.5 -340v-225h-579v-104q0 -74 18.5 -103.5t63.5 -29.5q43 0 62.5 30t19.5 103v30h415v-276q-82 -70 -215 -106.5t-307 -36.5q-259 0 -365 91t-106 316zM264 1247l193 371h256l192 -371h-153l-166 199 l-168 -199h-154zM504 707h164v41q0 73 -19 102t-63 29t-63 -30t-19 -101v-41z" />
<glyph unicode="&#xeb;" horiz-adv-x="1171" d="M90 389v340q0 229 107.5 318.5t388.5 89.5q276 0 386.5 -97t110.5 -340v-225h-579v-104q0 -74 18.5 -103.5t63.5 -29.5q43 0 62.5 30t19.5 103v30h415v-276q-82 -70 -215 -106.5t-307 -36.5q-259 0 -365 91t-106 316zM252 1432q0 62 45 107.5t107 45.5q64 0 108.5 -44.5 t44.5 -108.5q0 -62 -45.5 -107t-107.5 -45t-107 45t-45 107zM504 707h164v41q0 73 -19 102t-63 29t-63 -30t-19 -101v-41zM615 1432q0 62 44.5 107.5t106.5 45.5q64 0 108 -44.5t44 -108.5q0 -63 -45 -107.5t-107 -44.5q-61 0 -106 45t-45 107z" />
<glyph unicode="&#xec;" horiz-adv-x="692" d="M29 1618h287l192 -371h-154zM88 0v252q28 8 41.5 42.5t13.5 98.5v355q0 55 -12 80t-43 38v252h473v-719q0 -67 11.5 -100t37.5 -47v-252h-522z" />
<glyph unicode="&#xed;" horiz-adv-x="692" d="M88 0v252q28 8 41.5 42.5t13.5 98.5v355q0 55 -12 80t-43 38v252h473v-719q0 -67 11.5 -100t37.5 -47v-252h-522zM160 1247l192 371h287l-325 -371h-154z" />
<glyph unicode="&#xee;" horiz-adv-x="692" d="M12 1247l193 371h256l192 -371h-153l-166 199l-168 -199h-154zM88 0v252q28 8 41.5 42.5t13.5 98.5v355q0 55 -12 80t-43 38v252h473v-719q0 -67 11.5 -100t37.5 -47v-252h-522z" />
<glyph unicode="&#xef;" horiz-adv-x="692" d="M0 1432q0 62 45 107.5t107 45.5q64 0 108.5 -44.5t44.5 -108.5q0 -62 -45.5 -107t-107.5 -45t-107 45t-45 107zM88 0v252q28 8 41.5 42.5t13.5 98.5v355q0 55 -12 80t-43 38v252h473v-719q0 -67 11.5 -100t37.5 -47v-252h-522zM363 1432q0 62 44.5 107.5t106.5 45.5 q64 0 108 -44.5t44 -108.5q0 -63 -45 -107.5t-107 -44.5q-61 0 -106 45t-45 107z" />
<glyph unicode="&#xf0;" horiz-adv-x="1174" d="M90 369v323q0 213 104.5 300t356.5 87q18 0 36 -0.5t54 -3.5q-35 56 -65.5 97.5t-59.5 74.5l-309 -121l-51 134l270 106l-1 1q-94 116 -157 185h297q25 -21 49.5 -44t49.5 -48l245 92l56 -129l-201 -80q167 -168 243 -324t76 -327v-323q0 -219 -107 -303t-390 -84 q-282 0 -389 84t-107 303zM504 350q0 -68 19 -96.5t63 -28.5t63 28t19 97v359q0 70 -19 97.5t-63 27.5t-63 -29t-19 -96v-359z" />
<glyph unicode="&#xf1;" horiz-adv-x="1255" d="M84 0v252q28 8 41.5 42.5t13.5 98.5v355q0 55 -12 80t-43 38v252h455v-76q63 44 136 66t150 22q164 0 236 -83.5t72 -280.5v-369q0 -78 10.5 -106t38.5 -39v-252h-445q-12 56 -17 140t-5 298v244q0 87 -21.5 118t-72.5 31q-14 0 -29.5 -3t-36.5 -11v-418q0 -65 12 -99 t39 -48v-252h-522zM297 1292q28 126 80.5 186t134.5 60q19 0 42 -3.5t48 -10.5l95 -29q12 -4 26 -6t31 -2q33 0 55 21.5t33 64.5h119q-32 -135 -83.5 -194.5t-135.5 -59.5q-18 0 -37 3t-39 9l-92 25q-1 0 -4 1q-46 13 -64 13q-33 0 -54.5 -18.5t-35.5 -59.5h-119z" />
<glyph unicode="&#xf2;" horiz-adv-x="1174" d="M90 389v340q0 230 107.5 319t388.5 89q282 0 389.5 -89t107.5 -319v-340q0 -230 -108 -318.5t-389 -88.5t-388.5 88.5t-107.5 318.5zM283 1618h287l192 -371h-154zM504 371q0 -74 18.5 -103.5t63.5 -29.5q43 0 62.5 30t19.5 103v377q0 73 -19 102t-63 29t-63 -30 t-19 -101v-377z" />
<glyph unicode="&#xf3;" horiz-adv-x="1174" d="M90 389v340q0 230 107.5 319t388.5 89q282 0 389.5 -89t107.5 -319v-340q0 -230 -108 -318.5t-389 -88.5t-388.5 88.5t-107.5 318.5zM414 1247l192 371h287l-325 -371h-154zM504 371q0 -74 18.5 -103.5t63.5 -29.5q43 0 62.5 30t19.5 103v377q0 73 -19 102t-63 29 t-63 -30t-19 -101v-377z" />
<glyph unicode="&#xf4;" horiz-adv-x="1174" d="M90 389v340q0 230 107.5 319t388.5 89q282 0 389.5 -89t107.5 -319v-340q0 -230 -108 -318.5t-389 -88.5t-388.5 88.5t-107.5 318.5zM266 1247l193 371h256l192 -371h-153l-166 199l-168 -199h-154zM504 371q0 -74 18.5 -103.5t63.5 -29.5q43 0 62.5 30t19.5 103v377 q0 73 -19 102t-63 29t-63 -30t-19 -101v-377z" />
<glyph unicode="&#xf5;" horiz-adv-x="1174" d="M90 389v340q0 230 107.5 319t388.5 89q282 0 389.5 -89t107.5 -319v-340q0 -230 -108 -318.5t-389 -88.5t-388.5 88.5t-107.5 318.5zM256 1292q28 126 80.5 186t134.5 60q19 0 42 -3.5t48 -10.5l95 -29q12 -4 26 -6t31 -2q33 0 55 21.5t33 64.5h119 q-32 -135 -83.5 -194.5t-135.5 -59.5q-18 0 -37 3t-39 9l-92 25q-1 0 -4 1q-46 13 -64 13q-33 0 -54.5 -18.5t-35.5 -59.5h-119zM504 371q0 -74 18.5 -103.5t63.5 -29.5q43 0 62.5 30t19.5 103v377q0 73 -19 102t-63 29t-63 -30t-19 -101v-377z" />
<glyph unicode="&#xf6;" horiz-adv-x="1174" d="M90 389v340q0 230 107.5 319t388.5 89q282 0 389.5 -89t107.5 -319v-340q0 -230 -108 -318.5t-389 -88.5t-388.5 88.5t-107.5 318.5zM254 1432q0 62 45 107.5t107 45.5q64 0 108.5 -44.5t44.5 -108.5q0 -62 -45.5 -107t-107.5 -45t-107 45t-45 107zM504 371 q0 -74 18.5 -103.5t63.5 -29.5q43 0 62.5 30t19.5 103v377q0 73 -19 102t-63 29t-63 -30t-19 -101v-377zM617 1432q0 62 44.5 107.5t106.5 45.5q64 0 108 -44.5t44 -108.5q0 -63 -45 -107.5t-107 -44.5q-61 0 -106 45t-45 107z" />
<glyph unicode="&#xf7;" horiz-adv-x="1706" d="M254 475v273h1198v-273h-1198zM670 188q0 77 53.5 130t130.5 53q74 0 128 -54t54 -129q0 -74 -54 -128t-130 -54t-129 53t-53 129zM670 1032q0 77 54 131t130 54q74 0 128 -55t54 -130q0 -74 -54 -128t-130 -54t-129 53t-53 129z" />
<glyph unicode="&#xf8;" horiz-adv-x="1174" d="M49 51l78 115q-18 21 -27.5 79t-9.5 144v340q0 230 107.5 319t388.5 89q115 0 224 -19q7 -1 11 -2l70 94l233 -163l-73 -103q16 -28 24 -83.5t8 -131.5v-340q0 -230 -108 -318.5t-389 -88.5q-76 0 -128.5 4.5t-95.5 15.5l-77 -111zM504 371q0 -74 18.5 -103.5t63.5 -29.5 q43 0 62.5 30t19.5 103v377q0 73 -19 102t-63 29t-63 -30t-19 -101v-377z" />
<glyph unicode="&#xf9;" horiz-adv-x="1255" d="M76 866v252h444q12 -59 17.5 -143.5t5.5 -294.5v-244q0 -86 21 -116.5t73 -30.5q19 0 35 3t30 9v418q0 68 -11 100.5t-38 46.5v252h467v-747q0 -59 12.5 -83.5t40.5 -35.5l1 -252h-455v76q-63 -43 -134.5 -64.5t-150.5 -21.5q-165 0 -237 83.5t-72 280.5v367 q0 79 -10.5 106.5t-38.5 38.5zM309 1618h287l192 -371h-154z" />
<glyph unicode="&#xfa;" horiz-adv-x="1255" d="M76 866v252h444q12 -59 17.5 -143.5t5.5 -294.5v-244q0 -86 21 -116.5t73 -30.5q19 0 35 3t30 9v418q0 68 -11 100.5t-38 46.5v252h467v-747q0 -59 12.5 -83.5t40.5 -35.5l1 -252h-455v76q-63 -43 -134.5 -64.5t-150.5 -21.5q-165 0 -237 83.5t-72 280.5v367 q0 79 -10.5 106.5t-38.5 38.5zM440 1247l192 371h287l-325 -371h-154z" />
<glyph unicode="&#xfb;" horiz-adv-x="1255" d="M76 866v252h444q12 -59 17.5 -143.5t5.5 -294.5v-244q0 -86 21 -116.5t73 -30.5q19 0 35 3t30 9v418q0 68 -11 100.5t-38 46.5v252h467v-747q0 -59 12.5 -83.5t40.5 -35.5l1 -252h-455v76q-63 -43 -134.5 -64.5t-150.5 -21.5q-165 0 -237 83.5t-72 280.5v367 q0 79 -10.5 106.5t-38.5 38.5zM292 1247l193 371h256l192 -371h-153l-166 199l-168 -199h-154z" />
<glyph unicode="&#xfc;" horiz-adv-x="1255" d="M76 866v252h444q12 -59 17.5 -143.5t5.5 -294.5v-244q0 -86 21 -116.5t73 -30.5q19 0 35 3t30 9v418q0 68 -11 100.5t-38 46.5v252h467v-747q0 -59 12.5 -83.5t40.5 -35.5l1 -252h-455v76q-63 -43 -134.5 -64.5t-150.5 -21.5q-165 0 -237 83.5t-72 280.5v367 q0 79 -10.5 106.5t-38.5 38.5zM280 1432q0 62 45 107.5t107 45.5q64 0 108.5 -44.5t44.5 -108.5q0 -62 -45.5 -107t-107.5 -45t-107 45t-45 107zM643 1432q0 62 44.5 107.5t106.5 45.5q64 0 108 -44.5t44 -108.5q0 -63 -45 -107.5t-107 -44.5q-61 0 -106 45t-45 107z" />
<glyph unicode="&#xfd;" horiz-adv-x="1139" d="M37 868v250h518v-250q-18 -7 -27.5 -21t-9.5 -34q0 -5 1.5 -14.5t4.5 -25.5l88 -392l76 381q2 10 3 21.5t1 27.5q0 22 -10 36t-30 21l-1 250h451v-250q-20 -12 -35 -38.5t-29 -71.5l-239 -819q-56 -192 -146 -274.5t-241 -82.5q-47 0 -95.5 7.5t-97.5 21.5v241 q65 2 105.5 29t58.5 82l-285 811q-10 28 -26 53t-35 41zM395 1247l192 371h287l-325 -371h-154z" />
<glyph unicode="&#xfe;" horiz-adv-x="1208" d="M70 -147q27 7 41 43t14 100v1155q0 56 -12.5 80.5t-42.5 38.5v252h471v-469q58 38 127.5 57.5t142.5 19.5q165 0 236 -84t71 -290v-348q0 -239 -70.5 -328.5t-240.5 -89.5q-64 0 -133 16.5t-133 46.5v-53q0 -71 12.5 -104t42.5 -43v-250h-526v250zM541 303 q18 -9 36 -13.5t35 -4.5q50 0 69 26.5t19 126.5v244q0 86 -21 116.5t-73 30.5q-15 0 -32 -3t-33 -9v-514z" />
<glyph unicode="&#xff;" horiz-adv-x="1139" d="M37 868v250h518v-250q-18 -7 -27.5 -21t-9.5 -34q0 -5 1.5 -14.5t4.5 -25.5l88 -392l76 381q2 10 3 21.5t1 27.5q0 22 -10 36t-30 21l-1 250h451v-250q-20 -12 -35 -38.5t-29 -71.5l-239 -819q-56 -192 -146 -274.5t-241 -82.5q-47 0 -95.5 7.5t-97.5 21.5v241 q65 2 105.5 29t58.5 82l-285 811q-10 28 -26 53t-35 41zM235 1432q0 62 45 107.5t107 45.5q64 0 108.5 -44.5t44.5 -108.5q0 -62 -45.5 -107t-107.5 -45t-107 45t-45 107zM598 1432q0 62 44.5 107.5t106.5 45.5q64 0 108 -44.5t44 -108.5q0 -63 -45 -107.5t-107 -44.5 q-61 0 -106 45t-45 107z" />
<glyph unicode="&#x152;" horiz-adv-x="1896" d="M98 512v496q0 306 126 425t444 119q83 0 150 -7.5t122 -22.5h870v-504h-413v43q0 82 -28 110.5t-105 28.5h-41v-270h301v-295h-301v-307q7 -1 16 -1.5t25 -0.5q74 0 104.5 38.5t30.5 135.5q0 21 -0.5 32.5t-1.5 22.5h413v-555h-866q-64 -16 -132 -23.5t-144 -7.5 q-319 0 -444.5 118.5t-125.5 424.5zM573 446q0 -82 22 -115.5t73 -33.5q50 0 72 34t22 115v633q0 81 -22 115.5t-72 34.5q-51 0 -73 -33.5t-22 -116.5v-633z" />
<glyph unicode="&#x153;" horiz-adv-x="1749" d="M90 389v340q0 225 104.5 316.5t358.5 91.5q106 0 188 -16.5t138 -49.5q61 32 141 49t174 17q253 0 361 -100t108 -337v-225h-582v-104q0 -74 19 -103.5t63 -29.5q45 0 64.5 30.5t19.5 102.5v30h416v-276q-84 -69 -212.5 -106t-287.5 -37q-83 0 -159 16.5t-130 46.5 q-76 -32 -157.5 -47.5t-171.5 -15.5q-247 0 -351 92t-104 315zM504 371q0 -74 18.5 -103.5t63.5 -29.5q43 0 62.5 30t19.5 103v377q0 73 -19 102t-63 29t-63 -30t-19 -101v-377zM1081 707h166v41q0 72 -19 101.5t-65 29.5q-44 0 -63 -30t-19 -101v-41z" />
<glyph unicode="&#x178;" horiz-adv-x="1204" d="M6 1255v267h535v-176q0 -91 6.5 -132.5t21.5 -76.5l62 -138l61 142q17 39 25 86t8 104v191h473v-267q-18 -11 -32 -28t-27 -41l-301 -588v-188q0 -66 15 -94.5t54 -45.5v-270h-614v270q39 17 54 46.5t15 93.5v188l-296 586q-9 18 -23 35t-37 36zM268 1848q0 62 45 107.5 t107 45.5q64 0 108.5 -44.5t44.5 -108.5q0 -62 -45.5 -107t-107.5 -45t-107 45t-45 107zM631 1848q0 62 44.5 107.5t106.5 45.5q64 0 108 -44.5t44 -108.5q0 -63 -45 -107.5t-107 -44.5q-61 0 -106 45t-45 107z" />
<glyph unicode="&#x2c6;" horiz-adv-x="1024" d="M190 1247l193 371h256l192 -371h-153l-166 199l-168 -199h-154z" />
<glyph unicode="&#x2dc;" horiz-adv-x="1024" d="M180 1292q28 126 80.5 186t134.5 60q19 0 42 -3.5t48 -10.5l95 -29q12 -4 26 -6t31 -2q33 0 55 21.5t33 64.5h119q-32 -135 -83.5 -194.5t-135.5 -59.5q-18 0 -37 3t-39 9l-92 25q-1 0 -4 1q-46 13 -64 13q-33 0 -54.5 -18.5t-35.5 -59.5h-119z" />
<glyph unicode="&#x2000;" horiz-adv-x="1017" />
<glyph unicode="&#x2001;" horiz-adv-x="2034" />
<glyph unicode="&#x2002;" horiz-adv-x="1017" />
<glyph unicode="&#x2003;" horiz-adv-x="2034" />
<glyph unicode="&#x2004;" horiz-adv-x="678" />
<glyph unicode="&#x2005;" horiz-adv-x="508" />
<glyph unicode="&#x2006;" horiz-adv-x="339" />
<glyph unicode="&#x2007;" horiz-adv-x="339" />
<glyph unicode="&#x2008;" horiz-adv-x="254" />
<glyph unicode="&#x2009;" horiz-adv-x="406" />
<glyph unicode="&#x200a;" horiz-adv-x="113" />
<glyph unicode="&#x2010;" horiz-adv-x="782" d="M90 393v369h602v-369h-602z" />
<glyph unicode="&#x2011;" horiz-adv-x="782" d="M90 393v369h602v-369h-602z" />
<glyph unicode="&#x2012;" horiz-adv-x="782" d="M90 393v369h602v-369h-602z" />
<glyph unicode="&#x2013;" horiz-adv-x="1024" d="M0 442v271h1024v-271h-1024z" />
<glyph unicode="&#x2014;" horiz-adv-x="2048" d="M0 442v271h2048v-271h-2048z" />
<glyph unicode="&#x2018;" horiz-adv-x="569" d="M115 1153q0 95 62.5 195t187.5 204l57 -57q-49 -57 -79.5 -109t-42.5 -100h17q71 0 115.5 -42t44.5 -107q0 -74 -53.5 -127.5t-128.5 -53.5q-81 0 -130.5 54.5t-49.5 142.5z" />
<glyph unicode="&#x2019;" horiz-adv-x="569" d="M102 1372q0 74 53.5 127t129.5 53q79 0 129.5 -54t50.5 -142q0 -97 -61.5 -196t-186.5 -204l-57 56q45 52 74.5 104t46.5 107h-19q-71 0 -115.5 41.5t-44.5 107.5z" />
<glyph unicode="&#x201a;" horiz-adv-x="569" d="M102 174q0 74 53.5 127t129.5 53q79 0 129.5 -54.5t50.5 -141.5q0 -97 -61.5 -196t-186.5 -204l-57 56q45 52 75 104.5t46 106.5h-19q-71 0 -115.5 41.5t-44.5 107.5z" />
<glyph unicode="&#x201c;" horiz-adv-x="1006" d="M115 1153q0 95 62.5 195t187.5 204l57 -57q-49 -57 -79.5 -109t-42.5 -100h17q71 0 115.5 -42t44.5 -107q0 -74 -53.5 -127.5t-128.5 -53.5q-81 0 -130.5 54.5t-49.5 142.5zM551 1153q0 96 62 195t188 204l57 -57q-48 -57 -78.5 -108.5t-43.5 -100.5h18q71 0 115 -42 t44 -107q0 -74 -53.5 -127.5t-128.5 -53.5q-80 0 -130 54.5t-50 142.5z" />
<glyph unicode="&#x201d;" horiz-adv-x="1006" d="M102 1372q0 74 53.5 127t129.5 53q79 0 129.5 -54t50.5 -142q0 -97 -61.5 -196t-186.5 -204l-57 56q45 52 74.5 104t46.5 107h-19q-71 0 -115.5 41.5t-44.5 107.5zM539 1372q0 74 53.5 127t128.5 53q79 0 129.5 -54t50.5 -142q0 -97 -61.5 -196t-186.5 -204l-57 56 q44 51 74.5 104t46.5 107h-19q-70 0 -114.5 41.5t-44.5 107.5z" />
<glyph unicode="&#x201e;" horiz-adv-x="1006" d="M102 174q0 74 53.5 127t129.5 53q79 0 129.5 -54.5t50.5 -141.5q0 -97 -61.5 -196t-186.5 -204l-57 56q45 52 75 104.5t46 106.5h-19q-71 0 -115.5 41.5t-44.5 107.5zM539 174q0 74 53.5 127t128.5 53q79 0 129.5 -54.5t50.5 -141.5q0 -97 -61.5 -196t-186.5 -204l-57 56 q45 52 75 104.5t46 106.5h-19q-70 0 -114.5 41.5t-44.5 107.5z" />
<glyph unicode="&#x2022;" horiz-adv-x="1208" d="M307 762q0 123 87 209t210 86q122 0 208.5 -86.5t86.5 -208.5t-87.5 -209.5t-209.5 -87.5q-123 0 -209 87t-86 210z" />
<glyph unicode="&#x2026;" horiz-adv-x="2048" d="M137 184q0 83 60 144t143 61q84 0 144.5 -60t60.5 -145q0 -84 -60.5 -143t-144.5 -59q-82 0 -142.5 60t-60.5 142zM819 184q0 83 60 144t143 61q84 0 144.5 -60t60.5 -145q0 -84 -60.5 -143t-144.5 -59q-82 0 -142.5 60t-60.5 142zM1503 184q0 83 60 144t143 61 q84 0 144.5 -60t60.5 -145q0 -84 -60.5 -143t-144.5 -59q-82 0 -142.5 60t-60.5 142z" />
<glyph unicode="&#x202f;" horiz-adv-x="406" />
<glyph unicode="&#x2039;" horiz-adv-x="627" d="M92 578l174 380h289l-170 -380l170 -379h-289z" />
<glyph unicode="&#x203a;" horiz-adv-x="627" d="M72 199l170 379l-170 380h286l177 -380l-177 -379h-286z" />
<glyph unicode="&#x205f;" horiz-adv-x="508" />
<glyph unicode="&#x2122;" horiz-adv-x="1706" d="M164 1317v151h526v-151h-162v-408h-202v408h-162zM788 909v559h256l99 -266l98 266h256v-559h-182v367l-137 -367h-70l-137 367v-367h-183z" />
<glyph unicode="&#x25fc;" horiz-adv-x="1120" d="M0 0v1120h1120v-1120h-1120z" />
</font>
</defs>
</svg>
