<?xml version="1.0" standalone="no"?>
<!DOCTYPE svg PUBLIC "-//W3C//DTD SVG 1.1//EN" "http://www.w3.org/Graphics/SVG/1.1/DTD/svg11.dtd" >
<svg xmlns="http://www.w3.org/2000/svg">
<metadata></metadata>
<defs>
<font id="aachen_mediumregular" horiz-adv-x="819" >
<font-face units-per-em="2048" ascent="1638" descent="-410" />
<missing-glyph horiz-adv-x="436" />
<glyph horiz-adv-x="0" />
<glyph unicode="&#xd;" horiz-adv-x="436" />
<glyph unicode=" "  horiz-adv-x="436" />
<glyph unicode="&#x09;" horiz-adv-x="436" />
<glyph unicode="&#xa0;" horiz-adv-x="436" />
<glyph unicode="!" horiz-adv-x="628" d="M137 1221q0 72 50.5 116.5t127.5 44.5q78 0 128.5 -45t50.5 -114q0 -12 -2.5 -36t-12.5 -81l-88 -690h-151l-90 690q0 2 -2.5 15.5t-4.5 31.5t-4 37.5t-2 30.5zM158 139q0 66 45.5 111t111.5 45t111 -45t45 -111t-45 -111.5t-111 -45.5t-111.5 46t-45.5 111z" />
<glyph unicode="&#x22;" horiz-adv-x="817" d="M109 1257q0 57 37.5 96.5t95.5 39.5q55 0 93 -39t38 -94q0 -35 -17 -82l-73 -197h-82l-74 197q-18 51 -18 79zM444 1257q0 57 38 96.5t93 39.5q57 0 95.5 -39t38.5 -94q0 -31 -19 -82l-72 -197h-83l-72 197q-10 27 -14.5 45t-4.5 34z" />
<glyph unicode="#" d="M68 0v1366h684v-1366h-684zM82 14h655v1338h-655v-1338z" />
<glyph unicode="$" horiz-adv-x="1124" d="M96 129v346h314v-16q0 -53 4 -82t14 -51q35 -72 135 -72q66 0 107 39t41 102q0 33 -9.5 57.5t-35 46t-69.5 43t-114 48.5q-49 18 -79.5 30.5t-52 21.5t-37 16.5t-31.5 17.5q-182 96 -183 317q0 158 82 257.5t238 129.5l6 2v95h270v-93q90 -16 172 -53t142 -90v-323h-305 v14v8v37q0 70 -39 107.5t-109 37.5q-63 0 -104 -34.5t-41 -88.5q0 -47 35.5 -78.5t125.5 -66.5l132 -49q92 -35 153.5 -73t99 -84t54 -105.5t16.5 -136.5q0 -166 -84 -273.5t-242 -142.5l-6 -2v-94h-270v92q-90 16 -169 51t-161 92z" />
<glyph unicode="%" horiz-adv-x="1454" d="M68 1040q0 59 2 100.5t6 70t11 47t19 34.5q61 84 252 84q186 0 254 -84q10 -16 17.5 -34.5t11.5 -47t6 -70t2 -100.5q0 -109 -6 -160t-20 -79q-57 -100 -265 -101q-205 0 -264 103q-16 27 -21 78t-5 159zM231 0l779 1366h215l-779 -1366h-215zM274 940q2 -63 20.5 -91 t63.5 -28t64.5 28t19.5 91v18v160v19q0 63 -19.5 90.5t-64.5 27.5t-64.5 -27.5t-19.5 -90.5v-19v-160v-18zM805 330q0 59 2 100t6 68.5t11 46t18 35.5q63 86 254 86q96 0 157.5 -22.5t96.5 -63.5q10 -16 17 -35t11 -46.5t6 -68.5t2 -100q0 -111 -6 -161t-22 -79 q-57 -100 -262 -100q-106 0 -171 24.5t-94 77.5q-16 27 -21 77t-5 161zM1012 229q0 -63 19.5 -90.5t64.5 -27.5q43 0 63.5 27.5t20.5 90.5v17v162v16q-2 66 -20.5 93.5t-63.5 27.5q-84 0 -84 -121v-16v-162v-17z" />
<glyph unicode="&#x26;" horiz-adv-x="1163" d="M82 395q0 268 211 338q-188 88 -189 299q0 174 120 269.5t339 95.5q117 0 220.5 -30t220.5 -95l10 -4v-242h-305q-6 45 -41 70.5t-88 25.5q-63 0 -106.5 -41t-43.5 -102q0 -63 39 -100t104 -37h146v45h295v-45h53v-224h-53v-618h-549q-115 0 -183.5 26.5t-123.5 94.5 q-35 45 -55.5 116.5t-20.5 157.5zM408 453q0 -106 67 -146q20 -12 45 -16t74 -4h125v331h-125q-55 0 -82 -6t-49 -24q-55 -41 -55 -135z" />
<glyph unicode="'" horiz-adv-x="483" d="M109 1257q0 57 37.5 96.5t95.5 39.5q55 0 93 -39t38 -94q0 -35 -17 -82l-73 -197h-82l-74 197q-18 51 -18 79z" />
<glyph unicode="(" horiz-adv-x="718" d="M158 707q0 231 96 448t301 444l143 -98l-12 -22q-111 -188 -167 -381t-56 -373q0 -109 20.5 -229.5t55.5 -229.5q29 -86 64.5 -166t82.5 -168l12 -24l-143 -98q-205 227 -301 445t-96 452z" />
<glyph unicode=")" horiz-adv-x="718" d="M20 -92l13 24q53 98 90 184.5t65 178.5q31 98 49.5 215t18.5 215q0 178 -57.5 373.5t-163.5 380.5l-15 22l144 98q205 -227 301 -444t96 -448q0 -233 -96 -451.5t-301 -445.5z" />
<glyph unicode="*" horiz-adv-x="575" d="M96 1159v88h115l-57 101l77 45l58 -101l57 101l78 -45l-57 -101h114v-88h-114l57 -100l-78 -45l-57 100l-58 -100l-77 45l57 100h-115z" />
<glyph unicode="+" d="M68 0v1366h684v-1366h-684zM82 14h655v1338h-655v-1338z" />
<glyph unicode="," horiz-adv-x="487" d="M106 133q0 61 41 103.5t101 42.5q66 0 104.5 -44.5t38.5 -115.5q0 -82 -52 -159t-149 -132l-49 66q43 31 63.5 53t33.5 55q-59 4 -95.5 41t-36.5 90z" />
<glyph unicode="-" horiz-adv-x="684" d="M96 434v197h492v-197h-492z" />
<glyph unicode="." horiz-adv-x="487" d="M96 129q0 61 43.5 104t104.5 43t104 -43t43 -104q0 -59 -43 -103t-104 -44t-104.5 44t-43.5 103z" />
<glyph unicode="/" horiz-adv-x="1024" d="M0 -90l752 1544h272l-752 -1544h-272z" />
<glyph unicode="0" horiz-adv-x="1114" d="M96 332v61v580v61q6 358 461 359q229 0 345 -90.5t116 -268.5v-61v-580v-61q-6 -358 -461 -359q-461 0 -461 359zM410 434q0 -53 4 -77.5t20 -47.5q20 -29 52 -46t71 -17t72 17.5t51 45.5q16 23 20.5 46.5t4.5 72.5v27v454v23q0 53 -4.5 77.5t-20.5 47.5q-20 29 -53 46 t-70 17q-39 0 -71.5 -17.5t-51.5 -45.5q-16 -23 -20 -46.5t-4 -74.5v-27v-454v-21z" />
<glyph unicode="1" horiz-adv-x="600" d="M76 0v223q41 10 56 34t15 75v26v650v26q-2 53 -16 74.5t-55 32.5v225h385v-1008v-26q0 -53 15.5 -76t55.5 -33v-223h-456z" />
<glyph unicode="2" horiz-adv-x="1067" d="M68 0v315q0 61 7 103.5t30.5 79.5t65.5 74.5t112 91.5l245 192q43 31 69 54.5t41 42t20.5 35t5.5 36.5q0 53 -37 88t-97 35q-63 0 -102 -41t-39 -109v-102h-303v367q109 66 217.5 96.5t231.5 30.5q229 0 339.5 -89.5t110.5 -273.5q0 -70 -8 -118t-32.5 -89t-71 -85 t-121.5 -103l-289 -225q-35 -29 -54.5 -58t-19.5 -88h180q68 0 88 53q4 10 5.5 35t1.5 82h335v-430h-931z" />
<glyph unicode="3" horiz-adv-x="1058" d="M55 90v330h316v-25q0 -72 36.5 -110.5t102.5 -38.5q68 0 108.5 45t40.5 121q0 78 -43 118.5t-122 40.5h-31h-166v234h160h20q182 0 182 160q0 70 -40.5 111.5t-110.5 41.5q-63 0 -100 -39t-37 -104v-17h-303v314q117 61 226 91t230 30q219 0 338 -95.5t119 -269.5 q0 -127 -56.5 -200.5t-187.5 -118.5q254 -66 254 -334q0 -199 -119.5 -300.5t-353.5 -101.5q-117 0 -229.5 29t-233.5 88z" />
<glyph unicode="4" horiz-adv-x="1081" d="M41 362v291l473 713h395v-743h90v-261h-90v-30q0 -53 15.5 -76t56.5 -33v-223h-457v223q41 10 56.5 34t15.5 75v30h-555zM344 623h252v381z" />
<glyph unicode="5" horiz-adv-x="1103" d="M96 94v355h316q0 -80 8 -111q12 -41 52 -66.5t87 -25.5q88 0 127 69q10 20 15.5 50t5.5 84q0 70 -5.5 104.5t-21.5 56.5q-18 25 -49 39.5t-68 14.5q-74 0 -125 -64h-342v766h901v-369h-297q-4 104 -108 105h-180v-246q61 23 115.5 33t107.5 10q104 0 192 -40t140 -109 q39 -51 55 -119t16 -178q0 -127 -17 -202t-58 -128q-55 -72 -158 -111t-240 -39q-63 0 -119.5 6.5t-111.5 20.5t-113.5 37.5t-124.5 56.5z" />
<glyph unicode="6" horiz-adv-x="1118" d="M96 360v33v584v47q2 369 455 369q129 0 238.5 -23.5t214.5 -75.5v-286h-302q-12 129 -141 129q-66 0 -108.5 -41t-42.5 -107v-39v-135q68 37 125 52.5t129 15.5q207 0 311 -140q18 -25 29.5 -50t18.5 -61t10 -83t3 -111q0 -72 -4 -124t-15 -91t-28.5 -68.5t-44.5 -58.5 q-55 -59 -156.5 -91t-236.5 -32q-281 0 -393 146q-33 41 -47.5 98t-14.5 143zM408 438q0 -104 34.5 -148t114.5 -44q82 0 117 44t35 148t-35 149.5t-117 45.5q-80 0 -114.5 -45.5t-34.5 -149.5z" />
<glyph unicode="7" horiz-adv-x="993" d="M35 909v457h938v-238l-481 -1128h-336l469 1106h-115h-31q-86 0 -117.5 -31t-31.5 -108v-35v-23h-295z" />
<glyph unicode="8" horiz-adv-x="1114" d="M68 375q0 139 47 218t151 114q-98 43 -138 110.5t-40 186.5q0 113 32 185.5t99 117.5q125 86 336 86q213 0 336 -86q131 -90 131 -295q0 -123 -39 -190.5t-141 -114.5q106 -37 153 -115t47 -215q0 -205 -114.5 -304.5t-352.5 -99.5q-150 0 -242.5 25t-156.5 82 q-109 102 -108 295zM397 416q0 -186 156 -187q156 0 156 187q0 188 -156 188t-156 -188zM412 969q0 -72 38.5 -114t104.5 -42t103.5 42t37.5 114t-37.5 113.5t-103.5 41.5t-104.5 -42t-38.5 -113z" />
<glyph unicode="9" horiz-adv-x="1118" d="M82 940q0 63 4 112.5t13.5 86.5t25.5 66.5t39 56.5q113 131 407 131q291 0 396 -150q16 -23 27.5 -47.5t17.5 -56t8 -74.5t2 -104v-566v-55q-6 -367 -444 -367q-129 0 -244 26t-225 79v317h305v-20q0 -63 39 -100t104 -37q152 0 152 170v36v134q-76 -41 -134.5 -57.5 t-121.5 -16.5q-86 0 -163 27.5t-120 74.5q-27 27 -45.5 65t-28.5 79q-8 29 -11 76.5t-3 113.5zM414 942q0 -176 147 -176t148 180q0 184 -148 184q-78 0 -112.5 -45t-34.5 -143z" />
<glyph unicode=":" horiz-adv-x="487" d="M96 129q0 61 43 104t105 43q61 0 104 -43t43 -104q0 -59 -43 -103t-104 -44t-104.5 44t-43.5 103zM96 883q0 59 43.5 103t104.5 44t104 -44t43 -103q0 -61 -43 -104.5t-104 -43.5t-104.5 43t-43.5 105z" />
<glyph unicode=";" horiz-adv-x="487" d="M96 883q0 59 43.5 103t104.5 44t104 -44t43 -103q0 -61 -43 -104.5t-104 -43.5t-104.5 43t-43.5 105zM100 133q0 61 41 103.5t103 42.5q63 0 102 -44.5t39 -115.5q0 -84 -52 -160t-149 -131l-47 66q43 31 62.5 53t33.5 55q-59 6 -96 42t-37 89z" />
<glyph unicode="&#x3c;" d="M68 0v1366h684v-1366h-684zM82 14h655v1338h-655v-1338z" />
<glyph unicode="=" d="M68 0v1366h684v-1366h-684zM82 14h655v1338h-655v-1338z" />
<glyph unicode="&#x3e;" d="M68 0v1366h684v-1366h-684zM82 14h655v1338h-655v-1338z" />
<glyph unicode="?" horiz-adv-x="1085" d="M109 940v317q188 135 436 136q459 0 459 -383q0 -143 -52 -224q-20 -33 -54 -61.5t-103 -75.5l-90 -59q-41 -27 -65 -45.5t-35 -35.5t-14 -37.5t-3 -51.5h-303v86q0 47 4 81t15 59.5t29.5 46t49.5 42.5l166 119q45 33 73.5 54.5t43 39t19.5 33.5t5 37q0 55 -38 90t-99 35 q-94 0 -129 -72q-10 -20 -13 -42.5t-3 -74.5v-14h-299zM279 139q0 66 45.5 111t111.5 45t111 -45t45 -111t-45 -111.5t-111 -45.5t-111.5 46t-45.5 111z" />
<glyph unicode="@" d="M68 0v1366h684v-1366h-684zM82 14h655v1338h-655v-1338z" />
<glyph unicode="A" horiz-adv-x="1089" d="M27 0v223q35 10 50 37t29 94l199 1012h469l209 -1022q6 -33 13.5 -53.5t15.5 -33.5t19 -20.5t30 -13.5v-223h-465v223q72 4 72 64q0 4 -1 9t-5 23l-3 9l-10 57h-264l-12 -57q-2 -10 -3 -22.5t-1 -20.5q0 -57 75 -62v-223h-417zM422 582h186l-98 448z" />
<glyph unicode="B" horiz-adv-x="1161" d="M68 0v223q41 10 56 34t15 75v26v650v26q0 53 -15 74.5t-56 32.5v225h512h30q111 0 171.5 -12.5t111.5 -40.5q78 -45 119 -127t41 -189q0 -246 -195 -301q221 -49 221 -319q0 -111 -32.5 -193t-94.5 -125q-47 -35 -112.5 -47t-188.5 -12h-26h-557zM453 264h108h43 q86 2 123 40t37 124t-37 124t-123 38h-43h-108v-326zM453 823h110h27q82 0 117.5 34t35.5 106t-36.5 105.5t-116.5 33.5h-27h-110v-279z" />
<glyph unicode="C" horiz-adv-x="1081" d="M96 332v61v584v61q6 354 459 355q113 0 215 -21.5t229 -73.5v-385h-294v17q0 57 -4.5 80.5t-20.5 46.5q-20 29 -53 46t-70 17q-39 0 -71.5 -17.5t-51.5 -45.5q-16 -23 -20 -47.5t-4 -77.5v-23v-448q0 -37 1 -60.5t3 -39t7 -25.5t13 -23q43 -61 123 -61q39 0 72 16.5 t51 44.5q16 23 20.5 46.5t4.5 78.5v23v86h294v-467q-98 -49 -217.5 -78t-230.5 -29q-106 0 -195.5 26t-150.5 75q-109 84 -109 258z" />
<glyph unicode="D" horiz-adv-x="1144" d="M68 0v223q41 10 56 34t15 75v26v650v26q0 53 -15 74.5t-56 32.5v225h495h41q121 -2 194.5 -24.5t131.5 -73.5q63 -59 91 -139t28 -207v-43v-394v-41q0 -68 -6.5 -119t-20.5 -91.5t-36.5 -73.5t-55.5 -64q-59 -53 -133 -74.5t-193 -21.5h-41h-495zM453 268h86h30 q86 2 126 34t40 101v46v469v45q-2 72 -41 103.5t-125 31.5h-30h-86v-830z" />
<glyph unicode="E" horiz-adv-x="1116" d="M68 0v223q41 10 56 34t15 75v26v650v26q0 53 -15 74.5t-56 32.5v225h966v-422h-295v10q0 78 -27.5 111t-99.5 33h-24h-135v-275h381v-231h-381v-324h131h28q72 0 98.5 29t28.5 106v54h295v-457h-966z" />
<glyph unicode="F" horiz-adv-x="1062" d="M68 0v223q41 10 56 34t15 75v26v650v26q0 53 -15 74.5t-56 32.5v225h940v-422h-277v14q0 80 -31.5 109t-121.5 29h-125v-269h358v-233h-358v-236v-26q2 -53 16 -76t55 -33v-223h-456z" />
<glyph unicode="G" horiz-adv-x="1081" d="M96 332v61v584v61q6 354 459 355q229 0 444 -99v-362h-294v16q0 41 -5.5 64.5t-19.5 44.5q-18 29 -51 46t-72 17t-71.5 -17.5t-51.5 -45.5q-16 -23 -20 -47.5t-4 -77.5v-23v-448v-33q0 -43 5 -68.5t19 -46.5q18 -29 51 -45t72 -16t72 16.5t51 44.5q14 23 19.5 45.5 t5.5 69.5v6v68h-125v215h419v-615q-61 -37 -113 -61.5t-105.5 -39.5t-109 -21.5t-122.5 -6.5q-223 0 -338 91.5t-115 267.5z" />
<glyph unicode="H" horiz-adv-x="1202" d="M68 0v223q41 10 56 34t15 75v26v650v26q0 53 -15 76t-56 33v223h456v-223q-41 -10 -56 -34t-15 -75v-26v-189h297v189v26q-2 53 -16.5 76t-55.5 33v223h457v-223q-41 -10 -56.5 -34t-15.5 -75v-26v-650v-26q0 -53 15.5 -76t56.5 -33v-223h-457v223q41 10 56.5 34t15.5 75 v26v228h-297v-228v-26q2 -53 16 -76t55 -33v-223h-456z" />
<glyph unicode="I" horiz-adv-x="593" d="M68 0v223q41 10 56 34t15 75v26v650v26q0 53 -15 74.5t-56 32.5v225h456v-225q-41 -10 -56 -33t-15 -74v-26v-650v-26q2 -53 16 -76t55 -33v-223h-456z" />
<glyph unicode="J" horiz-adv-x="604" d="M14 23v202q16 -2 23 -2h16q55 0 79 25.5t26 87.5v33v20v619v26q-2 53 -16.5 76t-55.5 33v223h457v-223q-41 -10 -56.5 -34t-15.5 -75v-26v-670v-25q-2 -82 -11 -127t-38 -86q-73 -108 -233 -108h-3q-45 0 -87 7t-85 24z" />
<glyph unicode="K" horiz-adv-x="1116" d="M68 0v223q41 10 56 34t15 75v26v650v26q0 53 -15 76t-56 33v223h456v-223q-41 -10 -56 -34t-15 -75v-26v-238l149 231q25 37 38 59.5t19.5 44t7.5 47.5t1 69v14v131h385v-219q-16 -4 -29.5 -8t-26 -15.5t-24.5 -29t-31 -45.5l-182 -285l223 -422q16 -33 29.5 -53.5 t25 -33.5t23.5 -20.5t29 -11.5v-223h-426v129v14v52q0 27 -1 44t-6.5 33.5t-13.5 34t-22 45.5l-21 39l-147 271v-304v-26q2 -53 16 -76t55 -33v-223h-456z" />
<glyph unicode="L" horiz-adv-x="1048" d="M68 0v223q41 10 56 34t15 75v26v650v26q0 53 -15 74.5t-56 32.5v225h456v-225q-41 -10 -56 -33t-15 -74v-26v-740h127q78 0 107.5 25.5t29.5 91.5v35v198h278v-618h-927z" />
<glyph unicode="M" horiz-adv-x="1456" d="M68 0v223q41 10 56 34t15 75v26v650v26q0 53 -15 76t-56 33v223h516l155 -649l158 649h492v-223q-41 -10 -56.5 -34t-15.5 -75v-26v-650v-26q2 -53 16.5 -76t55.5 -33v-223h-457v223q41 10 56.5 34t15.5 75v26v537l-232 -895h-149l-224 895v-537v-26q0 -53 15.5 -76 t56.5 -33v-223h-403z" />
<glyph unicode="N" horiz-adv-x="1202" d="M68 0v223q41 10 56 34t15 75v26v650v26q0 53 -15 76t-56 33v223h358l350 -704v346v26q-2 53 -16.5 76t-54.5 33v223h434v-223q-41 -10 -56.5 -34t-15.5 -75v-26v-1008h-287l-354 717v-359v-26q2 -53 16.5 -76t55.5 -33v-223h-430z" />
<glyph unicode="O" horiz-adv-x="1114" d="M96 332v702q0 96 24.5 155.5t80.5 102.5q66 53 151.5 77t204.5 24q233 0 354 -101q57 -47 82 -106.5t25 -151.5v-702q-2 -96 -25.5 -155.5t-81.5 -104.5q-66 -51 -150.5 -75t-203.5 -24q-233 0 -356 99q-57 47 -81 107.5t-24 152.5zM410 434q0 -53 4 -77.5t20 -47.5 q20 -29 52 -46t71 -17t72 17.5t51 45.5q16 23 20.5 46.5t4.5 72.5v504q0 53 -4.5 77.5t-20.5 47.5q-20 29 -53 46t-70 17q-39 0 -71.5 -17.5t-51.5 -45.5q-16 -23 -20 -46.5t-4 -74.5v-502z" />
<glyph unicode="P" horiz-adv-x="1107" d="M68 0v223q41 10 56 34t15 75v26v650v26q0 53 -15 74.5t-56 32.5v225h534h45q119 -2 190.5 -27.5t125.5 -85.5q27 -31 47 -74.5t30 -86.5q12 -55 13 -193q0 -63 -2 -109.5t-7.5 -80t-13.5 -60t-22 -53.5q-29 -55 -79 -96t-110 -58q-41 -12 -79 -16t-103 -4h-33h-151v-64 v-26q2 -53 16 -76t55 -33v-223h-456zM453 715h120h19q84 0 115.5 39t31.5 139t-31.5 140t-115.5 40h-19h-120v-358z" />
<glyph unicode="Q" horiz-adv-x="1114" d="M96 332v61v580v61q0 96 24.5 155.5t80.5 102.5q66 53 151.5 77t204.5 24q233 0 354 -101q57 -47 82 -106.5t25 -151.5v-61v-580v-61q-2 -80 -17.5 -131t-50.5 -92q12 -10 37 -28t53 -34l-118 -203q-72 29 -140.5 69t-97.5 69q-33 -4 -64.5 -6.5t-66.5 -2.5 q-229 0 -352 99q-57 47 -81 107.5t-24 152.5zM410 434q0 -53 4 -77.5t20 -47.5q20 -29 52 -46t71 -17t72 17.5t51 45.5q16 23 20.5 46.5t4.5 72.5v27v454v23q0 53 -4.5 77.5t-20.5 47.5q-20 29 -53 46t-70 17q-39 0 -71.5 -17.5t-51.5 -45.5q-16 -23 -20 -46.5t-4 -74.5v-27 v-454v-21z" />
<glyph unicode="R" horiz-adv-x="1159" d="M68 0v223q41 10 56 34t15 75v26v650v26q0 53 -15 74.5t-56 32.5v225h532h47q100 -2 168 -19.5t115 -54.5q61 -47 94 -129t33 -188q0 -139 -51.5 -215t-165.5 -105q100 -16 144 -64q42 -46 42 -132v-8l-2 -109v-13q0 -43 12 -65q14 -24 49 -43v-221h-344q-16 43 -20 87 t-4 128v117v33q0 59 -3 81.5t-16 42.5q-16 31 -43.5 42.5t-85.5 11.5h-116v-185v-26q2 -53 16 -76t55 -33v-223h-456zM453 784h86h22q59 0 86 6.5t49 22.5q47 37 47 137q0 92 -40.5 126t-149.5 34h-18h-82v-326z" />
<glyph unicode="S" horiz-adv-x="1097" d="M82 129v346h313v-16q0 -53 4 -82t15 -51q16 -35 52 -54.5t83 -19.5q66 0 106.5 40t40.5 103q0 33 -9 57.5t-34.5 46t-69.5 43t-114 48.5q-49 18 -80 30.5t-52.5 21.5t-36.5 16.5t-32 17.5q-182 96 -182 317q0 193 123 298.5t346 105.5q123 0 239.5 -42t200.5 -114v-323 h-303v14v8l-2 37v7q0 66 -38 102q-40 38 -109 38q-63 0 -104.5 -35.5t-41.5 -89.5q0 -47 37 -78.5t125 -66.5l131 -49q92 -35 153.5 -73t100.5 -84t55.5 -105.5t16.5 -136.5q0 -203 -125 -318t-344 -115q-246 0 -465 156z" />
<glyph unicode="T" horiz-adv-x="1150" d="M41 811v555h1069v-555h-254v139q0 84 -28.5 120t-94.5 40v-752v-26q0 -53 15.5 -76t56.5 -33v-223h-457v223q41 10 56.5 34t15.5 75v26v752q-66 -4 -94.5 -40t-28.5 -120v-139h-256z" />
<glyph unicode="U" horiz-adv-x="1134" d="M55 1143v223h457v-223q-41 -10 -56.5 -33t-15.5 -76v-14v-12v-553v-21q0 -53 7.5 -80.5t25.5 -50.5q45 -49 115 -49q147 0 147 178v17v559v12v10q0 53 -15 78t-56 35v223h415v-223q-41 -10 -56 -34t-15 -75v-26v-476v-96q0 -57 -2 -98t-8.5 -73t-15.5 -56.5t-24 -48.5 q-53 -86 -152 -132t-235 -46q-211 0 -327.5 101t-116.5 284v79v562v26q-2 53 -16.5 76t-55.5 33z" />
<glyph unicode="V" horiz-adv-x="1089" d="M27 1143v223h467v-223q-72 -4 -72 -68v-16q0 -8 4 -19l6 -26l146 -682l135 688q8 41 8 59q0 61 -76 64v223h416v-223q-35 -12 -48.5 -32.5t-23.5 -72.5l-4 -18l-197 -1020h-471l-213 1028q-14 66 -28.5 87.5t-48.5 27.5z" />
<glyph unicode="W" horiz-adv-x="1572" d="M27 1143v223h456v-223h-12q-23 0 -39 -16.5t-16 -41.5q0 -6 1 -13t5 -23l4 -25l2 -20l98 -545l158 907h266l158 -907l90 555q0 6 2 10q6 33 6 53q0 61 -59 66v223h397v-223q-37 -6 -52 -32t-28 -103l-166 -1008h-370l-140 657l-116 -657h-381l-185 1022l-2 12l-6 31 q-16 72 -71 78z" />
<glyph unicode="X" horiz-adv-x="1026" d="M27 0v223q18 8 31.5 22.5t29.5 43.5l229 444l-190 338q-23 41 -35 54.5t-31 17.5v223h385v-104v-17v-26v-9q0 -18 2.5 -32.5t7.5 -29.5t13 -33.5t23 -43.5l59 -108l55 108q14 31 23.5 50.5t14.5 37t6 35.5t1 43v14v115h332v-223q-23 -8 -36 -21.5t-32 -50.5l-204 -395 l196 -359q45 -78 90 -94v-223h-407v160v14q0 53 -8.5 84t-34.5 76l-72 119l-74 -142q-12 -25 -19 -40t-11 -28.5t-5 -28.5t-1 -36v-20v-158h-338z" />
<glyph unicode="Y" horiz-adv-x="1048" d="M27 1147v219h407v-160v-37v-16v-6v-6q0 -43 27 -97l88 -184l90 182q8 18 14 33t9.5 29t4.5 31.5t1 44.5v39v147h354v-225q-25 -4 -42 -23.5t-40 -66.5l-10 -17l-250 -497v-175v-30q2 -53 16.5 -76t55.5 -33v-223h-457v223q41 10 56.5 34t15.5 75v24v168l-254 523 q-27 53 -44.5 73.5t-41.5 26.5z" />
<glyph unicode="Z" horiz-adv-x="1040" d="M55 0v201l527 905h-121h-35q-109 -2 -109 -131v-23v-47h-254v461h914v-203l-516 -891h92q92 0 125 29t33 102v25v21h274v-449h-930z" />
<glyph unicode="[" horiz-adv-x="718" d="M190 -188v1740h467v-178h-180v-1384h180v-178h-467z" />
<glyph unicode="\" horiz-adv-x="1024" d="M0 1454h272l752 -1544h-272z" />
<glyph unicode="]" horiz-adv-x="718" d="M61 -10h181v1384h-181v178h467v-1740h-467v178z" />
<glyph unicode="^" d="M68 0v1366h684v-1366h-684zM82 14h655v1338h-655v-1338z" />
<glyph unicode="_" horiz-adv-x="1024" d="M0 -274h1024v-197h-1024v197z" />
<glyph unicode="`" horiz-adv-x="565" d="M137 1374h213l78 -244h-129z" />
<glyph unicode="a" horiz-adv-x="989" d="M55 258q0 154 121 238q43 31 141 69q12 4 32 11.5t50 17.5q31 12 47.5 18t32.5 11l94 32q2 0 25 7v18q0 86 -22.5 122t-77.5 36q-47 0 -75 -28t-28 -75v-33v-18h-284v248q98 49 206.5 77.5t200.5 28.5q162 0 264 -75q53 -41 78 -89.5t25 -119.5v-37v-363v-16v-37 q0 -47 12 -65.5t49 -28.5v-207h-336v98q-82 -66 -143 -91t-139 -25q-127 0 -200 73.5t-73 202.5zM365 283q0 -35 21.5 -55.5t55.5 -20.5q33 0 75 25.5t81 66.5v166q-10 -4 -17.5 -8t-11.5 -6l-39 -19q-2 -2 -13 -6t-28 -14l-40 -21q-84 -45 -84 -108z" />
<glyph unicode="b" horiz-adv-x="1021" d="M45 1159v207h348v-410q74 41 128 57.5t120 16.5q72 0 131 -21.5t100 -62.5q80 -78 80 -229v-64v-295v-57q-2 -82 -26.5 -135t-79.5 -94q-125 -90 -318 -90q-53 0 -102 6t-98 20.5t-103.5 38t-118.5 57.5v906v22v31q0 45 -13 65.5t-48 30.5zM393 242q33 -25 63.5 -35 t71.5 -10q137 0 138 161v37v230v39q0 70 -36 108.5t-98 38.5q-37 0 -70.5 -12.5t-68.5 -34.5v-522z" />
<glyph unicode="c" horiz-adv-x="933" d="M68 285v51v311v23v43q0 150 104 233.5t293 83.5q215 0 399 -112v-283h-268v10v29q0 149 -119 149h-2q-121 0 -121 -149v-29v-278v-29q4 -150 121 -150q121 0 121 150v43v31h268v-318q-72 -53 -173 -82.5t-220 -29.5q-207 0 -315 96q-88 74 -88 207z" />
<glyph unicode="d" horiz-adv-x="1028" d="M68 289v436q0 152 82 227q41 37 98 57.5t123 20.5q57 0 112.5 -16.5t141.5 -57.5l2 -2v56v22v31q0 45 -12.5 65.5t-49.5 30.5v207h348v-1012v-20v-23q0 -51 13.5 -72.5t50.5 -31.5v-207h-350v66q-125 -84 -254 -84q-141 0 -232 86q-41 41 -57 88t-16 133zM354 334 q0 -133 125 -133q70 0 148 55v508q-41 27 -72 37t-66 10q-63 0 -99 -39t-36 -108v-39v-273v-18z" />
<glyph unicode="e" horiz-adv-x="950" d="M68 336v340q0 84 12 133t47 90q49 63 139 97t211 34q117 0 208 -34.5t144 -96.5q16 -18 26.5 -37.5t17 -44t8.5 -58.5t2 -83v-227h-529v-82v-25q0 -154 121 -154t121 144v8h287v-244q-191 -114 -402 -114h-4q-121 0 -211 33.5t-141 97.5q-16 20 -27.5 40.5t-17.5 46 t-9 58.5t-3 78zM354 627h242v18v29q0 149 -119 149h-2q-57 0 -89 -39t-32 -110v-29v-18z" />
<glyph unicode="f" horiz-adv-x="540" d="M57 0v207q20 6 32.5 13t20 20.5t9.5 36t2 57.5v31v432h-64v215h64v43q0 51 3 87t9 63.5t18.5 49t30.5 43.5q74 88 219 88q33 0 63 -3t77 -13v-205q-10 2 -16.5 3t-14.5 1q-55 0 -78.5 -32.5t-23.5 -108.5v-16h116v-215h-116v-443v-20q0 -35 2 -57.5t8 -36t18.5 -20.5 t32.5 -13v-207h-412z" />
<glyph unicode="g" horiz-adv-x="1028" d="M68 303v31v381v33q2 72 18 116.5t55 79.5q45 41 106.5 63.5t131.5 22.5q33 0 61.5 -4t57 -14.5t59.5 -27.5t70 -44v72h350v-207q-37 -10 -50.5 -30.5t-13.5 -65.5v-31v-21v-665v-45q0 -84 -19.5 -134.5t-66.5 -91.5q-55 -47 -137 -72.5t-180 -25.5q-102 0 -192.5 24.5 t-204.5 84.5v233h280q0 -131 117 -131t117 141v19v84q-78 -41 -136.5 -57.5t-117.5 -16.5q-145 0 -232 90q-41 41 -57 88t-16 121zM354 365q0 -39 6.5 -59.5t22.5 -39.5q39 -45 102 -45q33 0 67 11.5t75 37.5v484q-82 57 -144 57q-29 0 -56.5 -12.5t-43.5 -28.5 q-16 -18 -22.5 -39.5t-6.5 -60.5v-13v-16v-252v-24z" />
<glyph unicode="h" horiz-adv-x="1056" d="M51 0v207q41 12 52.5 33.5t11.5 93.5v20v656v22q0 70 -11.5 92.5t-52.5 34.5v207h348v-412l4 2l23 13q106 61 225 61q141 0 218 -74.5t77 -212.5v-34v-355v-51q0 -49 13.5 -68.5t54.5 -27.5v-207h-332l-11 49.5t-7 49t-3.5 58t-1.5 76.5v25v371v26q0 160 -127 160 q-63 0 -133 -49v-412v-20l2 -31q0 -49 10.5 -66.5t51.5 -29.5v-207h-412z" />
<glyph unicode="i" horiz-adv-x="520" d="M57 0v207q20 6 32.5 13t20 20.5t9.5 36t2 57.5v20v303v21q0 70 -11.5 92.5t-52.5 34.5v207h351v-658v-20q0 -35 2 -57.5t8 -36t18.5 -20.5t32.5 -13v-207h-412zM94 1227q0 66 47 114t115 48q66 0 113 -48t47 -114q0 -68 -47 -115t-113 -47q-68 0 -115 47t-47 115z" />
<glyph unicode="j" horiz-adv-x="520" d="M16 -152q10 -2 23 -2q43 0 67 35q8 14 10.5 31.5t2.5 58.5v15v671v21q0 37 -2 58.5t-8.5 34.5t-18.5 20.5t-33 13.5v207h349v-1035v-28q0 -49 -2.5 -84t-8.5 -60.5t-16 -45t-27 -40.5q-39 -47 -90 -66.5t-129 -19.5q-29 0 -53.5 1t-63.5 6v208zM92 1227q0 66 48 114 t114 48t114 -48t48 -114q0 -68 -48.5 -115t-113.5 -47q-66 0 -114 47t-48 115z" />
<glyph unicode="k" horiz-adv-x="972" d="M51 0v207q20 6 32.5 13t19 20.5t8.5 35t2 58.5v698v20q1 54 -9 72q-12 22 -53 35v207h348v-696l109 123q53 59 53 110v109h363v-201q-20 -4 -36 -11t-31 -18.5t-31.5 -30t-41.5 -44.5l-106 -121l133 -246q57 -106 135 -133v-207h-250q-16 16 -28.5 33.5t-34.5 52.5 q-12 16 -24.5 36.5t-26.5 43.5l-183 317v-149q0 -37 3.5 -58.5t9.5 -35t18 -20.5t33 -13v-207h-412z" />
<glyph unicode="l" horiz-adv-x="514" d="M51 0v207q20 6 32.5 13t19 20.5t8.5 36t2 57.5v20v656v22q0 35 -2 56.5t-8.5 35t-18.5 21.5t-33 14v207h348v-1012v-20q0 -35 2 -57.5t9.5 -36t19.5 -20.5t33 -13v-207h-412z" />
<glyph unicode="m" horiz-adv-x="1552" d="M57 0v207q37 10 49.5 30.5t14.5 65.5v31v20v303v21v22q0 51 -12.5 73t-51.5 32v207h340v-72q66 49 120 69.5t118 20.5q66 0 122 -23.5t113 -76.5q66 47 140.5 73.5t144.5 26.5q72 0 137.5 -29.5t106.5 -82.5q27 -33 37 -71t10 -93v-400v-55q0 -47 13.5 -65.5t49.5 -26.5 v-207h-327q-6 20 -11.5 36.5t-7.5 38t-3 50.5t-1 72v39v393q0 41 -3 66.5t-9 43.5q-27 66 -111 66q-29 0 -52 -6t-58 -29v-12v-29v-31v-26v-318v-55q0 -47 13 -65.5t50 -26.5v-207h-327q-12 39 -17.5 75t-5.5 101v47v406v28q2 147 -121 148q-25 0 -47 -6t-53 -23l-10 -6 v-416q0 -45 1 -70.5t7 -41t18 -22.5t35 -13v-207h-412z" />
<glyph unicode="n" horiz-adv-x="1062" d="M57 0v207q41 12 52.5 33.5t11.5 93.5v20v303v21q0 72 -11.5 93.5t-52.5 33.5v207h340v-68l4 2q76 47 131.5 65.5t124.5 18.5q141 0 218 -74.5t77 -212.5v-34v-355v-51q0 -49 14.5 -68.5t53.5 -27.5v-207h-330l-11 49.5t-8 49t-4 58t-1 76.5v25v352v27q1 16 1 30 q1 31 -3 47q-4 24 -15 42q-14 29 -44 44t-64 15q-61 0 -133 -53v-408v-20v-31q0 -49 11 -66.5t50 -29.5v-207h-412z" />
<glyph unicode="o" horiz-adv-x="950" d="M68 336v340q0 86 13 133t48 90q53 63 141 97t205 34t206 -33.5t140 -97.5q37 -43 49.5 -90t12.5 -133v-340q0 -86 -12.5 -133t-49.5 -90q-51 -63 -140 -97t-206 -34t-205 33.5t-141 97.5q-35 43 -48 90t-13 133zM354 338q4 -150 121 -150q121 0 121 150v29v278v29 q0 149 -119 149h-2q-57 0 -89 -39t-32 -110v-29v-278v-29z" />
<glyph unicode="p" horiz-adv-x="1028" d="M51 -147q41 12 52.5 34.5t11.5 92.5v22v655v23q0 70 -11.5 91.5t-52.5 33.5v207h350v-70l2 2l37 25q100 61 209 61q152 0 244 -96q35 -35 51.5 -82t16.5 -119v-45v-348v-53q-2 -84 -21.5 -136.5t-67.5 -95.5q-79 -73 -215 -73h-4q-31 0 -55.5 3t-51 10t-58 19.5 t-72.5 30.5l-15 8v-51v-25q0 -35 2.5 -55t8.5 -34.5t18 -21.5t33 -13v-207h-412v207zM401 246q72 -45 134 -45q68 0 106 45q18 23 25.5 49.5t7.5 75.5v35v251v27q-4 127 -127 127q-37 0 -69 -12.5t-77 -44.5v-508z" />
<glyph unicode="q" horiz-adv-x="1021" d="M68 287v53v348v43q0 82 18 129t64 88q92 82 229 82q66 0 119 -18.5t127 -67.5l4 -2v70h284v-1010v-22v-23q0 -51 13.5 -72.5t50.5 -31.5v-207h-412v207q35 10 48.5 30.5t15.5 65.5v31v22v51l-17 -8q-80 -37 -129 -50t-108 -13q-150 0 -232 86q-41 41 -58 91t-17 128z M354 371q0 -170 140 -170q57 0 135 45v508q-47 33 -79 45t-69 12q-59 0 -93 -34t-34 -93v-27v-251v-35z" />
<glyph unicode="r" horiz-adv-x="600" d="M57 0v207q20 6 32.5 13t20 20.5t9.5 36t2 57.5v20v303v21q0 72 -11.5 93.5t-52.5 33.5v207h336v-84l4 4q33 47 68 68.5t82 21.5q14 0 25.5 -3t27.5 -7v-295q-16 2 -25.5 3t-21.5 1q-145 0 -145 -168v-31v-168v-20q0 -37 2 -58.5t8 -35t18.5 -20.5t32.5 -13v-207h-412z " />
<glyph unicode="s" horiz-adv-x="901" d="M55 57v275h281v-15q0 -68 24.5 -96t79.5 -28q43 0 71 25.5t28 66.5q0 23 -7.5 40t-27 31.5t-52 27.5t-83.5 30q-49 14 -86 27.5t-63.5 24.5t-46 22.5t-36.5 23.5q-82 68 -82 199q0 152 103.5 235.5t290.5 83.5q82 0 161.5 -18.5t184.5 -59.5l30 -12v-256h-264v10 q0 125 -104 125q-43 0 -70 -26.5t-27 -67.5q0 -53 48 -82q12 -6 22 -12t27.5 -12.5t45 -14.5t70.5 -22q94 -29 139.5 -49.5t73.5 -49.5q59 -66 60 -188q0 -317 -377 -318q-47 0 -92 4.5t-94.5 13.5t-104.5 24.5t-123 37.5z" />
<glyph unicode="t" horiz-adv-x="526" d="M41 797v215h53v188l287 84v-272h117v-215h-117v-426v-21q2 -141 98 -141h10t13 2v-203q-37 -10 -70 -16t-67 -6q-174 0 -242 137q-16 33 -22.5 74t-6.5 125v24v451h-53z" />
<glyph unicode="u" horiz-adv-x="1062" d="M43 805v207h332l11 -49.5t7 -48t3 -58.5t1 -78v-24v-353v-26q0 -53 3 -77t14 -42q33 -59 108 -59q63 0 133 53v407v21l2 33q-2 47 -13 64.5t-50 29.5v207h348v-658v-20q0 -37 3 -58.5t9.5 -35t18.5 -20.5t33 -13v-207h-340v68q-127 -86 -260 -86q-141 0 -218 74.5 t-77 211.5v35v354v54q0 47 -14.5 67.5t-53.5 26.5z" />
<glyph unicode="v" horiz-adv-x="935" d="M14 805v207h404v-207q-43 -8 -43 -51q0 -16 6 -41l2 -8l100 -373l97 373q6 27 8 37t2 20q0 31 -37 43v207h371v-207q-29 -8 -41.5 -25.5t-26.5 -66.5l-205 -713h-358l-221 739q-10 35 -20.5 47.5t-37.5 18.5z" />
<glyph unicode="w" horiz-adv-x="1361" d="M14 805v207h402v-207q-23 -8 -32 -18.5t-9 -32.5q0 -14 4 -35l4 -17l61 -288l162 598h178l146 -598l71 305q6 25 7 39q0 33 -37 47v207h377v-207q-33 -10 -46.5 -25.5t-25.5 -60.5l-197 -719h-272l-94 334q-4 20 -14.5 61t-20.5 88q-10 -45 -20.5 -88t-14.5 -61l-92 -334 h-268l-205 719q-14 47 -24.5 61.5t-39.5 24.5z" />
<glyph unicode="x" horiz-adv-x="905" d="M27 0v207q14 4 26.5 15t34.5 38l207 244l-193 246q-23 29 -34 39t-27 16v207h352v-144q0 -25 8.5 -44t30.5 -48l49 -65l54 69q12 16 20 27.5t11 23t4 23.5t1 31v127h283v-207q-39 -10 -74 -55l-176 -213l199 -277q20 -29 35.5 -40t38.5 -13v-207h-355v121q0 27 -2 45 t-10 36.5t-24.5 40t-43.5 56.5q-4 4 -9 11t-13 18l-21 -27q-25 -33 -40 -55.5t-23 -41t-11 -36.5t-3 -43v-125h-295z" />
<glyph unicode="y" horiz-adv-x="931" d="M14 805v207h400v-207q-41 -8 -41 -43q0 -8 2 -23.5t6 -27.5l102 -387l99 397q4 10 4 16v17q0 37 -37 51v207h371v-207q-29 -10 -41.5 -29.5t-28.5 -73.5l-191 -686q-29 -102 -62.5 -172.5t-76.5 -114.5t-98 -63.5t-127 -19.5q-25 0 -45.5 2t-54.5 8v219q6 -2 14 -2 q47 0 74.5 22.5t46.5 69.5l-250 756q-16 43 -27.5 58.5t-38.5 25.5z" />
<glyph unicode="z" horiz-adv-x="942" d="M55 0v197l469 618h-84h-16q-72 0 -99.5 -26.5t-27.5 -90.5v-14h-242v328h832v-178l-484 -637h64h27q82 2 116.5 32.5t34.5 102.5v16h242v-348h-832z" />
<glyph unicode="{" d="M68 0v1366h684v-1366h-684zM82 14h655v1338h-655v-1338z" />
<glyph unicode="|" d="M68 0v1366h684v-1366h-684zM82 14h655v1338h-655v-1338z" />
<glyph unicode="}" d="M68 0v1366h684v-1366h-684zM82 14h655v1338h-655v-1338z" />
<glyph unicode="~" d="M68 0v1366h684v-1366h-684zM82 14h655v1338h-655v-1338z" />
<glyph unicode="&#xa1;" horiz-adv-x="628" d="M137 143q0 16 2 36t6 59q4 20 5 20l90 690h151l88 -690l4 -20q6 -39 8.5 -58.5t2.5 -36.5q0 -72 -50.5 -116.5t-128.5 -44.5t-128 45t-50 116zM158 1227q0 66 46 110.5t111 44.5q66 0 111 -45t45 -110q0 -66 -45 -112t-111 -46t-111.5 46t-45.5 112z" />
<glyph unicode="&#xa2;" horiz-adv-x="987" d="M96 475v51v312v22v43q0 250 273 305v92h268v-94q137 -25 256 -98v-283h-268v11v28q-4 150 -123 150t-119 -150v-28v-279v-29q0 -150 121 -149q57 0 89 39t32 110v43v31h268v-317q-53 -39 -113.5 -62.5t-142.5 -38.5v-92h-268v92q-272 49 -273 291z" />
<glyph unicode="&#xa3;" horiz-adv-x="1134" d="M96 0v223q41 10 55.5 34t14.5 83v18v224h-70v233h70v88v47q0 78 6 120t23 81q51 119 163.5 182.5t274.5 63.5q113 0 212 -31t208 -98v-336h-279v16q0 35 -3 55.5t-11 36.5q-16 37 -53 57.5t-84 20.5q-152 0 -152 -188v-115h387v-233h-387v-322h143h25q121 0 121 113v20 h293v-393h-957z" />
<glyph unicode="&#xa4;" d="M68 0v1366h684v-1366h-684zM82 14h655v1338h-655v-1338z" />
<glyph unicode="&#xa5;" horiz-adv-x="1157" d="M82 485v138h293l-53 106h-240v137h174l-90 181q-29 57 -44.5 75.5t-39.5 22.5v221h403v-160v-37q0 -35 7.5 -62.5t23.5 -62.5l86 -178l88 176q8 18 14.5 31.5t8.5 28t3 33t1 45.5v39v147h358v-225q-23 -4 -41 -24.5t-41 -65.5l-92 -185h174v-137h-244l-53 -106h297v-138 h-340v-123v-30q2 -53 16.5 -76t55.5 -33v-223h-457v223q41 10 56.5 34t15.5 75v24v129h-340z" />
<glyph unicode="&#xa7;" d="M68 0v1366h684v-1366h-684zM82 14h655v1338h-655v-1338z" />
<glyph unicode="&#xa8;" horiz-adv-x="856" d="M137 1255q0 47 34 81t83 34t83 -34t34 -83q0 -47 -34 -81.5t-83 -34.5t-83 34.5t-34 83.5zM485 1249q0 49 34 83t83 34t83 -34t34 -83t-34 -84t-83 -35q-47 0 -82 35t-35 84z" />
<glyph unicode="&#xa9;" d="M68 0v1366h684v-1366h-684zM82 14h655v1338h-655v-1338z" />
<glyph unicode="&#xaa;" d="M68 0v1366h684v-1366h-684zM82 14h655v1338h-655v-1338z" />
<glyph unicode="&#xab;" horiz-adv-x="669" d="M96 524l107 269h162l-109 -269l109 -268h-162zM305 524l109 269h161l-108 -269l108 -268h-161z" />
<glyph unicode="&#xac;" d="M68 0v1366h684v-1366h-684zM82 14h655v1338h-655v-1338z" />
<glyph unicode="&#xad;" horiz-adv-x="684" d="M96 434v197h492v-197h-492z" />
<glyph unicode="&#xae;" d="M68 0v1366h684v-1366h-684zM82 14h655v1338h-655v-1338z" />
<glyph unicode="&#xaf;" d="M68 0v1366h684v-1366h-684zM82 14h655v1338h-655v-1338z" />
<glyph unicode="&#xb0;" d="M68 0v1366h684v-1366h-684zM82 14h655v1338h-655v-1338z" />
<glyph unicode="&#xb1;" d="M68 0v1366h684v-1366h-684zM82 14h655v1338h-655v-1338z" />
<glyph unicode="&#xb4;" horiz-adv-x="565" d="M137 1130l78 244h213l-160 -244h-131z" />
<glyph unicode="&#xb6;" d="M68 0v1366h684v-1366h-684zM82 14h655v1338h-655v-1338z" />
<glyph unicode="&#xb7;" horiz-adv-x="487" d="M96 696q0 61 43.5 104.5t104.5 43.5t104 -43t43 -105q0 -61 -43 -104t-104 -43t-104.5 43t-43.5 104z" />
<glyph unicode="&#xb8;" d="M68 0v1366h684v-1366h-684zM82 14h655v1338h-655v-1338z" />
<glyph unicode="&#xba;" d="M68 0v1366h684v-1366h-684zM82 14h655v1338h-655v-1338z" />
<glyph unicode="&#xbb;" horiz-adv-x="669" d="M96 256l107 268l-107 269h160l109 -269l-109 -268h-160zM305 256l109 268l-109 269h162l108 -269l-108 -268h-162z" />
<glyph unicode="&#xbf;" horiz-adv-x="1085" d="M82 365q0 143 51 223q23 33 55.5 61.5t102.5 75.5l92 61q39 27 62.5 44.5t36 35t15.5 38t3 50.5h303v-20v-66q0 -63 -5 -94t-22 -59q-16 -33 -59 -66l-180 -129q-45 -33 -73 -54.5t-43 -38.5t-20.5 -33.5t-5.5 -37.5q0 -55 39 -90t101 -35q94 0 127 72q10 20 13 43t3 74 v14h299v-317q-92 -66 -201.5 -100.5t-234.5 -34.5q-459 0 -459 383zM494 1235q0 66 46 112t111 46q66 0 111 -46.5t45 -111.5q0 -66 -45 -111t-111 -45t-111.5 45t-45.5 111z" />
<glyph unicode="&#xc0;" horiz-adv-x="1089" d="M27 0v223q35 10 50 37t29 94l199 1012h469l209 -1022q6 -33 13.5 -53.5t15.5 -33.5t19 -20.5t30 -13.5v-223h-465v223q72 4 72 64q0 4 -1 9t-5 23l-3 9l-10 57h-264l-12 -57q-2 -10 -3 -22.5t-1 -20.5q0 -57 75 -62v-223h-417zM315 1736h213l78 -244h-129zM422 582h186 l-98 448z" />
<glyph unicode="&#xc1;" horiz-adv-x="1089" d="M27 0v223q35 10 50 37t29 94l199 1012h469l209 -1022q6 -33 13.5 -53.5t15.5 -33.5t19 -20.5t30 -13.5v-223h-465v223q72 4 72 64q0 4 -1 9t-5 23l-3 9l-10 57h-264l-12 -57q-2 -10 -3 -22.5t-1 -20.5q0 -57 75 -62v-223h-417zM422 582h186l-98 448zM456 1492l78 244h213 l-160 -244h-131z" />
<glyph unicode="&#xc2;" horiz-adv-x="1089" d="M27 0v223q35 10 50 37t29 94l199 1012h469l209 -1022q6 -33 13.5 -53.5t15.5 -33.5t19 -20.5t30 -13.5v-223h-465v223q72 4 72 64q0 4 -1 9t-5 23l-3 9l-10 57h-264l-12 -57q-2 -10 -3 -22.5t-1 -20.5q0 -57 75 -62v-223h-417zM282 1495l160 242h205l155 -242h-163 l-101 156l-96 -156h-160zM422 582h186l-98 448z" />
<glyph unicode="&#xc3;" horiz-adv-x="1089" d="M27 0v223q35 10 50 37t29 94l199 1012h469l209 -1022q6 -33 13.5 -53.5t15.5 -33.5t19 -20.5t30 -13.5v-223h-465v223q72 4 72 64q0 4 -1 9t-5 23l-3 9l-10 57h-264l-12 -57q-2 -10 -3 -22.5t-1 -20.5q0 -57 75 -62v-223h-417zM262 1526q8 88 48 136.5t112 48.5 q20 0 45 -5.5t66 -19.5t63.5 -19.5t38.5 -5.5q47 0 61 43h127q-18 -182 -151 -182q-10 0 -20.5 1t-27 5t-40 9.5t-58.5 15.5q-29 10 -45 12t-30 2q-45 0 -60 -41h-129zM422 582h186l-98 448z" />
<glyph unicode="&#xc4;" horiz-adv-x="1089" d="M27 0v223q35 10 50 37t29 94l199 1012h469l209 -1022q6 -33 13.5 -53.5t15.5 -33.5t19 -20.5t30 -13.5v-223h-465v223q72 4 72 64q0 4 -1 9t-5 23l-3 9l-10 57h-264l-12 -57q-2 -10 -3 -22.5t-1 -20.5q0 -57 75 -62v-223h-417zM248 1622q0 47 34 81t83 34t83 -34t34 -83 q0 -47 -34 -81.5t-83 -34.5t-83 34.5t-34 83.5zM422 582h186l-98 448zM596 1616q0 49 34 83t83 34t83 -34t34 -83t-34 -84t-83 -35q-47 0 -82 35t-35 84z" />
<glyph unicode="&#xc5;" horiz-adv-x="1089" d="M27 0v223q35 10 50 37t29 94l199 1012h469l209 -1022q6 -33 13.5 -53.5t15.5 -33.5t19 -20.5t30 -13.5v-223h-465v223q72 4 72 64q0 4 -1 9t-5 23l-3 9l-10 57h-264l-12 -57q-2 -10 -3 -22.5t-1 -20.5q0 -57 75 -62v-223h-417zM370 1615q0 72 48 121t120 49 q35 0 65.5 -13t54.5 -36.5t37 -54.5t13 -68q0 -70 -49 -119t-121 -49q-70 0 -119 49.5t-49 120.5zM422 582h186l-98 448zM469 1615q0 -29 20 -50t49 -21t49.5 21t20.5 50t-20.5 49.5t-49.5 20.5t-49 -20.5t-20 -49.5z" />
<glyph unicode="&#xc6;" horiz-adv-x="1685" d="M27 0v223q35 10 52 27.5t38 71.5l420 1044h1067v-422h-297v10q0 78 -28 111t-99 33h-25h-117v-275h363v-231h-363v-324h142q72 0 98.5 29t28.5 106v54h297v-457h-951v223q39 8 55.5 33t16.5 76v26v19h-297l-22 -55q-10 -23 -12.5 -31t-2.5 -19q0 -39 47 -49v-223h-411z M512 582h213v524z" />
<glyph unicode="&#xc7;" horiz-adv-x="1081" d="M96 340v84v57v406v61q0 76 1 110t7 64q23 131 137.5 201t313.5 70q113 0 215 -21.5t229 -73.5v-385h-294v17q0 57 -4.5 80.5t-20.5 46.5q-20 29 -53 46t-70 17q-39 0 -71.5 -17.5t-51.5 -45.5q-16 -23 -20 -47.5t-4 -71.5v-61v-21v-395v-31q0 -47 4 -70.5t20 -46.5 q18 -29 51 -45t72 -16t72 16.5t51 44.5q16 23 20.5 46.5t4.5 78.5v23v86h294v-467q-86 -43 -191.5 -71.5t-201.5 -33.5v-53h15q74 0 100 -53q8 -16 10 -36.5t2 -59.5q0 -35 -3 -54.5t-13 -35.5q-18 -29 -54 -45.5t-83 -16.5q-78 0 -142 35v119h113v-13q2 -37 7 -49t22 -12 q27 0 26 41v18v19v12q0 27 -8 35t-33 8h-14h-59v141h-7q-117 10 -204.5 51.5t-133.5 106.5q-18 29 -31.5 68t-17.5 86q-2 18 -2 53z" />
<glyph unicode="&#xc8;" horiz-adv-x="1116" d="M68 0v223q41 10 56 34t15 75v26v650v26q0 53 -15 74.5t-56 32.5v225h966v-422h-295v10q0 78 -27.5 111t-99.5 33h-24h-135v-275h381v-231h-381v-324h131h28q72 0 98.5 29t28.5 106v54h295v-457h-966zM336 1736h213l78 -244h-129z" />
<glyph unicode="&#xc9;" horiz-adv-x="1116" d="M68 0v223q41 10 56 34t15 75v26v650v26q0 53 -15 74.5t-56 32.5v225h966v-422h-295v10q0 78 -27.5 111t-99.5 33h-24h-135v-275h381v-231h-381v-324h131h28q72 0 98.5 29t28.5 106v54h295v-457h-966zM471 1519l78 244h213l-160 -244h-131z" />
<glyph unicode="&#xca;" horiz-adv-x="1116" d="M68 0v223q41 10 56 34t15 75v26v650v26q0 53 -15 74.5t-56 32.5v225h966v-422h-295v10q0 78 -27.5 111t-99.5 33h-24h-135v-275h381v-231h-381v-324h131h28q72 0 98.5 29t28.5 106v54h295v-457h-966zM282 1495l160 242h205l155 -242h-163l-101 156l-96 -156h-160z" />
<glyph unicode="&#xcb;" horiz-adv-x="1116" d="M68 0v223q41 10 56 34t15 75v26v650v26q0 53 -15 74.5t-56 32.5v225h966v-422h-295v10q0 78 -27.5 111t-99.5 33h-24h-135v-275h381v-231h-381v-324h131h28q72 0 98.5 29t28.5 106v54h295v-457h-966zM254 1617q0 47 34 81t83 34t83 -34t34 -83q0 -47 -34 -81.5t-83 -34.5 t-83 34.5t-34 83.5zM602 1611q0 49 34 83t83 34t83 -34t34 -83t-34 -84t-83 -35q-47 0 -82 35t-35 84z" />
<glyph unicode="&#xcc;" horiz-adv-x="593" d="M68 0v223q41 10 56 34t15 75v26v650v26q0 53 -15 74.5t-56 32.5v225h456v-225q-41 -10 -56 -33t-15 -74v-26v-650v-26q2 -53 16 -76t55 -33v-223h-456zM69 1730h213l78 -244h-129z" />
<glyph unicode="&#xcd;" horiz-adv-x="593" d="M68 0v223q41 10 56 34t15 75v26v650v26q0 53 -15 74.5t-56 32.5v225h456v-225q-41 -10 -56 -33t-15 -74v-26v-650v-26q2 -53 16 -76t55 -33v-223h-456zM231 1492l78 244h213l-160 -244h-131z" />
<glyph unicode="&#xce;" horiz-adv-x="593" d="M37 1495l160 242h204l156 -242h-164l-100 156l-96 -156h-160zM68 0v223q41 10 56 34t15 75v26v650v26q0 53 -15 74.5t-56 32.5v225h456v-225q-41 -10 -56 -33t-15 -74v-26v-650v-26q2 -53 16 -76t55 -33v-223h-456z" />
<glyph unicode="&#xcf;" horiz-adv-x="593" d="M4 1618q0 47 34 81t83 34t83 -34t34 -83q0 -47 -34 -82t-83 -35t-83 35t-34 84zM63 0v223q41 10 56.5 34t15.5 75v26v650v26q0 53 -15.5 74.5t-56.5 32.5v225h457v-225q-41 -10 -56 -33t-15 -74v-26v-650v-26q2 -53 16 -76t55 -33v-223h-457zM352 1612q0 49 34 83t83 34 t83 -34t34 -83t-34 -84t-83 -35q-47 0 -82 35t-35 84z" />
<glyph unicode="&#xd1;" horiz-adv-x="1202" d="M68 0v223q41 10 56 34t15 75v26v650v26q0 53 -15 76t-56 33v223h358l350 -704v346v26q-2 53 -16.5 76t-54.5 33v223h434v-223q-41 -10 -56.5 -34t-15.5 -75v-26v-1008h-287l-354 717v-359v-26q2 -53 16.5 -76t55.5 -33v-223h-430zM321 1526q8 88 48 136.5t112 48.5 q20 0 45 -5.5t66 -19.5t63.5 -19.5t38.5 -5.5q47 0 61 43h127q-18 -182 -151 -182q-10 0 -20.5 1t-27 5t-40 9.5t-58.5 15.5q-29 10 -45 12t-30 2q-45 0 -60 -41h-129z" />
<glyph unicode="&#xd2;" horiz-adv-x="1114" d="M96 332v702q0 96 24.5 155.5t80.5 102.5q66 53 151.5 77t204.5 24q233 0 354 -101q57 -47 82 -106.5t25 -151.5v-702q-2 -96 -25.5 -155.5t-81.5 -104.5q-66 -51 -150.5 -75t-203.5 -24q-233 0 -356 99q-57 47 -81 107.5t-24 152.5zM321 1736h213l78 -244h-129zM410 434 q0 -53 4 -77.5t20 -47.5q20 -29 52 -46t71 -17t72 17.5t51 45.5q16 23 20.5 46.5t4.5 72.5v504q0 53 -4.5 77.5t-20.5 47.5q-20 29 -53 46t-70 17q-39 0 -71.5 -17.5t-51.5 -45.5q-16 -23 -20 -46.5t-4 -74.5v-502z" />
<glyph unicode="&#xd3;" horiz-adv-x="1114" d="M96 332v702q0 96 24.5 155.5t80.5 102.5q66 53 151.5 77t204.5 24q233 0 354 -101q57 -47 82 -106.5t25 -151.5v-702q-2 -96 -25.5 -155.5t-81.5 -104.5q-66 -51 -150.5 -75t-203.5 -24q-233 0 -356 99q-57 47 -81 107.5t-24 152.5zM410 434q0 -53 4 -77.5t20 -47.5 q20 -29 52 -46t71 -17t72 17.5t51 45.5q16 23 20.5 46.5t4.5 72.5v504q0 53 -4.5 77.5t-20.5 47.5q-20 29 -53 46t-70 17q-39 0 -71.5 -17.5t-51.5 -45.5q-16 -23 -20 -46.5t-4 -74.5v-502zM487 1492l78 244h213l-160 -244h-131z" />
<glyph unicode="&#xd4;" horiz-adv-x="1114" d="M96 332v702q0 96 24.5 155.5t80.5 102.5q66 53 151.5 77t204.5 24q233 0 354 -101q57 -47 82 -106.5t25 -151.5v-702q-2 -96 -25.5 -155.5t-81.5 -104.5q-66 -51 -150.5 -75t-203.5 -24q-233 0 -356 99q-57 47 -81 107.5t-24 152.5zM299 1495l160 242h205l155 -242h-163 l-101 156l-96 -156h-160zM410 434q0 -53 4 -77.5t20 -47.5q20 -29 52 -46t71 -17t72 17.5t51 45.5q16 23 20.5 46.5t4.5 72.5v504q0 53 -4.5 77.5t-20.5 47.5q-20 29 -53 46t-70 17q-39 0 -71.5 -17.5t-51.5 -45.5q-16 -23 -20 -46.5t-4 -74.5v-502z" />
<glyph unicode="&#xd5;" horiz-adv-x="1114" d="M96 332v702q0 96 24.5 155.5t80.5 102.5q66 53 151.5 77t204.5 24q233 0 354 -101q57 -47 82 -106.5t25 -151.5v-702q-2 -96 -25.5 -155.5t-81.5 -104.5q-66 -51 -150.5 -75t-203.5 -24q-233 0 -356 99q-57 47 -81 107.5t-24 152.5zM276 1526q8 88 48 136.5t112 48.5 q20 0 45 -5.5t66 -19.5t63.5 -19.5t38.5 -5.5q47 0 61 43h127q-18 -182 -151 -182q-10 0 -20.5 1t-27 5t-40 9.5t-58.5 15.5q-29 10 -45 12t-30 2q-45 0 -60 -41h-129zM410 434q0 -53 4 -77.5t20 -47.5q20 -29 52 -46t71 -17t72 17.5t51 45.5q16 23 20.5 46.5t4.5 72.5v504 q0 53 -4.5 77.5t-20.5 47.5q-20 29 -53 46t-70 17q-39 0 -71.5 -17.5t-51.5 -45.5q-16 -23 -20 -46.5t-4 -74.5v-502z" />
<glyph unicode="&#xd6;" horiz-adv-x="1114" d="M96 332v702q0 96 24.5 155.5t80.5 102.5q66 53 151.5 77t204.5 24q233 0 354 -101q57 -47 82 -106.5t25 -151.5v-702q-2 -96 -25.5 -155.5t-81.5 -104.5q-66 -51 -150.5 -75t-203.5 -24q-233 0 -356 99q-57 47 -81 107.5t-24 152.5zM268 1617q0 47 34 81t83 34t83 -34 t34 -83q0 -47 -34 -81.5t-83 -34.5t-83 34.5t-34 83.5zM410 434q0 -53 4 -77.5t20 -47.5q20 -29 52 -46t71 -17t72 17.5t51 45.5q16 23 20.5 46.5t4.5 72.5v504q0 53 -4.5 77.5t-20.5 47.5q-20 29 -53 46t-70 17q-39 0 -71.5 -17.5t-51.5 -45.5q-16 -23 -20 -46.5t-4 -74.5 v-502zM616 1611q0 49 34 83t83 34t83 -34t34 -83t-34 -84t-83 -35q-47 0 -82 35t-35 84z" />
<glyph unicode="&#xd8;" horiz-adv-x="1114" d="M84 -2l66 131q-53 72 -54 203v61v580v61q2 96 26.5 155.5t80.5 102.5q127 100 350 101q109 0 199 -21l51 107l225 -109l-63 -131q55 -70 55 -205v-61v-580v-61q-2 -96 -26.5 -155.5t-80.5 -104.5q-125 -98 -352 -99q-57 0 -105 5.5t-94 17.5l-53 -109zM410 434 q0 -53 5 -77.5t19 -47.5q20 -29 53 -46t70 -17q39 0 72 17.5t53 45.5q14 23 19.5 46.5t5.5 72.5v27v454v23q0 53 -5.5 77.5t-19.5 47.5q-20 29 -53 46t-72 17q-37 0 -69.5 -17.5t-53.5 -45.5q-14 -23 -19 -45.5t-5 -73.5v-29v-454v-21z" />
<glyph unicode="&#xd9;" horiz-adv-x="1134" d="M55 1143v223h457v-223q-41 -10 -56.5 -33t-15.5 -76v-14v-12v-553v-21q0 -53 7.5 -80.5t25.5 -50.5q45 -49 115 -49q147 0 147 178v17v559v12v10q0 53 -15 78t-56 35v223h415v-223q-41 -10 -56 -34t-15 -75v-26v-476v-96q0 -57 -2 -98t-8.5 -73t-15.5 -56.5t-24 -48.5 q-53 -86 -152 -132t-235 -46q-211 0 -327.5 101t-116.5 284v79v562v26q-2 53 -16.5 76t-55.5 33zM364 1736h213l78 -244h-129z" />
<glyph unicode="&#xda;" horiz-adv-x="1134" d="M55 1143v223h457v-223q-41 -10 -56.5 -33t-15.5 -76v-14v-12v-553v-21q0 -53 7.5 -80.5t25.5 -50.5q45 -49 115 -49q147 0 147 178v17v559v12v10q0 53 -15 78t-56 35v223h415v-223q-41 -10 -56 -34t-15 -75v-26v-476v-96q0 -57 -2 -98t-8.5 -73t-15.5 -56.5t-24 -48.5 q-53 -86 -152 -132t-235 -46q-211 0 -327.5 101t-116.5 284v79v562v26q-2 53 -16.5 76t-55.5 33zM495 1492l78 244h213l-160 -244h-131z" />
<glyph unicode="&#xdb;" horiz-adv-x="1134" d="M55 1143v223h457v-223q-41 -10 -56.5 -33t-15.5 -76v-14v-12v-553v-21q0 -53 7.5 -80.5t25.5 -50.5q45 -49 115 -49q147 0 147 178v17v559v12v10q0 53 -15 78t-56 35v223h415v-223q-41 -10 -56 -34t-15 -75v-26v-476v-96q0 -57 -2 -98t-8.5 -73t-15.5 -56.5t-24 -48.5 q-53 -86 -152 -132t-235 -46q-211 0 -327.5 101t-116.5 284v79v562v26q-2 53 -16.5 76t-55.5 33zM311 1495l160 242h205l155 -242h-163l-101 156l-96 -156h-160z" />
<glyph unicode="&#xdc;" horiz-adv-x="1134" d="M55 1143v223h457v-223q-41 -10 -56.5 -33t-15.5 -76v-14v-12v-553v-21q0 -53 7.5 -80.5t25.5 -50.5q45 -49 115 -49q147 0 147 178v17v559v12v10q0 53 -15 78t-56 35v223h415v-223q-41 -10 -56 -34t-15 -75v-26v-476v-96q0 -57 -2 -98t-8.5 -73t-15.5 -56.5t-24 -48.5 q-53 -86 -152 -132t-235 -46q-211 0 -327.5 101t-116.5 284v79v562v26q-2 53 -16.5 76t-55.5 33zM276 1617q0 47 34 81t83 34t83 -34t34 -83q0 -47 -34 -81.5t-83 -34.5t-83 34.5t-34 83.5zM624 1611q0 49 34 83t83 34t83 -34t34 -83t-34 -84t-83 -35q-47 0 -82 35t-35 84z " />
<glyph unicode="&#xdf;" horiz-adv-x="987" d="M55 0v207q20 6 32.5 13t19 20.5t8.5 35t2 58.5v20v654v26q0 94 19.5 148.5t72.5 101.5q106 98 319 98q199 0 292 -82.5t93 -259.5q0 -123 -43 -186t-149 -94q57 -14 95 -36t60.5 -53.5t33 -78.5t10.5 -115v-141q0 -49 -3.5 -84t-9.5 -61.5t-16 -48t-27 -44.5 q-41 -57 -92 -77.5t-151 -20.5h-33h-90v197h14q66 0 89.5 28.5t23.5 108.5v33v104v29q-2 82 -29 114.5t-98 36.5v178q37 2 61.5 11.5t38.5 29t20.5 53t6.5 85.5q0 92 -25 127.5t-84 35.5q-78 0 -102 -65q-6 -16 -8.5 -37.5t-2.5 -75.5v-993h-348z" />
<glyph unicode="&#xe0;" horiz-adv-x="989" d="M55 258q0 154 121 238q43 31 141 69q12 4 32 11.5t50 17.5q31 12 47.5 18t32.5 11l94 32q2 0 25 7v18q0 86 -22.5 122t-77.5 36q-47 0 -75 -28t-28 -75v-33v-18h-284v248q98 49 206.5 77.5t200.5 28.5q162 0 264 -75q53 -41 78 -89.5t25 -119.5v-37v-363v-16v-37 q0 -47 12 -65.5t49 -28.5v-207h-336v98q-82 -66 -143 -91t-139 -25q-127 0 -200 73.5t-73 202.5zM299 1374h213l78 -244h-129zM365 283q0 -35 21.5 -55.5t55.5 -20.5q33 0 75 25.5t81 66.5v166q-10 -4 -17.5 -8t-11.5 -6l-39 -19q-2 -2 -13 -6t-28 -14l-40 -21 q-84 -45 -84 -108z" />
<glyph unicode="&#xe1;" horiz-adv-x="989" d="M55 258q0 154 121 238q43 31 141 69q12 4 32 11.5t50 17.5q31 12 47.5 18t32.5 11l94 32q2 0 25 7v18q0 86 -22.5 122t-77.5 36q-47 0 -75 -28t-28 -75v-33v-18h-284v248q98 49 206.5 77.5t200.5 28.5q162 0 264 -75q53 -41 78 -89.5t25 -119.5v-37v-363v-16v-37 q0 -47 12 -65.5t49 -28.5v-207h-336v98q-82 -66 -143 -91t-139 -25q-127 0 -200 73.5t-73 202.5zM365 283q0 -35 21.5 -55.5t55.5 -20.5q33 0 75 25.5t81 66.5v166q-10 -4 -17.5 -8t-11.5 -6l-39 -19q-2 -2 -13 -6t-28 -14l-40 -21q-84 -45 -84 -108zM456 1130l78 244h213 l-160 -244h-131z" />
<glyph unicode="&#xe2;" horiz-adv-x="989" d="M55 258q0 154 121 238q43 31 141 69q12 4 32 11.5t50 17.5q31 12 47.5 18t32.5 11l94 32q2 0 25 7v18q0 86 -22.5 122t-77.5 36q-47 0 -75 -28t-28 -75v-33v-18h-284v248q98 49 206.5 77.5t200.5 28.5q162 0 264 -75q53 -41 78 -89.5t25 -119.5v-37v-363v-16v-37 q0 -47 12 -65.5t49 -28.5v-207h-336v98q-82 -66 -143 -91t-139 -25q-127 0 -200 73.5t-73 202.5zM250 1130l160 242h205l155 -242h-163l-101 156l-96 -156h-160zM365 283q0 -35 21.5 -55.5t55.5 -20.5q33 0 75 25.5t81 66.5v166q-10 -4 -17.5 -8t-11.5 -6l-39 -19 q-2 -2 -13 -6t-28 -14l-40 -21q-84 -45 -84 -108z" />
<glyph unicode="&#xe3;" horiz-adv-x="989" d="M55 258q0 154 121 238q43 31 141 69q12 4 32 11.5t50 17.5q31 12 47.5 18t32.5 11l94 32q2 0 25 7v18q0 86 -22.5 122t-77.5 36q-47 0 -75 -28t-28 -75v-33v-18h-284v248q98 49 206.5 77.5t200.5 28.5q162 0 264 -75q53 -41 78 -89.5t25 -119.5v-37v-363v-16v-37 q0 -47 12 -65.5t49 -28.5v-207h-336v98q-82 -66 -143 -91t-139 -25q-127 0 -200 73.5t-73 202.5zM246 1161q8 88 48 136.5t112 48.5q20 0 45 -5.5t66 -19.5t63.5 -19.5t38.5 -5.5q47 0 61 43h127q-18 -182 -151 -182q-10 0 -20.5 1t-27 5t-40 9.5t-58.5 15.5q-29 10 -45 12 t-30 2q-45 0 -60 -41h-129zM365 283q0 -35 21.5 -55.5t55.5 -20.5q33 0 75 25.5t81 66.5v166q-10 -4 -17.5 -8t-11.5 -6l-39 -19q-2 -2 -13 -6t-28 -14l-40 -21q-84 -45 -84 -108z" />
<glyph unicode="&#xe4;" horiz-adv-x="989" d="M55 258q0 154 121 238q43 31 141 69q12 4 32 11.5t50 17.5q31 12 47.5 18t32.5 11l94 32q2 0 25 7v18q0 86 -22.5 122t-77.5 36q-47 0 -75 -28t-28 -75v-33v-18h-284v248q98 49 206.5 77.5t200.5 28.5q162 0 264 -75q53 -41 78 -89.5t25 -119.5v-37v-363v-16v-37 q0 -47 12 -65.5t49 -28.5v-207h-336v98q-82 -66 -143 -91t-139 -25q-127 0 -200 73.5t-73 202.5zM196 1255q0 47 34 81t83 34t83 -34t34 -83q0 -47 -34 -81.5t-83 -34.5t-83 34.5t-34 83.5zM365 283q0 -35 21.5 -55.5t55.5 -20.5q33 0 75 25.5t81 66.5v166q-10 -4 -17.5 -8 t-11.5 -6l-39 -19q-2 -2 -13 -6t-28 -14l-40 -21q-84 -45 -84 -108zM544 1249q0 49 34 83t83 34t83 -34t34 -83t-34 -84t-83 -35q-47 0 -82 35t-35 84z" />
<glyph unicode="&#xe5;" horiz-adv-x="989" d="M55 258q0 154 121 238q43 31 141 69q12 4 32 11.5t50 17.5q31 12 47.5 18t32.5 11l94 32q2 0 25 7v18q0 86 -22.5 122t-77.5 36q-47 0 -75 -28t-28 -75v-33v-18h-284v248q98 49 206.5 77.5t200.5 28.5q162 0 264 -75q53 -41 78 -89.5t25 -119.5v-37v-363v-16v-37 q0 -47 12 -65.5t49 -28.5v-207h-336v98q-82 -66 -143 -91t-139 -25q-127 0 -200 73.5t-73 202.5zM336 1253q0 72 48 121t120 49q35 0 65.5 -13t54.5 -36.5t37 -54.5t13 -68q0 -70 -49 -119t-121 -49q-70 0 -119 49.5t-49 120.5zM365 283q0 -35 21.5 -55.5t55.5 -20.5 q33 0 75 25.5t81 66.5v166q-10 -4 -17.5 -8t-11.5 -6l-39 -19q-2 -2 -13 -6t-28 -14l-40 -21q-84 -45 -84 -108zM435 1253q0 -29 20 -50t49 -21t49.5 21t20.5 50t-20.5 49.5t-49.5 20.5t-49 -20.5t-20 -49.5z" />
<glyph unicode="&#xe6;" horiz-adv-x="1474" d="M55 262q0 162 129 240q53 33 150 71q10 4 19 7.5t24.5 9.5t37 14t56.5 21q37 12 62.5 21t60.5 24v24v8v9q0 125 -105 125q-98 0 -98 -121l2 -31h-289v246q63 31 117.5 51t104 32.5t97.5 17.5t99 5q72 0 124 -12t110 -45q53 29 108.5 40t130.5 11q121 0 214.5 -32.5 t146.5 -94.5q49 -57 49 -158v-301h-524v-133q0 -53 32.5 -87t85.5 -34q121 0 121 150h285v-246q-59 -31 -107.5 -52.5t-95.5 -34.5t-96 -18t-107 -5q-123 0 -206.5 30.5t-149.5 100.5q-86 -70 -161.5 -100.5t-155.5 -30.5q-125 0 -198 74.5t-73 203.5zM360 289 q0 -35 23 -56.5t57 -21.5q63 0 154 86v170l-33 -14l-82 -41q-66 -33 -92.5 -59.5t-26.5 -63.5zM877 627h241v18v29q0 150 -121 149q-57 0 -88.5 -39t-31.5 -110v-29v-18z" />
<glyph unicode="&#xe7;" horiz-adv-x="933" d="M68 285v51v311v23v43q0 150 104 233.5t293 83.5q215 0 399 -112v-283h-268v10v29q0 150 -121 149q-121 0 -121 -149v-29v-278v-29q4 -150 121 -150q121 0 121 150v43v31h268v-318q-66 -49 -158 -77.5t-198 -32.5h-6v-54h10q59 0 81.5 -29.5t22.5 -105.5q0 -31 -3 -48 t-11 -32q-16 -27 -50 -42t-75 -15q-68 0 -127 33v106h101q2 -41 6 -54t20 -13q25 0 25 39v16v16v11q0 25 -7.5 31.5t-29.5 6.5h-14h-52v136q-164 16 -247.5 92t-83.5 207z" />
<glyph unicode="&#xe8;" horiz-adv-x="950" d="M68 336v340q0 84 12 133t47 90q49 63 139 97t211 34q117 0 208 -34.5t144 -96.5q16 -18 26.5 -37.5t17 -44t8.5 -58.5t2 -83v-227h-529v-82v-25q0 -154 121 -154t121 144v8h287v-244q-193 -115 -406 -114q-121 0 -211 33.5t-141 97.5q-16 20 -27.5 40.5t-17.5 46t-9 58.5 t-3 78zM260 1374h213l78 -244h-129zM354 627h242v18v29q0 150 -121 149q-57 0 -89 -39t-32 -110v-29v-18z" />
<glyph unicode="&#xe9;" horiz-adv-x="950" d="M68 336v340q0 84 12 133t47 90q49 63 139 97t211 34q117 0 208 -34.5t144 -96.5q16 -18 26.5 -37.5t17 -44t8.5 -58.5t2 -83v-227h-529v-82v-25q0 -154 121 -154t121 144v8h287v-244q-193 -115 -406 -114q-121 0 -211 33.5t-141 97.5q-16 20 -27.5 40.5t-17.5 46t-9 58.5 t-3 78zM354 627h242v18v29q0 150 -121 149q-57 0 -89 -39t-32 -110v-29v-18zM407 1130l78 244h213l-160 -244h-131z" />
<glyph unicode="&#xea;" horiz-adv-x="950" d="M68 336v340q0 84 12 133t47 90q49 63 139 97t211 34q117 0 208 -34.5t144 -96.5q16 -18 26.5 -37.5t17 -44t8.5 -58.5t2 -83v-227h-529v-82v-25q0 -154 121 -154t121 144v8h287v-244q-193 -115 -406 -114q-121 0 -211 33.5t-141 97.5q-16 20 -27.5 40.5t-17.5 46t-9 58.5 t-3 78zM223 1130l160 242h205l155 -242h-163l-101 156l-96 -156h-160zM354 627h242v18v29q0 150 -121 149q-57 0 -89 -39t-32 -110v-29v-18z" />
<glyph unicode="&#xeb;" horiz-adv-x="950" d="M68 336v340q0 84 12 133t47 90q49 63 139 97t211 34q117 0 208 -34.5t144 -96.5q16 -18 26.5 -37.5t17 -44t8.5 -58.5t2 -83v-227h-529v-82v-25q0 -154 121 -154t121 144v8h287v-244q-193 -115 -406 -114q-121 0 -211 33.5t-141 97.5q-16 20 -27.5 40.5t-17.5 46t-9 58.5 t-3 78zM186 1247q0 47 34 81t83 34t83 -34t34 -83q0 -47 -34 -81.5t-83 -34.5t-83 34.5t-34 83.5zM354 627h242v18v29q0 150 -121 149q-57 0 -89 -39t-32 -110v-29v-18zM534 1241q0 49 34 83t83 34t83 -34t34 -83t-34 -84t-83 -35q-47 0 -82 35t-35 84z" />
<glyph unicode="&#xec;" horiz-adv-x="520" d="M12 0v207q41 12 52.5 29.5t11.5 66.5v31v20v303v21v33q0 47 -11.5 64.5t-52.5 29.5v207h351v-658v-20v-31q0 -49 11 -66.5t50 -29.5v-207h-412zM12 1374h213l78 -244h-129z" />
<glyph unicode="&#xed;" horiz-adv-x="520" d="M55 0v207q41 12 52.5 29.5t11.5 66.5v31v20v303v21v33q0 47 -11.5 64.5t-52.5 29.5v207h351v-658v-20v-31q0 -49 11 -66.5t50 -29.5v-207h-412zM178 1130l78 244h213l-160 -244h-131z" />
<glyph unicode="&#xee;" horiz-adv-x="520" d="M2 0v207q41 12 52.5 29.5t11.5 66.5v31v20v303v21v33q0 47 -11.5 64.5t-52.5 29.5v207h351v-658v-20v-31q0 -49 11 -66.5t50 -29.5v-207h-412zM2 1136l160 242h205l155 -242h-163l-101 156l-96 -156h-160z" />
<glyph unicode="&#xef;" horiz-adv-x="520" d="M-35 1249q0 47 34 81t83 34t83 -34t34 -83q0 -47 -34 -82t-83 -35t-83 35t-34 84zM66 0v207q41 12 52 29.5t11 66.5v31v20v303v21v33q0 47 -11.5 64.5t-51.5 29.5v207h350v-658v-20v-31q0 -49 11 -66.5t50 -29.5v-207h-411zM313 1243q0 49 34 83t83 34t83 -34t34 -83 t-34 -84t-83 -35q-47 0 -82 35t-35 84z" />
<glyph unicode="&#xf1;" horiz-adv-x="1062" d="M57 0v207q41 12 52.5 33.5t11.5 93.5v20v303v21q0 72 -11.5 93.5t-52.5 33.5v207h340v-68l4 2q76 47 131.5 65.5t124.5 18.5q141 0 218 -74.5t77 -212.5v-34v-355v-51q0 -49 14.5 -68.5t53.5 -27.5v-207h-330l-11 49.5t-8 49t-4 58t-1 76.5v25v352v27q2 53 -2.5 76.5 t-14.5 42.5q-14 29 -44 44t-64 15q-61 0 -133 -53v-408v-20v-31q0 -49 11 -66.5t50 -29.5v-207h-412zM233 1161q8 88 48 136.5t112 48.5q20 0 45 -5.5t66 -19.5t63.5 -19.5t38.5 -5.5q47 0 61 43h127q-18 -182 -151 -182q-10 0 -20.5 1t-27 5t-40 9.5t-58.5 15.5 q-29 10 -45 12t-30 2q-45 0 -60 -41h-129z" />
<glyph unicode="&#xf2;" horiz-adv-x="950" d="M68 336v340q0 86 13 133t48 90q53 63 141 97t205 34t206 -33.5t140 -97.5q37 -43 49.5 -90t12.5 -133v-340q0 -86 -12.5 -133t-49.5 -90q-51 -63 -140 -97t-206 -34t-205 33.5t-141 97.5q-35 43 -48 90t-13 133zM256 1374h213l78 -244h-129zM354 338q4 -150 121 -150 q121 0 121 150v29v278v29q0 150 -121 149q-57 0 -89 -39t-32 -110v-29v-278v-29z" />
<glyph unicode="&#xf3;" horiz-adv-x="950" d="M68 336v340q0 86 13 133t48 90q53 63 141 97t205 34t206 -33.5t140 -97.5q37 -43 49.5 -90t12.5 -133v-340q0 -86 -12.5 -133t-49.5 -90q-51 -63 -140 -97t-206 -34t-205 33.5t-141 97.5q-35 43 -48 90t-13 133zM354 338q4 -150 121 -150q121 0 121 150v29v278v29 q0 150 -121 149q-57 0 -89 -39t-32 -110v-29v-278v-29zM409 1130l78 244h213l-160 -244h-131z" />
<glyph unicode="&#xf4;" horiz-adv-x="950" d="M68 336v340q0 86 13 133t48 90q53 63 141 97t205 34t206 -33.5t140 -97.5q37 -43 49.5 -90t12.5 -133v-340q0 -86 -12.5 -133t-49.5 -90q-51 -63 -140 -97t-206 -34t-205 33.5t-141 97.5q-35 43 -48 90t-13 133zM235 1130l160 242h205l155 -242h-163l-101 156l-96 -156 h-160zM354 338q4 -150 121 -150q121 0 121 150v29v278v29q0 150 -121 149q-57 0 -89 -39t-32 -110v-29v-278v-29z" />
<glyph unicode="&#xf5;" horiz-adv-x="950" d="M68 336v340q0 86 13 133t48 90q53 63 141 97t205 34t206 -33.5t140 -97.5q37 -43 49.5 -90t12.5 -133v-340q0 -86 -12.5 -133t-49.5 -90q-51 -63 -140 -97t-206 -34t-205 33.5t-141 97.5q-35 43 -48 90t-13 133zM215 1161q8 88 48 136.5t112 48.5q20 0 45 -5.5t66 -19.5 t63.5 -19.5t38.5 -5.5q47 0 61 43h127q-18 -182 -151 -182q-10 0 -20.5 1t-27 5t-40 9.5t-58.5 15.5q-29 10 -45 12t-30 2q-45 0 -60 -41h-129zM354 338q4 -150 121 -150q121 0 121 150v29v278v29q0 150 -121 149q-57 0 -89 -39t-32 -110v-29v-278v-29z" />
<glyph unicode="&#xf6;" horiz-adv-x="950" d="M68 336v340q0 86 13 133t48 90q53 63 141 97t205 34t206 -33.5t140 -97.5q37 -43 49.5 -90t12.5 -133v-340q0 -86 -12.5 -133t-49.5 -90q-51 -63 -140 -97t-206 -34t-205 33.5t-141 97.5q-35 43 -48 90t-13 133zM182 1255q0 47 34 81t83 34t83 -34t34 -83 q0 -47 -34 -81.5t-83 -34.5t-83 34.5t-34 83.5zM354 338q4 -150 121 -150q121 0 121 150v29v278v29q0 150 -121 149q-57 0 -89 -39t-32 -110v-29v-278v-29zM530 1249q0 49 34 83t83 34t83 -34t34 -83t-34 -84t-83 -35q-47 0 -82 35t-35 84z" />
<glyph unicode="&#xf7;" d="M68 0v1366h684v-1366h-684zM82 14h655v1338h-655v-1338z" />
<glyph unicode="&#xf8;" horiz-adv-x="950" d="M68 336v340q0 86 13 133t48 90q53 63 141 97t205 34q41 0 77 -4t75 -14l37 69l190 -100l-39 -74q20 -23 32.5 -45t21 -48t11.5 -59.5t3 -78.5v-340q0 -86 -12.5 -133t-49.5 -90q-51 -66 -140 -98.5t-206 -32.5q-76 0 -141 16h-4l-37 -66l-189 101l35 67q-41 45 -56 95.5 t-15 140.5zM354 338q4 -150 121 -150q121 0 121 150v29v278v29q0 150 -121 149q-57 0 -89 -39t-32 -110v-29v-278v-29z" />
<glyph unicode="&#xf9;" horiz-adv-x="1062" d="M43 805v207h332l11 -49.5t7 -48t3 -58.5t1 -78v-24v-353v-26q0 -53 3 -77t14 -42q33 -59 108 -59q63 0 133 53v407v21l2 33q-2 47 -13 64.5t-50 29.5v207h348v-658v-20q0 -37 3 -58.5t9.5 -35t18.5 -20.5t33 -13v-207h-340v68q-127 -86 -260 -86q-141 0 -218 74.5 t-77 211.5v35v354v54q0 47 -14.5 67.5t-53.5 26.5zM284 1374h213l78 -244h-129z" />
<glyph unicode="&#xfa;" horiz-adv-x="1062" d="M43 805v207h332l11 -49.5t7 -48t3 -58.5t1 -78v-24v-353v-26q0 -53 3 -77t14 -42q33 -59 108 -59q63 0 133 53v407v21l2 33q-2 47 -13 64.5t-50 29.5v207h348v-658v-20q0 -37 3 -58.5t9.5 -35t18.5 -20.5t33 -13v-207h-340v68q-127 -86 -260 -86q-141 0 -218 74.5 t-77 211.5v35v354v54q0 47 -14.5 67.5t-53.5 26.5zM438 1126l78 244h213l-160 -244h-131z" />
<glyph unicode="&#xfb;" horiz-adv-x="1062" d="M43 805v207h332l11 -49.5t7 -48t3 -58.5t1 -78v-24v-353v-26q0 -53 3 -77t14 -42q33 -59 108 -59q63 0 133 53v407v21l2 33q-2 47 -13 64.5t-50 29.5v207h348v-658v-20q0 -37 3 -58.5t9.5 -35t18.5 -20.5t33 -13v-207h-340v68q-127 -86 -260 -86q-141 0 -218 74.5 t-77 211.5v35v354v54q0 47 -14.5 67.5t-53.5 26.5zM248 1130l160 242h205l155 -242h-163l-101 156l-96 -156h-160z" />
<glyph unicode="&#xfc;" horiz-adv-x="1062" d="M43 805v207h332l11 -49.5t7 -48t3 -58.5t1 -78v-24v-353v-26q0 -53 3 -77t14 -42q33 -59 108 -59q63 0 133 53v407v21l2 33q-2 47 -13 64.5t-50 29.5v207h348v-658v-20q0 -37 3 -58.5t9.5 -35t18.5 -20.5t33 -13v-207h-340v68q-127 -86 -260 -86q-141 0 -218 74.5 t-77 211.5v35v354v54q0 47 -14.5 67.5t-53.5 26.5zM217 1255q0 47 34 81t83 34t83 -34t34 -83q0 -47 -34 -81.5t-83 -34.5t-83 34.5t-34 83.5zM565 1249q0 49 34 83t83 34t83 -34t34 -83t-34 -84t-83 -35q-47 0 -82 35t-35 84z" />
<glyph unicode="&#xff;" horiz-adv-x="931" d="M14 805v207h400v-207q-41 -8 -41 -43q0 -8 2 -23.5t6 -27.5l102 -387l99 397q4 10 4 16v17q0 37 -37 51v207h371v-207q-29 -10 -41.5 -29.5t-28.5 -73.5l-191 -686q-29 -102 -62.5 -172.5t-76.5 -114.5t-98 -63.5t-127 -19.5q-25 0 -45.5 2t-54.5 8v219q6 -2 14 -2 q47 0 74.5 22.5t46.5 69.5l-250 756q-16 43 -27.5 58.5t-38.5 25.5zM182 1255q0 47 34 81t83 34t83 -34t34 -83q0 -47 -34 -81.5t-83 -34.5t-83 34.5t-34 83.5zM530 1249q0 49 34 83t83 34t83 -34t34 -83t-34 -84t-83 -35q-47 0 -82 35t-35 84z" />
<glyph unicode="&#x152;" horiz-adv-x="1650" d="M96 444v41v394v43q0 129 27 207.5t92 138.5q57 53 131 75.5t193 22.5h43h987v-422h-295v10q0 78 -28.5 111t-100.5 33h-25h-116v-275h362v-231h-362v-324h143q72 0 97.5 29t27.5 106q2 29 2 37v17h295v-457h-987h-43q-121 0 -193 21.5t-131 74.5q-33 31 -55.5 64 t-36.5 74.5t-20.5 93t-6.5 116.5zM410 403q2 -72 40.5 -103.5t124.5 -31.5h31h84v830h-84h-31q-86 -2 -125.5 -34t-39.5 -101v-45v-469v-46z" />
<glyph unicode="&#x153;" horiz-adv-x="1478" d="M68 285v51v340v51q2 80 25.5 132t74.5 91q47 37 128 58.5t171 21.5q162 0 272 -61q57 29 127 45t148 16q98 0 183 -25.5t134 -68.5q80 -74 80 -209v-51v-227h-528v-82v-29q0 -78 28.5 -114t92.5 -36q121 0 120 144v8h287v-248q-109 -59 -203 -84.5t-204 -25.5 q-78 0 -141.5 14t-123.5 43q-109 -57 -262 -57q-410 0 -409 303zM354 338q0 -150 121 -150q63 0 92 35t29 113v31v278v29q0 150 -121 149q-121 0 -121 -149v-29v-278v-29zM883 627h241v18v29q0 150 -120 149q-121 0 -121 -149v-29v-18z" />
<glyph unicode="&#x178;" horiz-adv-x="1048" d="M27 1147v219h407v-160v-37v-16v-6v-6q0 -43 27 -97l88 -184l90 182q8 18 14 33t9.5 29t4.5 31.5t1 44.5v39v147h354v-225q-25 -4 -42 -23.5t-40 -66.5l-10 -17l-250 -497v-175v-30q2 -53 16.5 -76t55.5 -33v-223h-457v223q41 10 56.5 34t15.5 75v24v168l-254 523 q-27 53 -44.5 73.5t-41.5 26.5zM231 1617q0 47 34 81t83 34t83 -34t34 -83q0 -47 -34 -81.5t-83 -34.5t-83 34.5t-34 83.5zM579 1611q0 49 34 83t83 34t83 -34t34 -83t-34 -84t-83 -35q-47 0 -82 35t-35 84z" />
<glyph unicode="&#x2c6;" horiz-adv-x="792" d="M137 1130l160 242h205l155 -242h-163l-101 156l-96 -156h-160z" />
<glyph unicode="&#x2dc;" horiz-adv-x="833" d="M137 1161q8 88 48 136.5t112 48.5q20 0 45 -5.5t66 -19.5t63.5 -19.5t38.5 -5.5q47 0 61 43h127q-18 -182 -151 -182q-10 0 -20.5 1t-27 5t-40 9.5t-58.5 15.5q-29 10 -45 12t-30 2q-45 0 -60 -41h-129z" />
<glyph unicode="&#x2000;" horiz-adv-x="892" />
<glyph unicode="&#x2001;" horiz-adv-x="1785" />
<glyph unicode="&#x2002;" horiz-adv-x="892" />
<glyph unicode="&#x2003;" horiz-adv-x="1785" />
<glyph unicode="&#x2004;" horiz-adv-x="595" />
<glyph unicode="&#x2005;" horiz-adv-x="446" />
<glyph unicode="&#x2006;" horiz-adv-x="297" />
<glyph unicode="&#x2007;" horiz-adv-x="297" />
<glyph unicode="&#x2008;" horiz-adv-x="223" />
<glyph unicode="&#x2009;" horiz-adv-x="357" />
<glyph unicode="&#x200a;" horiz-adv-x="99" />
<glyph unicode="&#x2010;" horiz-adv-x="684" d="M96 434v197h492v-197h-492z" />
<glyph unicode="&#x2011;" horiz-adv-x="684" d="M96 434v197h492v-197h-492z" />
<glyph unicode="&#x2012;" horiz-adv-x="684" d="M96 434v197h492v-197h-492z" />
<glyph unicode="&#x2013;" horiz-adv-x="1175" d="M96 434v197h985v-197h-985z" />
<glyph unicode="&#x2014;" horiz-adv-x="2238" d="M96 434v197h2048v-197h-2048z" />
<glyph unicode="&#x2018;" horiz-adv-x="487" d="M115 1130q0 74 48 142.5t134 120.5l43 -60q-39 -27 -57.5 -48t-28.5 -50q53 -4 85 -37t32 -80q0 -57 -37 -94t-90 -37q-59 0 -94 39t-35 104z" />
<glyph unicode="&#x2019;" horiz-adv-x="487" d="M115 1262q0 57 36.5 94t92.5 37q57 0 92 -39t35 -105q0 -74 -47.5 -142.5t-133.5 -119.5l-43 60q37 27 55.5 48t30.5 50q-53 4 -85.5 36.5t-32.5 80.5z" />
<glyph unicode="&#x201a;" d="M68 0v1366h684v-1366h-684zM82 14h655v1338h-655v-1338z" />
<glyph unicode="&#x201c;" horiz-adv-x="811" d="M115 1130q0 74 48 142.5t134 120.5l43 -60q-39 -27 -57.5 -48t-28.5 -50q53 -4 85 -37t32 -80q0 -57 -37 -94t-90 -37q-59 0 -94 39t-35 104zM440 1130q0 74 47.5 142.5t133.5 120.5l43 -60q-37 -27 -56.5 -48t-29.5 -50q53 -4 85.5 -37t32.5 -80q0 -57 -36.5 -94 t-92.5 -37q-57 0 -92 39t-35 104z" />
<glyph unicode="&#x201d;" horiz-adv-x="811" d="M115 1262q0 57 36.5 94t92.5 37q57 0 92 -39t35 -105q0 -74 -47.5 -142.5t-133.5 -119.5l-43 60q37 27 55.5 48t30.5 50q-53 4 -85.5 36.5t-32.5 80.5zM440 1262q0 57 36 94t91 37q57 0 93 -39t36 -105q0 -74 -48 -142.5t-134 -119.5l-43 60q39 27 57.5 48t28.5 50 q-53 4 -85 36.5t-32 80.5z" />
<glyph unicode="&#x201e;" horiz-adv-x="811" d="M115 125q0 55 36.5 93t92.5 38q57 0 92 -39t35 -104q0 -74 -47.5 -143.5t-133.5 -119.5l-43 58q37 29 55.5 49t30.5 49q-53 4 -85.5 37t-32.5 82zM440 125q0 55 36 93t91 38q57 0 93 -39t36 -104q0 -74 -48 -143.5t-134 -119.5l-43 58q39 29 57.5 49t28.5 49 q-53 4 -85 37t-32 82z" />
<glyph unicode="&#x2022;" horiz-adv-x="634" d="M96 692q0 45 17.5 85t47 71t69.5 48t87 17q45 0 86 -17t71 -48t47.5 -71t17.5 -85q0 -47 -17.5 -87t-47.5 -69.5t-71 -47t-86 -17.5q-47 0 -87 17.5t-69.5 47t-47 69.5t-17.5 87z" />
<glyph unicode="&#x2026;" horiz-adv-x="2048" d="M195 129q0 61 43 104t104 43q59 0 103 -43t44 -104q0 -59 -44 -103t-103 -44q-61 0 -104 44t-43 103zM877 129q0 61 43 104t104 43t104 -43t43 -104q0 -59 -43 -103t-104 -44t-104 44t-43 103zM1559 129q0 61 44 104t103 43q61 0 104 -43t43 -104q0 -59 -43 -103 t-104 -44q-59 0 -103 44t-44 103z" />
<glyph unicode="&#x202f;" horiz-adv-x="357" />
<glyph unicode="&#x2039;" horiz-adv-x="458" d="M96 524l107 269h162l-109 -269l109 -268h-162z" />
<glyph unicode="&#x203a;" horiz-adv-x="458" d="M96 256l107 268l-107 269h160l109 -269l-109 -268h-160z" />
<glyph unicode="&#x205f;" horiz-adv-x="446" />
<glyph unicode="&#x20ac;" horiz-adv-x="1114" d="M-49 514v123h186v96h-186v123h186v182q0 354 459 355q113 0 215 -21.5t229 -73.5v-372h-288q0 33 -1 69.5t-22 65.5q-20 29 -54 44t-73 15q-41 0 -73.5 -17.5t-53.5 -45.5q-16 -23 -20 -47.5t-4 -77.5v-76h493v-123h-493v-96h397v-123h-397v-53q0 -37 1 -60.5t3 -39 t7 -25.5t13 -23q45 -61 127 -61q41 0 74 15.5t53 43.5q20 29 21.5 64t1.5 69h288v-112q0 -358 -448 -359q-106 0 -195.5 26t-150.5 75q-109 84 -109 258v182h-186z" />
<glyph unicode="&#x2122;" d="M68 0v1366h684v-1366h-684zM82 14h655v1338h-655v-1338z" />
<glyph unicode="&#x25fc;" horiz-adv-x="1013" d="M0 0v1014h1014v-1014h-1014z" />
<glyph unicode="&#xfb01;" horiz-adv-x="1042" d="M57 0v207q20 6 32.5 13t20 20.5t9.5 36t2 57.5v31v432h-64v215h64v43q0 51 3 87t9 63.5t18.5 49t30.5 43.5q74 88 219 88q33 0 63 -3t77 -13v-205q-10 2 -16.5 3t-14.5 1q-55 0 -78.5 -32.5t-23.5 -108.5v-16h520v-658v-20q0 -35 2 -57.5t9 -36t19.5 -20.5t32.5 -13v-207 h-411v207q20 6 32.5 13t18.5 20.5t8 36t2 57.5v20v293v23q0 55 -4 73.5t-21 32.5q-12 12 -28.5 16.5t-48.5 4.5h-131v-443v-20q0 -35 2 -57.5t8 -36t18.5 -20.5t32.5 -13v-207h-412zM614 1227q0 66 47.5 114t114.5 48q66 0 114 -48t48 -114q0 -68 -48 -114t-114 -46 q-68 0 -115 46t-47 114z" />
<glyph unicode="&#xfb02;" horiz-adv-x="1042" d="M57 0v207q20 6 32.5 13t20 20.5t9.5 36t2 57.5v31v432h-64v215h64v43q0 51 3 87t9 63.5t18.5 49t30.5 43.5q74 88 219 88q41 0 77 -5t77 -15h373v-1012v-20q0 -35 2 -57.5t9 -36t19.5 -20.5t32.5 -13v-207h-411v207q20 6 32.5 13t18.5 20.5t8 36t2 57.5v20v656 q0 41 -2 60.5t-6 35.5q-23 63 -113 63q-63 0 -87.5 -31.5t-24.5 -109.5v-16h116v-215h-116v-443v-20q0 -35 2 -57.5t8 -36t18.5 -20.5t32.5 -13v-207h-412z" />
</font>
</defs>
</svg>
